{
.appVersion = "1300";
DisplayStrings = (
"/uMatra-deva",
"/a-deva/i-deva/e-deva/iMatra-deva/ga-deva/ca-deva/tta-deva/ttha-deva/dda-deva/ddha-deva/nna-deva/ta-deva/tha-deva/da-deva/uMatra-deva/pa-deva/pha-deva/ma-deva/ya-deva/ra-deva/la-deva/va-deva"
);
date = "2020-02-06 08:09:08 +0000";
familyName = Scaled;
featurePrefixes = (
{
automatic = 1;
code = "languagesystem DFLT dflt;\012\012languagesystem dev2 dflt;\012\012languagesystem deva dflt;\012\012languagesystem limb dflt;\012languagesystem limb LMB;\012";
name = Languagesystems;
}
);
features = (
{
automatic = 1;
code = "feature subs;\012feature sinf;\012feature onum;\012feature salt;\012feature ss01;\012feature ss04;\012feature ss02;\012";
name = aalt;
},
{
automatic = 1;
code = "feature subs;\012feature sinf;\012feature onum;\012feature salt;\012feature ss01;\012feature calt;\012";
name = aalt;
},
{
code = "lookup Devaspace {\012\012	script dev2;\012		sub space by spacedeva;\012		\012} Devaspace;\012\012\012	lookup Devaspace1 {\012	script deva;\012		sub space by spacedeva;\012		\012} Devaspace1;";
disabled = 1;
name = locl;
},
{
automatic = 1;
code = "sub parenleft by parenleftinferior;\012sub parenright by parenrightinferior;\012";
name = subs;
},
{
automatic = 1;
code = "sub parenleft by parenleftinferior;\012sub parenright by parenrightinferior;\012";
name = sinf;
},
{
code = "	script limb;\012		\012		language LMB;\012			lookup Combiningaccent {\012				sub i-limbu ka-limbu.small by ika-limbu.small\012			} Combiningaccent;\012			";
disabled = 1;
name = liga;
},
{
code = "	script limb;\012		\012		language LMB;\012			lookup Limbu {\012				sub i-limbu ka-limbu.small by ika-limbu.small\012			} Limbu;\012			";
disabled = 1;
name = ccmp;
},
{
automatic = 1;

glyphs = (
{
glyphname = A;
lastChange = "2020-02-19 17:48:43 +0000";
layers = (
{
layerId = "6B6AD122-EF8D-49FE-8C69-4BDE8C56BDD8";
paths = (
{
closed = 1;
nodes = (
"247 0 LINE",
"257 39 LINE",
"257 53 LINE",
"229 110 OFFCURVE",
"236 134 OFFCURVE",
"258 203 CURVE SMOOTH",
"310 369 LINE",
"669 369 LINE",
"727 203 LINE SMOOTH",
"751 134 OFFCURVE",
"747 114 OFFCURVE",
"727 59 CURVE",
"727 44 LINE",
"737 5 LINE",
"1093 0 LINE",
"1105 50 LINE",
"1105 64 LINE",
"1046 121 OFFCURVE",
"993 186 OFFCURVE",
"967 257 CURVE SMOOTH",
"619 1187 LINE",
"588 1196 LINE",
"407 1117 LINE",
"106 230 LINE SMOOTH",
"85 168 OFFCURVE",
"53 121 OFFCURVE",
"-5 61 CURVE",
"-5 47 LINE",
"8 0 LINE"
);
},
{
closed = 1;
nodes = (
"479 908 LINE",
"620 508 LINE",
"354 508 LINE"
);
}
);
width = 1100;
},
{
layerId = "34301EF7-A2BE-469F-9697-D6100B11FDFE";
paths = (
{
closed = 1;
nodes = (
"749 520 LINE",
"342 520 LINE",
"320 456 LINE",
"773 456 LINE"
);
},
{
closed = 1;
nodes = (
"892 138 LINE SMOOTH",
"916 77 OFFCURVE",
"871 49 OFFCURVE",
"761 38 CURVE",
"758 33 LINE",
"763 0 LINE",
"1149 0 LINE",
"1153 34 LINE",
"1150 38 LINE",
"1108 50 OFFCURVE",
"1055 84 OFFCURVE",
"1033 136 CURVE SMOOTH",
"596 1185 LINE",
"581 1191 LINE",
"503 1153 LINE",
"129 136 LINE SMOOTH",
"107 77 OFFCURVE",
"54 50 OFFCURVE",
"12 38 CURVE",
"10 34 LINE",
"14 0 LINE",
"333 0 LINE",
"338 34 LINE",
"335 38 LINE",
"228 49 OFFCURVE",
"182 77 OFFCURVE",
"204 138 CURVE SMOOTH",
"555 1090 LINE",
"521 1090 LINE"
);
}
);
width = 1163;
},
{
layerId = "CFF67ECA-3B2D-433B-B605-F38590C8F106";
paths = (
{
closed = 1;
nodes = (
"696 523 LINE",
"348 523 LINE",
"313 413 LINE",
"738 413 LINE"
);
},
{
closed = 1;
nodes = (
"601 1185 LINE",
"475 1185 LINE",
"503 992 LINE",
"827 188 LINE SMOOTH",
"857 113 OFFCURVE",
"830 80 OFFCURVE",
"747 50 CURVE",
"742 41 LINE",
"749 0 LINE",
"1129 0 LINE",
"1132 43 LINE",
"1128 52 LINE",
"1084 76 OFFCURVE",
"1033 122 OFFCURVE",
"1007 186 CURVE SMOOTH",
"602 1185 LINE"
);
},
{
closed = 1;
nodes = (
"475 1185 LINE",
"122 186 LINE SMOOTH",
"96 113 OFFCURVE",
"53 76 OFFCURVE",
"9 50 CURVE",
"5 41 LINE",
"9 0 LINE",
"329 0 LINE",
"333 41 LINE",
"330 48 LINE",
"245 79 OFFCURVE",
"221 112 OFFCURVE",
"247 188 CURVE SMOOTH",
"524 992 LINE"
);
}
);
width = 1137;
}
);
unicode = 0041;
},
{
glyphname = B;
lastChange = "2020-02-13 14:30:40 +0000";
layers = (
{
hints = (
{
origin = "{0, 14}";
scale = "{0.96, 0.96}";
type = Corner;
name = _corner.CapRightSerif;
},
{
origin = "{0, 15}";
scale = "{0.96, 0.96}";
type = Corner;
name = _corner.CapLeftSerif;
}
);
layerId = "6B6AD122-EF8D-49FE-8C69-4BDE8C56BDD8";
paths = (
{
closed = 1;
nodes = (
"587 0 LINE SMOOTH",
"868 0 OFFCURVE",
"1047 87 OFFCURVE",
"1047 289 CURVE SMOOTH",
"1047 407 OFFCURVE",
"988 530 OFFCURVE",
"771 587 CURVE",
"771 598 LINE",
"906 653 OFFCURVE",
"985 759 OFFCURVE",
"985 878 CURVE SMOOTH",
"985 1007 OFFCURVE",
"894 1152 OFFCURVE",
"649 1153 CURVE SMOOTH",
"161 1155 LINE",
"161 0 LINE"
);
},
{
closed = 1;
nodes = (
"424 141 OFFCURVE",
"403 166 OFFCURVE",
"403 242 CURVE SMOOTH",
"403 503 LINE",
"464 512 OFFCURVE",
"499 514 OFFCURVE",
"528 514 CURVE SMOOTH",
"699 514 OFFCURVE",
"787 439 OFFCURVE",
"787 315 CURVE SMOOTH",
"787 222 OFFCURVE",
"743 141 OFFCURVE",
"568 141 CURVE SMOOTH",
"465 141 LINE SMOOTH"
);
},
{
closed = 1;
nodes = (
"477 651 OFFCURVE",
"447 651 OFFCURVE",
"403 659 CURVE",
"403 1011 LINE",
"520 1011 LINE SMOOTH",
"684 1011 OFFCURVE",
"728 916 OFFCURVE",
"728 825 CURVE SMOOTH",
"728 744 OFFCURVE",
"698 651 OFFCURVE",
"541 651 CURVE SMOOTH"
);
}
);
width = 1132;
},
{
hints = (
{
origin = "{0, 14}";
scale = "{0.67479, 0.67479}";
type = Corner;
name = _corner.CapRightSerif;
},
{
origin = "{0, 15}";
scale = "{0.67479, 0.67479}";
type = Corner;
name = _corner.CapLeftSerif;
}
);
layerId = "34301EF7-A2BE-469F-9697-D6100B11FDFE";
paths = (
{
closed = 1;
nodes = (
"536 0 LINE SMOOTH",
"844 0 OFFCURVE",
"950 164 OFFCURVE",
"950 316 CURVE SMOOTH",
"950 444 OFFCURVE",
"873 569 OFFCURVE",
"664 592 CURVE",
"664 597 LINE",
"806 659 OFFCURVE",
"878 775 OFFCURVE",
"878 883 CURVE SMOOTH",
"878 1028 OFFCURVE",
"747 1155 OFFCURVE",
"539 1155 CURVE SMOOTH",
"210 1155 LINE",
"210 0 LINE"
);
},
{
closed = 1;
nodes = (
"375 60 OFFCURVE",
"329 86 OFFCURVE",
"329 174 CURVE SMOOTH",
"329 550 LINE",
"379 555 OFFCURVE",
"430 555 OFFCURVE",
"470 555 CURVE SMOOTH",
"763 555 OFFCURVE",
"815 424 OFFCURVE",
"815 312 CURVE SMOOTH",
"815 200 OFFCURVE",
"762 60 OFFCURVE",
"546 60 CURVE SMOOTH",
"417 60 LINE SMOOTH"
);
},
{
closed = 1;
nodes = (
"448 605 OFFCURVE",
"388 605 OFFCURVE",
"329 611 CURVE",
"329 1095 LINE",
"512 1095 LINE SMOOTH",
"693 1095 OFFCURVE",
"743 977 OFFCURVE",
"743 869 CURVE SMOOTH",
"743 753 OFFCURVE",
"683 605 OFFCURVE",
"477 605 CURVE SMOOTH"
);
}
);
width = 1035;
},
{
hints = (
{
origin = "{0, 15}";
type = Corner;
name = _corner.CapLeftSerif;
},
{
origin = "{0, 14}";
type = Corner;
name = _corner.CapRightSerif;
}
);
layerId = "CFF67ECA-3B2D-433B-B605-F38590C8F106";
paths = (
{
closed = 1;
nodes = (
"676 0 LINE SMOOTH",
"891 0 OFFCURVE",
"1040 142 OFFCURVE",
"1040 318 CURVE SMOOTH",
"1040 442 OFFCURVE",
"965 565 OFFCURVE",
"755 589 CURVE",
"755 595 LINE",
"895 650 OFFCURVE",
"977 765 OFFCURVE",
"977 889 CURVE SMOOTH",
"977 1027 OFFCURVE",
"880 1153 OFFCURVE",
"642 1154 CURVE SMOOTH",
"249 1155 LINE",
"249 0 LINE"
);
},
{
closed = 1;
nodes = (
"445 104 OFFCURVE",
"409 129 OFFCURVE",
"409 212 CURVE SMOOTH",
"409 529 LINE",
"459 534 OFFCURVE",
"518 534 OFFCURVE",
"528 534 CURVE SMOOTH",
"825 534 OFFCURVE",
"870 430 OFFCURVE",
"870 327 CURVE SMOOTH",
"870 225 OFFCURVE",
"826 104 OFFCURVE",
"590 104 CURVE SMOOTH",
"479 104 LINE SMOOTH"
);
},
{
closed = 1;
nodes = (
"552 636 OFFCURVE",
"480 635 OFFCURVE",
"409 646 CURVE",
"409 1051 LINE",
"573 1051 LINE SMOOTH",
"725 1051 OFFCURVE",
"812 983 OFFCURVE",
"812 851 CURVE SMOOTH",
"812 752 OFFCURVE",
"762 642 OFFCURVE",
"583 637 CURVE SMOOTH"
);
}
);
width = 1135;
}
);
leftMetricsKey = H;
unicode = 0042;
},
{
glyphname = C;
lastChange = "2020-03-07 17:01:54 +0000";
layers = (
{
layerId = "6B6AD122-EF8D-49FE-8C69-4BDE8C56BDD8";
paths = (
{
closed = 1;
nodes = (
"745 -30 OFFCURVE",
"882 -14 OFFCURVE",
"1023 21 CURVE",
"1035 296 LINE",
"933 300 LINE",
"889 214 OFFCURVE",
"811 120 OFFCURVE",
"672 120 CURVE SMOOTH",
"460 120 OFFCURVE",
"335 327 OFFCURVE",
"335 603 CURVE SMOOTH",
"335 875 OFFCURVE",
"450 1029 OFFCURVE",
"622 1029 CURVE SMOOTH",
"769 1029 OFFCURVE",
"851 919 OFFCURVE",
"886 843 CURVE",
"978 847 LINE",
"978 1137 LINE",
"871 1170 OFFCURVE",
"769 1185 OFFCURVE",
"695 1185 CURVE SMOOTH",
"389 1185 OFFCURVE",
"72 937 OFFCURVE",
"72 554 CURVE SMOOTH",
"72 206 OFFCURVE",
"315 -30 OFFCURVE",
"655 -30 CURVE SMOOTH"
);
}
);
width = 1140;
},
{
layerId = "34301EF7-A2BE-469F-9697-D6100B11FDFE";
paths = (
{
closed = 1;
nodes = (
"739 -30 OFFCURVE",
"889 5 OFFCURVE",
"980 53 CURVE",
"1023 390 LINE",
"982 390 LINE",
"917 73 OFFCURVE",
"749 31 OFFCURVE",
"634 31 CURVE SMOOTH",
"349 31 OFFCURVE",
"218 309 OFFCURVE",
"218 606 CURVE SMOOTH",
"218 900 OFFCURVE",
"377 1125 OFFCURVE",
"625 1125 CURVE SMOOTH",
"788 1125 OFFCURVE",
"880 1028 OFFCURVE",
"925 765 CURVE",
"967 765 LINE",
"967 1094 LINE",
"882 1158 OFFCURVE",
"766 1185 OFFCURVE",
"657 1185 CURVE SMOOTH",
"335 1185 OFFCURVE",
"80 950 OFFCURVE",
"80 576 CURVE SMOOTH",
"80 251 OFFCURVE",
"258 -30 OFFCURVE",
"612 -30 CURVE SMOOTH"
);
}
);
width = 1098;
},
{
layerId = "CFF67ECA-3B2D-433B-B605-F38590C8F106";
paths = (
{
closed = 1;
nodes = (
"750 -30 OFFCURVE",
"888 -6 OFFCURVE",
"1016 39 CURVE",
"1038 357 LINE",
"980 361 LINE",
"940 225 OFFCURVE",
"862 74 OFFCURVE",
"668 74 CURVE SMOOTH",
"416 74 OFFCURVE",
"268 317 OFFCURVE",
"268 613 CURVE SMOOTH",
"268 882 OFFCURVE",
"403 1076 OFFCURVE",
"628 1076 CURVE SMOOTH",
"814 1076 OFFCURVE",
"890 947 OFFCURVE",
"920 811 CURVE",
"976 815 LINE",
"976 1132 LINE",
"869 1167 OFFCURVE",
"757 1185 OFFCURVE",
"673 1185 CURVE SMOOTH",
"362 1185 OFFCURVE",
"96 948 OFFCURVE",
"96 572 CURVE SMOOTH",
"96 245 OFFCURVE",
"295 -30 OFFCURVE",
"645 -30 CURVE SMOOTH"
);
}
);
width = 1123;
}
);
leftMetricsKey = O;
unicode = 0043;
},
{
glyphname = D;
lastChange = "2020-03-07 17:01:56 +0000";
layers = (
{
hints = (
{
origin = "{0, 7}";
scale = "{0.96, 0.96}";
type = Corner;
name = _corner.CapRightSerif;
},
{
origin = "{0, 8}";
scale = "{0.96, 0.96}";
type = Corner;
name = _corner.CapLeftSerif;
}
);
layerId = "6B6AD122-EF8D-49FE-8C69-4BDE8C56BDD8";
paths = (
{
closed = 1;
nodes = (
"507 0 LINE SMOOTH",
"856 0 OFFCURVE",
"1109 248 OFFCURVE",
"1109 607 CURVE SMOOTH",
"1109 871 OFFCURVE",
"968 1155 OFFCURVE",
"540 1155 CURVE SMOOTH",
"161 1155 LINE",
"161 0 LINE"
);
},
{
closed = 1;
nodes = (
"424 141 OFFCURVE",
"403 166 OFFCURVE",
"403 242 CURVE SMOOTH",
"403 1013 LINE",
"477 1013 LINE SMOOTH",
"733 1013 OFFCURVE",
"841 789 OFFCURVE",
"841 539 CURVE SMOOTH",
"841 279 OFFCURVE",
"719 141 OFFCURVE",
"550 141 CURVE SMOOTH",
"465 141 LINE SMOOTH"
);
}
);
width = 1178;
},
{
hints = (
{
origin = "{0, 7}";
scale = "{0.74227, 0.74227}";
type = Corner;
name = _corner.CapRightSerif;
},
{
origin = "{0, 8}";
scale = "{0.74227, 0.74227}";
type = Corner;
name = _corner.CapLeftSerif;
}
);
layerId = "34301EF7-A2BE-469F-9697-D6100B11FDFE";
paths = (
{
closed = 1;
nodes = (
"553 0 LINE SMOOTH",
"915 0 OFFCURVE",
"1134 257 OFFCURVE",
"1134 594 CURVE SMOOTH",
"1134 925 OFFCURVE",
"922 1155 OFFCURVE",
"567 1155 CURVE SMOOTH",
"225 1155 LINE",
"225 0 LINE"
);
},
{
closed = 1;
nodes = (
"414 63 OFFCURVE",
"344 77 OFFCURVE",
"344 159 CURVE SMOOTH",
"344 1092 LINE",
"527 1092 LINE SMOOTH",
"858 1092 OFFCURVE",
"999 840 OFFCURVE",
"999 573 CURVE SMOOTH",
"999 294 OFFCURVE",
"838 63 OFFCURVE",
"580 63 CURVE SMOOTH",
"456 63 LINE SMOOTH"
);
}
);
width = 1209;
},
{
hints = (
{
origin = "{0, 8}";
type = Corner;
name = _corner.CapLeftSerif;
},
{
origin = "{0, 7}";
type = Corner;
name = _corner.CapRightSerif;
}
);
layerId = "CFF67ECA-3B2D-433B-B605-F38590C8F106";
paths = (
{
closed = 1;
nodes = (
"595 0 LINE SMOOTH",
"941 0 OFFCURVE",
"1173 271 OFFCURVE",
"1173 606 CURVE SMOOTH",
"1173 909 OFFCURVE",
"1001 1155 OFFCURVE",
"651 1155 CURVE SMOOTH",
"249 1155 LINE",
"249 0 LINE"
);
},
{
closed = 1;
nodes = (
"453 103 OFFCURVE",
"417 127 OFFCURVE",
"417 210 CURVE SMOOTH",
"417 1052 LINE",
"589 1052 LINE SMOOTH",
"884 1052 OFFCURVE",
"997 814 OFFCURVE",
"997 565 CURVE SMOOTH",
"997 283 OFFCURVE",
"845 103 OFFCURVE",
"604 103 CURVE SMOOTH",
"487 103 LINE SMOOTH"
);
}
);
width = 1262;
}
);
leftMetricsKey = H;
rightMetricsKey = O;
unicode = 0044;
},
{
glyphname = E;
lastChange = "2020-03-07 17:01:54 +0000";
layers = (
{
hints = (
{
origin = "{0, 20}";
type = Corner;
name = _corner.CapRightSerif;
},
{
origin = "{0, 21}";
type = Corner;
name = _corner.CapLeftSerif;
},
{
origin = "{0, 9}";
scale = "{1.5, 1}";
type = Corner;
name = _corner.CapLeftSerif;
},
{
origin = "{0, 10}";
scale = "{1.5, 1}";
type = Corner;
name = _corner.CapRightSerif;
}
);
layerId = "6B6AD122-EF8D-49FE-8C69-4BDE8C56BDD8";
paths = (
{
closed = 1;
nodes = (
"929 0 LINE",
"959 237 LINE",
"890 274 LINE",
"879 274 LINE",
"757 170 OFFCURVE",
"620 144 OFFCURVE",
"521 144 CURVE SMOOTH",
"405 144 LINE",
"405 515 LINE",
"754 515 LINE",
"754 654 LINE",
"405 654 LINE",
"405 1011 LINE",
"513 1011 LINE SMOOTH",
"604 1011 OFFCURVE",
"724 988 OFFCURVE",
"813 876 CURVE",
"824 876 LINE",
"889 899 LINE",
"889 1155 LINE",
"163 1155 LINE",
"163 0 LINE"
);
}
);
width = 1049;
},
{
hints = (
{
origin = "{0, 9}";
scale = "{0.74227, 0.74227}";
type = Corner;
name = _corner.CapLeftSerif;
},
{
origin = "{0, 10}";
scale = "{0.74227, 0.74227}";
type = Corner;
name = _corner.CapRightSerif;
},
{
origin = "{0, 20}";
scale = "{0.74227, 0.74227}";
type = Corner;
name = _corner.CapRightSerif;
},
{
origin = "{0, 21}";
scale = "{0.74227, 0.74227}";
type = Corner;
name = _corner.CapLeftSerif;
}
);
layerId = "34301EF7-A2BE-469F-9697-D6100B11FDFE";
paths = (
{
closed = 1;
nodes = (
"880 0 LINE",
"966 381 LINE",
"934 392 LINE",
"926 389 LINE",
"862 166 OFFCURVE",
"793 64 OFFCURVE",
"650 64 CURVE SMOOTH",
"345 64 LINE",
"345 530 LINE",
"694 530 LINE",
"694 594 LINE",
"345 594 LINE",
"345 1091 LINE",
"620 1091 LINE SMOOTH",
"762 1091 OFFCURVE",
"795 1027 OFFCURVE",
"825 769 CURVE",
"832 763 LINE",
"866 768 LINE",
"866 1155 LINE",
"225 1155 LINE",
"225 0 LINE"
);
}
);
width = 1066;
},
{
background = {
hints = (
{
origin = "{0, 0}";
type = Corner;
name = _corner.CapRightSerif;
},
{
origin = "{0, 1}";
type = Corner;
name = _corner.CapLeftSerif;
},
{
origin = "{0, 2}";
type = Corner;
name = _corner.CapRightSerif;
},
{
origin = "{0, 3}";
type = Corner;
name = _corner.CapLeftSerif;
},
{
origin = "{1, 0}";
type = Corner;
name = _corner.CapRightSerif;
},
{
origin = "{1, 1}";
type = Corner;
name = _corner.CapLeftSerif;
},
{
origin = "{1, 2}";
type = Corner;
name = _corner.CapRightSerif;
},
{
origin = "{1, 3}";
type = Corner;
name = _corner.CapLeftSerif;
}
);
paths = (
{
closed = 1;
nodes = (
"1031 0 LINE",
"1031 1155 LINE",
"871 1155 LINE",
"871 0 LINE"
);
},
{
closed = 1;
nodes = (
"266 0 LINE",
"266 1155 LINE",
"106 1155 LINE",
"106 0 LINE"
);
},
{
closed = 1;
nodes = (
"895 528 LINE",
"895 643 LINE",
"230 643 LINE",
"230 528 LINE"
);
}
);
};
hints = (
{
origin = "{0, 1}";
type = Corner;
name = _corner.CapRightSerif;
options = 1;
},
{
origin = "{0, 12}";
type = Corner;
name = _corner.CapLeftSerif;
},
{
origin = "{0, 13}";
type = Corner;
name = _corner.CapRightSerif;
},
{
origin = "{0, 2}";
type = Corner;
name = _corner.CapLeftSerif;
}
);
layerId = "CFF67ECA-3B2D-433B-B605-F38590C8F106";
paths = (
{
closed = 1;
nodes = (
"883 1155 LINE",
"264 1145 LINE",
"19 -10 LINE {GSCorner = {name = _corner.CapLeftSerif;};}",
"669 0 LINE",
"796 362 LINE",
"747 373 LINE",
"738 375 LINE",
"620 169 OFFCURVE",
"515 108 OFFCURVE",
"409 107 CURVE SMOOTH",
"201 106 LINE",
"291 526 LINE",
"632 526 LINE",
"653 628 LINE",
"312 628 LINE",
"402 1049 LINE",
"681 1049 LINE SMOOTH",
"746 1049 OFFCURVE",
"784 1008 OFFCURVE",
"771 846 CURVE",
"777 836 LINE",
"829 843 LINE",
"892 1145 LINE"
);
}
);
width = 866;
}
);
leftMetricsKey = H;
unicode = 0045;
},
{
glyphname = F;
lastChange = "2020-02-19 12:04:24 +0000";
layers = (
{
hints = (
{
origin = "{0, 14}";
type = Corner;
name = _corner.CapLeftSerif;
},
{
origin = "{0, 0}";
type = Corner;
name = _corner.CapRightSerif;
},
{
origin = "{0, 2}";
scale = "{1.5, 1}";
type = Corner;
name = _corner.CapLeftSerif;
},
{
origin = "{0, 3}";
scale = "{1.5, 1}";
type = Corner;
name = _corner.CapRightSerif;
},
{
origin = "{0, 13}";
type = Corner;
name = _corner.CapRightSerif;
}
);
layerId = "6B6AD122-EF8D-49FE-8C69-4BDE8C56BDD8";
paths = (
{
closed = 1;
nodes = (
"405 0 LINE",
"405 490 LINE",
"764 490 LINE",
"764 629 LINE",
"405 629 LINE",
"405 1011 LINE",
"513 1011 LINE SMOOTH",
"604 1011 OFFCURVE",
"734 988 OFFCURVE",
"823 866 CURVE",
"834 866 LINE",
"899 889 LINE",
"899 1155 LINE",
"163 1155 LINE",
"163 0 LINE"
);
}
);
width = 974;
},
{
hints = (
{
origin = "{0, 0}";
scale = "{0.81649, 0.74227}";
type = Corner;
name = _corner.CapRightSerif;
},
{
origin = "{0, 2}";
scale = "{0.74227, 0.74227}";
type = Corner;
name = _corner.CapLeftSerif;
},
{
origin = "{0, 3}";
scale = "{0.74227, 0.74227}";
type = Corner;
name = _corner.CapRightSerif;
},
{
origin = "{0, 14}";
scale = "{0.74227, 0.74227}";
type = Corner;
name = _corner.CapLeftSerif;
},
{
origin = "{0, 13}";
scale = "{0.74227, 0.74227}";
type = Corner;
name = _corner.CapRightSerif;
}
);
layerId = "34301EF7-A2BE-469F-9697-D6100B11FDFE";
paths = (
{
closed = 1;
nodes = (
"345 0 LINE",
"345 520 LINE",
"710 520 LINE",
"710 588 LINE",
"345 588 LINE",
"345 1091 LINE",
"640 1091 LINE SMOOTH",
"782 1091 OFFCURVE",
"798 1032 OFFCURVE",
"835 769 CURVE",
"842 763 LINE",
"876 768 LINE",
"876 1155 LINE",
"225 1155 LINE",
"225 0 LINE"
);
}
);
width = 976;
},
{
hints = (
{
origin = "{0, 5}";
type = Corner;
name = _corner.CapLeftSerif;
},
{
origin = "{0, 6}";
type = Corner;
name = _corner.CapRightSerif;
},
{
origin = "{0, 3}";
scale = "{1.2, 1}";
type = Corner;
name = _corner.CapRightSerif;
},
{
origin = "{0, 2}";
type = Corner;
name = _corner.CapLeftSerif;
},
{
origin = "{0, 1}";
type = Corner;
name = _corner.CapRightSerif;
}
);
layerId = "CFF67ECA-3B2D-433B-B605-F38590C8F106";
paths = (
{
closed = 1;
nodes = (
"919 1155 LINE",
"249 1155 LINE",
"249 0 LINE",
"409 0 LINE",
"409 530 LINE",
"791 530 LINE",
"791 632 LINE",
"409 632 LINE",
"409 1049 LINE",
"733 1049 LINE SMOOTH",
"798 1049 OFFCURVE",
"849 1002 OFFCURVE",
"871 840 CURVE",
"878 836 LINE",
"930 844 LINE",
"930 1145 LINE"
);
}
);
width = 1010;
}
);
leftMetricsKey = H;
unicode = 0046;
},
{
glyphname = G;
lastChange = "2020-03-07 17:01:56 +0000";
layers = (
{
hints = (
{
origin = "{0, 4}";
scale = "{1.4, 1}";
type = Corner;
name = _corner.CapRightSerif;
},
{
origin = "{0, 3}";
type = Corner;
name = _corner.CapLeftSerif;
}
);
layerId = "6B6AD122-EF8D-49FE-8C69-4BDE8C56BDD8";
paths = (
{
closed = 1;
nodes = (
"780 -41 OFFCURVE",
"930 -3 OFFCURVE",
"1056 41 CURVE",
"1056 558 LINE",
"817 559 LINE",
"817 146 LINE",
"780 125 OFFCURVE",
"738 111 OFFCURVE",
"688 111 CURVE SMOOTH",
"484 111 OFFCURVE",
"337 335 OFFCURVE",
"337 615 CURVE SMOOTH",
"337 871 OFFCURVE",
"452 1029 OFFCURVE",
"627 1029 CURVE SMOOTH",
"775 1029 OFFCURVE",
"857 919 OFFCURVE",
"892 843 CURVE",
"984 847 LINE",
"984 1136 LINE",
"877 1169 OFFCURVE",
"775 1185 OFFCURVE",
"695 1185 CURVE SMOOTH",
"391 1185 OFFCURVE",
"72 945 OFFCURVE",
"72 552 CURVE SMOOTH",
"72 255 OFFCURVE",
"243 -41 OFFCURVE",
"640 -41 CURVE SMOOTH"
);
}
);
width = 1219;
},
{
hints = (
{
origin = "{0, 3}";
scale = "{0.51959, 0.74227}";
type = Corner;
name = _corner.CapLeftSerif;
},
{
origin = "{0, 4}";
scale = "{0.74227, 0.74227}";
type = Corner;
name = _corner.CapRightSerif;
}
);
layerId = "34301EF7-A2BE-469F-9697-D6100B11FDFE";
paths = (
{
closed = 1;
nodes = (
"736 -41 OFFCURVE",
"862 -10 OFFCURVE",
"988 56 CURVE",
"988 538 LINE",
"867 538 LINE",
"867 96 LINE",
"811 49 OFFCURVE",
"724 15 OFFCURVE",
"630 15 CURVE SMOOTH",
"352 15 OFFCURVE",
"216 319 OFFCURVE",
"216 606 CURVE SMOOTH",
"216 900 OFFCURVE",
"372 1125 OFFCURVE",
"620 1125 CURVE SMOOTH",
"783 1125 OFFCURVE",
"875 1028 OFFCURVE",
"920 765 CURVE",
"962 765 LINE",
"962 1094 LINE",
"877 1158 OFFCURVE",
"761 1185 OFFCURVE",
"652 1185 CURVE SMOOTH",
"330 1185 OFFCURVE",
"78 950 OFFCURVE",
"78 564 CURVE SMOOTH",
"78 239 OFFCURVE",
"287 -41 OFFCURVE",
"616 -41 CURVE SMOOTH"
);
}
);
width = 1149;
},
{
hints = (
{
origin = "{0, 4}";
type = Corner;
name = _corner.CapRightSerif;
},
{
origin = "{0, 3}";
scale = "{0.7, 1}";
type = Corner;
name = _corner.CapLeftSerif;
}
);
layerId = "CFF67ECA-3B2D-433B-B605-F38590C8F106";
paths = (
{
closed = 1;
nodes = (
"764 -30 OFFCURVE",
"901 0 OFFCURVE",
"1036 61 CURVE",
"1036 557 LINE",
"876 557 LINE",
"876 122 LINE",
"824 87 OFFCURVE",
"750 61 OFFCURVE",
"674 61 CURVE SMOOTH",
"428 61 OFFCURVE",
"268 337 OFFCURVE",
"268 613 CURVE SMOOTH",
"268 882 OFFCURVE",
"403 1076 OFFCURVE",
"628 1076 CURVE SMOOTH",
"814 1076 OFFCURVE",
"894 947 OFFCURVE",
"924 811 CURVE",
"984 815 LINE",
"984 1132 LINE",
"873 1167 OFFCURVE",
"767 1185 OFFCURVE",
"680 1185 CURVE SMOOTH",
"362 1185 OFFCURVE",
"96 948 OFFCURVE",
"96 574 CURVE SMOOTH",
"96 256 OFFCURVE",
"292 -30 OFFCURVE",
"643 -30 CURVE SMOOTH"
);
}
);
width = 1240;
}
);
leftMetricsKey = O;
unicode = 0047;
},
{
glyphname = H;
lastChange = "2020-02-21 10:34:18 +0000";
layers = (
{
hints = (
{
origin = "{0, 0}";
type = Corner;
name = _corner.CapRightSerif;
},
{
origin = "{0, 2}";
type = Corner;
name = _corner.CapRightSerif;
},
{
origin = "{1, 0}";
type = Corner;
name = _corner.CapRightSerif;
},
{
origin = "{1, 2}";
type = Corner;
name = _corner.CapRightSerif;
},
{
origin = "{0, 3}";
type = Corner;
name = _corner.CapLeftSerif;
},
{
origin = "{0, 1}";
type = Corner;
name = _corner.CapLeftSerif;
},
{
origin = "{1, 3}";
type = Corner;
name = _corner.CapLeftSerif;
},
{
origin = "{1, 1}";
type = Corner;
name = _corner.CapLeftSerif;
}
);
layerId = "6B6AD122-EF8D-49FE-8C69-4BDE8C56BDD8";
paths = (
{
closed = 1;
nodes = (
"1118 0 LINE",
"1118 1155 LINE",
"877 1155 LINE",
"877 0 LINE"
);
},
{
closed = 1;
nodes = (
"405 0 LINE",
"405 1155 LINE",
"163 1155 LINE",
"163 0 LINE"
);
},
{
closed = 1;
nodes = (
"944 520 LINE",
"944 666 LINE",
"303 666 LINE",
"303 520 LINE"
);
}
);
width = 1281;
},
{
hints = (
{
origin = "{0, 0}";
scale = "{0.74227, 0.74227}";
type = Corner;
name = _corner.CapRightSerif;
},
{
origin = "{0, 1}";
scale = "{0.74227, 0.74227}";
type = Corner;
name = _corner.CapLeftSerif;
},
{
origin = "{0, 2}";
scale = "{0.74227, 0.74227}";
type = Corner;
name = _corner.CapRightSerif;
},
{
origin = "{0, 3}";
scale = "{0.74227, 0.74227}";
type = Corner;
name = _corner.CapLeftSerif;
},
{
origin = "{1, 0}";
scale = "{0.74227, 0.74227}";
type = Corner;
name = _corner.CapRightSerif;
},
{
origin = "{1, 1}";
scale = "{0.74227, 0.74227}";
type = Corner;
name = _corner.CapLeftSerif;
},
{
origin = "{1, 2}";
scale = "{0.74227, 0.74227}";
type = Corner;
name = _corner.CapRightSerif;
},
{
origin = "{1, 3}";
scale = "{0.74227, 0.74227}";
type = Corner;
name = _corner.CapLeftSerif;
}
);
layerId = "34301EF7-A2BE-469F-9697-D6100B11FDFE";
paths = (
{
closed = 1;
nodes = (
"1088 0 LINE",
"1088 1155 LINE",
"968 1155 LINE",
"968 0 LINE"
);
},
{
closed = 1;
nodes = (
"345 0 LINE",
"345 1155 LINE",
"225 1155 LINE",
"225 0 LINE"
);
},
{
closed = 1;
nodes = (
"983 573 LINE",
"983 637 LINE",
"326 637 LINE",
"326 573 LINE"
);
}
);
width = 1313;
},
{
hints = (
{
origin = "{1, 0}";
type = Corner;
name = _corner.CapRightSerif;
},
{
origin = "{1, 1}";
type = Corner;
name = _corner.CapLeftSerif;
},
{
origin = "{1, 2}";
type = Corner;
name = _corner.CapRightSerif;
},
{
origin = "{1, 3}";
type = Corner;
name = _corner.CapLeftSerif;
},
{
origin = "{0, 0}";
type = Corner;
name = _corner.CapRightSerif;
},
{
origin = "{0, 1}";
type = Corner;
name = _corner.CapLeftSerif;
},
{
origin = "{0, 2}";
type = Corner;
name = _corner.CapRightSerif;
},
{
origin = "{0, 3}";
type = Corner;
name = _corner.CapLeftSerif;
}
);
layerId = "CFF67ECA-3B2D-433B-B605-F38590C8F106";
paths = (
{
closed = 1;
nodes = (
"1174 0 LINE",
"1174 1155 LINE",
"1014 1155 LINE",
"1014 0 LINE"
);
},
{
closed = 1;
nodes = (
"409 0 LINE",
"409 1155 LINE",
"249 1155 LINE",
"249 0 LINE"
);
},
{
closed = 1;
nodes = (
"1038 528 LINE",
"1038 643 LINE",
"373 643 LINE",
"373 528 LINE"
);
}
);
width = 1423;
}
);
unicode = 0048;
},
{
glyphname = I;
lastChange = "2020-02-19 08:23:52 +0000";
layers = (
{
hints = (
{
origin = "{0, 0}";
type = Corner;
name = _corner.CapRightSerif;
},
{
origin = "{0, 2}";
type = Corner;
name = _corner.CapRightSerif;
},
{
origin = "{0, 3}";
type = Corner;
name = _corner.CapLeftSerif;
},
{
origin = "{0, 1}";
type = Corner;
name = _corner.CapLeftSerif;
}
);
layerId = "6B6AD122-EF8D-49FE-8C69-4BDE8C56BDD8";
paths = (
{
closed = 1;
nodes = (
"405 0 LINE",
"405 1155 LINE",
"163 1155 LINE",
"163 0 LINE"
);
}
);
width = 568;
},
{
hints = (
{
origin = "{0, 0}";
scale = "{0.74227, 0.74227}";
type = Corner;
name = _corner.CapRightSerif;
},
{
origin = "{0, 1}";
scale = "{0.74227, 0.74227}";
type = Corner;
name = _corner.CapLeftSerif;
},
{
origin = "{0, 2}";
scale = "{0.74227, 0.74227}";
type = Corner;
name = _corner.CapRightSerif;
},
{
origin = "{0, 3}";
scale = "{0.74227, 0.74227}";
type = Corner;
name = _corner.CapLeftSerif;
}
);
layerId = "34301EF7-A2BE-469F-9697-D6100B11FDFE";
paths = (
{
closed = 1;
nodes = (
"345 0 LINE",
"345 1155 LINE",
"225 1155 LINE",
"225 0 LINE"
);
}
);
width = 570;
},
{
hints = (
{
origin = "{0, 0}";
type = Corner;
name = _corner.CapRightSerif;
},
{
origin = "{0, 2}";
type = Corner;
name = _corner.CapRightSerif;
},
{
origin = "{0, 3}";
type = Corner;
name = _corner.CapLeftSerif;
},
{
origin = "{0, 1}";
type = Corner;
name = _corner.CapLeftSerif;
}
);
layerId = "CFF67ECA-3B2D-433B-B605-F38590C8F106";
paths = (
{
closed = 1;
nodes = (
"409 0 LINE",
"409 1155 LINE",
"249 1155 LINE",
"249 0 LINE"
);
}
);
width = 658;
}
);
leftMetricsKey = H;
rightMetricsKey = H;
unicode = 0049;
},
{
glyphname = J;
lastChange = "2020-03-07 17:01:56 +0000";
layers = (
{
hints = (
{
origin = "{0, 3}";
type = Corner;
name = _corner.CapLeftSerif;
},
{
origin = "{0, 4}";
type = Corner;
name = _corner.CapRightSerif;
}
);
layerId = "6B6AD122-EF8D-49FE-8C69-4BDE8C56BDD8";
paths = (
{
closed = 1;
nodes = (
"504 -30 OFFCURVE",
"695 62 OFFCURVE",
"695 264 CURVE SMOOTH",
"695 1186 LINE",
"453 1186 LINE",
"453 221 LINE SMOOTH",
"453 157 OFFCURVE",
"434 111 OFFCURVE",
"369 111 CURVE SMOOTH",
"308 111 OFFCURVE",
"272 154 OFFCURVE",
"272 209 CURVE SMOOTH",
"272 235 OFFCURVE",
"280 265 OFFCURVE",
"291 295 CURVE",
"289 309 LINE",
"246 341 OFFCURVE",
"203 354 OFFCURVE",
"165 354 CURVE SMOOTH",
"73 354 OFFCURVE",
"10 281 OFFCURVE",
"10 191 CURVE SMOOTH",
"10 67 OFFCURVE",
"119 -30 OFFCURVE",
"312 -30 CURVE SMOOTH"
);
}
);
width = 767;
},
{
hints = (
{
origin = "{0, 3}";
scale = "{0.74227, 0.74227}";
type = Corner;
name = _corner.CapLeftSerif;
},
{
origin = "{0, 4}";
scale = "{0.74227, 0.74227}";
type = Corner;
name = _corner.CapRightSerif;
}
);
layerId = "34301EF7-A2BE-469F-9697-D6100B11FDFE";
paths = (
{
closed = 1;
nodes = (
"463 -30 OFFCURVE",
"595 44 OFFCURVE",
"595 244 CURVE SMOOTH",
"595 1155 LINE",
"475 1155 LINE",
"475 238 LINE SMOOTH",
"475 138 OFFCURVE",
"440 27 OFFCURVE",
"325 27 CURVE SMOOTH",
"258 27 OFFCURVE",
"202 64 OFFCURVE",
"202 128 CURVE SMOOTH",
"202 164 OFFCURVE",
"219 195 OFFCURVE",
"243 214 CURVE",
"248 227 LINE",
"231 249 OFFCURVE",
"208 256 OFFCURVE",
"188 256 CURVE SMOOTH",
"127 256 OFFCURVE",
"80 201 OFFCURVE",
"80 134 CURVE SMOOTH",
"80 48 OFFCURVE",
"158 -30 OFFCURVE",
"322 -30 CURVE SMOOTH"
);
}
);
width = 620;
},
{
hints = (
{
origin = "{0, 4}";
type = Corner;
name = _corner.CapRightSerif;
},
{
origin = "{0, 3}";
type = Corner;
name = _corner.CapLeftSerif;
}
);
layerId = "CFF67ECA-3B2D-433B-B605-F38590C8F106";
paths = (
{
closed = 1;
nodes = (
"417 -30 OFFCURVE",
"583 23 OFFCURVE",
"583 294 CURVE SMOOTH",
"583 1155 LINE",
"422 1155 LINE",
"422 306 LINE SMOOTH",
"422 161 OFFCURVE",
"372 70 OFFCURVE",
"277 70 CURVE SMOOTH",
"235 70 OFFCURVE",
"182 88 OFFCURVE",
"182 151 CURVE SMOOTH",
"182 182 OFFCURVE",
"195 209 OFFCURVE",
"214 232 CURVE",
"214 246 LINE",
"190 269 OFFCURVE",
"165 277 OFFCURVE",
"142 277 CURVE SMOOTH",
"75 277 OFFCURVE",
"20 212 OFFCURVE",
"20 138 CURVE SMOOTH",
"20 51 OFFCURVE",
"98 -30 OFFCURVE",
"271 -30 CURVE SMOOTH"
);
}
);
width = 640;
}
);
rightMetricsKey = H;
unicode = 004A;
},
{
glyphname = K;
lastChange = "2020-02-19 12:09:14 +0000";
layers = (
{
hints = (
{
origin = "{1, 0}";
scale = "{0.96, 0.96}";
type = Corner;
name = _corner.CapRightSerif;
},
{
origin = "{1, 2}";
scale = "{0.96, 0.96}";
type = Corner;
name = _corner.CapRightSerif;
},
{
origin = "{1, 3}";
scale = "{0.96, 0.96}";
type = Corner;
name = _corner.CapLeftSerif;
},
{
origin = "{1, 1}";
scale = "{0.96, 0.96}";
type = Corner;
name = _corner.CapLeftSerif;
}
);
layerId = "6B6AD122-EF8D-49FE-8C69-4BDE8C56BDD8";
paths = (
{
closed = 1;
nodes = (
"940 988 LINE SMOOTH",
"984 1029 OFFCURVE",
"1043 1069 OFFCURVE",
"1116 1095 CURVE",
"1116 1106 LINE",
"1106 1155 LINE",
"772 1155 LINE",
"739 1109 LINE",
"739 1099 LINE",
"759 1060 OFFCURVE",
"756 1009 OFFCURVE",
"677 934 CURVE SMOOTH",
"382 653 LINE",
"377 461 LINE"
);
},
{
closed = 1;
nodes = (
"403 0 LINE",
"403 1155 LINE",
"161 1155 LINE",
"161 0 LINE"
);
},
{
closed = 1;
nodes = (
"1113 0 LINE",
"1126 48 LINE",
"1126 62 LINE",
"1092 80 OFFCURVE",
"1025 117 OFFCURVE",
"983 188 CURVE SMOOTH",
"642 766 LINE",
"490 596 LINE",
"698 197 LINE SMOOTH",
"739 119 OFFCURVE",
"748 86 OFFCURVE",
"711 55 CURVE",
"711 44 LINE",
"733 0 LINE"
);
}
);
width = 1131;
},
{
hints = (
{
origin = "{1, 0}";
scale = "{0.74227, 0.74227}";
type = Corner;
name = _corner.CapRightSerif;
},
{
origin = "{1, 1}";
scale = "{0.74227, 0.74227}";
type = Corner;
name = _corner.CapLeftSerif;
},
{
origin = "{1, 2}";
scale = "{0.74227, 0.74227}";
type = Corner;
name = _corner.CapRightSerif;
},
{
origin = "{1, 3}";
scale = "{0.74227, 0.74227}";
type = Corner;
name = _corner.CapLeftSerif;
}
);
layerId = "34301EF7-A2BE-469F-9697-D6100B11FDFE";
paths = (
{
closed = 1;
nodes = (
"885 980 LINE SMOOTH",
"991 1075 OFFCURVE",
"1072 1108 OFFCURVE",
"1107 1117 CURVE",
"1111 1122 LINE",
"1105 1155 LINE",
"741 1155 LINE",
"738 1122 LINE",
"742 1117 LINE",
"846 1101 OFFCURVE",
"866 1051 OFFCURVE",
"790 983 CURVE SMOOTH",
"295 538 LINE",
"295 449 LINE"
);
},
{
closed = 1;
nodes = (
"345 0 LINE",
"345 1155 LINE",
"225 1155 LINE",
"225 0 LINE"
);
},
{
closed = 1;
nodes = (
"1127 0 LINE",
"1134 32 LINE",
"1131 38 LINE",
"1085 49 OFFCURVE",
"1025 86 OFFCURVE",
"956 186 CURVE SMOOTH",
"580 731 LINE",
"494 641 LINE",
"832 146 LINE SMOOTH",
"884 70 OFFCURVE",
"863 53 OFFCURVE",
"744 38 CURVE",
"740 33 LINE",
"743 0 LINE"
);
}
);
width = 1104;
},
{
hints = (
{
origin = "{1, 0}";
type = Corner;
name = _corner.CapRightSerif;
},
{
origin = "{1, 1}";
type = Corner;
name = _corner.CapLeftSerif;
},
{
origin = "{1, 2}";
type = Corner;
name = _corner.CapRightSerif;
},
{
origin = "{1, 3}";
type = Corner;
name = _corner.CapLeftSerif;
}
);
layerId = "CFF67ECA-3B2D-433B-B605-F38590C8F106";
paths = (
{
closed = 1;
nodes = (
"954 979 LINE SMOOTH",
"1028 1050 OFFCURVE",
"1079 1078 OFFCURVE",
"1149 1103 CURVE",
"1155 1111 LINE",
"1150 1155 LINE",
"744 1155 LINE",
"740 1112 LINE",
"745 1105 LINE",
"880 1080 OFFCURVE",
"878 1048 OFFCURVE",
"801 972 CURVE SMOOTH",
"398 577 LINE",
"398 442 LINE"
);
},
{
closed = 1;
nodes = (
"409 0 LINE",
"409 1155 LINE",
"249 1155 LINE",
"249 0 LINE"
);
},
{
closed = 1;
nodes = (
"1174 0 LINE",
"1178 49 LINE",
"1173 56 LINE",
"1113 71 OFFCURVE",
"1033 116 OFFCURVE",
"977 196 CURVE SMOOTH",
"624 703 LINE",
"501 590 LINE",
"799 156 LINE SMOOTH",
"844 90 OFFCURVE",
"835 72 OFFCURVE",
"733 51 CURVE",
"728 44 LINE",
"733 0 LINE"
);
}
);
width = 1188;
}
);
leftMetricsKey = H;
unicode = 004B;
},
{
glyphname = L;
lastChange = "2020-03-07 17:01:54 +0000";
layers = (
{
hints = (
{
origin = "{0, 9}";
scale = "{0.96, 0.96}";
type = Corner;
name = _corner.CapRightSerif;
},
{
origin = "{0, 10}";
scale = "{0.96, 0.96}";
type = Corner;
name = _corner.CapLeftSerif;
},
{
origin = "{0, 8}";
scale = "{0.96, 0.96}";
type = Corner;
name = _corner.CapLeftSerif;
}
);
layerId = "6B6AD122-EF8D-49FE-8C69-4BDE8C56BDD8";
paths = (
{
closed = 1;
nodes = (
"892 -2 LINE",
"946 299 LINE",
"874 344 LINE",
"861 344 LINE",
"758 240 OFFCURVE",
"645 140 OFFCURVE",
"481 140 CURVE SMOOTH",
"403 140 LINE",
"403 1155 LINE",
"161 1155 LINE",
"161 -2 LINE"
);
}
);
width = 996;
},
{
hints = (
{
origin = "{0, 8}";
scale = "{0.74227, 0.74227}";
type = Corner;
name = _corner.CapLeftSerif;
},
{
origin = "{0, 9}";
scale = "{0.74227, 0.74227}";
type = Corner;
name = _corner.CapRightSerif;
},
{
origin = "{0, 10}";
scale = "{0.74227, 0.74227}";
type = Corner;
name = _corner.CapLeftSerif;
}
);
layerId = "34301EF7-A2BE-469F-9697-D6100B11FDFE";
paths = (
{
closed = 1;
nodes = (
"927 0 LINE",
"1013 411 LINE",
"981 422 LINE",
"973 419 LINE",
"885 188 OFFCURVE",
"820 64 OFFCURVE",
"677 64 CURVE SMOOTH",
"345 64 LINE",
"345 1155 LINE",
"225 1155 LINE",
"225 0 LINE"
);
}
);
width = 1053;
},
{
hints = (
{
origin = "{0, 10}";
type = Corner;
name = _corner.CapLeftSerif;
},
{
origin = "{0, 8}";
type = Corner;
name = _corner.CapLeftSerif;
},
{
origin = "{0, 9}";
type = Corner;
name = _corner.CapRightSerif;
options = 1;
}
);
layerId = "CFF67ECA-3B2D-433B-B605-F38590C8F106";
paths = (
{
closed = 1;
nodes = (
"661 0 LINE",
"788 361 LINE",
"739 372 LINE",
"730 374 LINE",
"612 168 OFFCURVE",
"506 106 OFFCURVE",
"400 106 CURVE SMOOTH",
"193 106 LINE",
"416 1155 LINE",
"266 1155 LINE",
"21 0 LINE"
);
}
);
width = 840;
}
);
leftMetricsKey = H;
unicode = 004C;
},
{
glyphname = M;
lastChange = "2020-02-19 12:03:46 +0000";
layers = (
{
hints = (
{
origin = "{0, 5}";
type = Corner;
name = _corner.CapLeftSerif;
},
{
origin = "{0, 12}";
type = Corner;
name = _corner.CapLeftSerif;
},
{
origin = "{0, 6}";
type = Corner;
name = _corner.CapRightSerif;
},
{
origin = "{0, 0}";
type = Corner;
name = _corner.CapRightSerif;
},
{
origin = "{0, 11}";
type = Corner;
name = _corner.CapRightSerif;
},
{
origin = "{0, 7}";
type = Corner;
name = _corner.CapLeftSerif;
}
);
layerId = "6B6AD122-EF8D-49FE-8C69-4BDE8C56BDD8";
paths = (
{
closed = 1;
nodes = (
"315 0 LINE",
"315 793 LINE",
"617 0 LINE",
"798 0 LINE",
"1074 833 LINE",
"1074 0 LINE",
"1315 0 LINE",
"1315 1155 LINE",
"1033 1155 LINE",
"752 304 LINE",
"441 1155 LINE",
"163 1155 LINE",
"163 0 LINE"
);
}
);
width = 1478;
},
{
hints = (
{
origin = "{0, 0}";
scale = "{0.74227, 0.74227}";
type = Corner;
name = _corner.CapRightSerif;
},
{
origin = "{0, 11}";
scale = "{0.74227, 0.74227}";
type = Corner;
name = _corner.CapRightSerif;
},
{
origin = "{0, 12}";
scale = "{0.74227, 0.74227}";
type = Corner;
name = _corner.CapLeftSerif;
},
{
origin = "{0, 6}";
scale = "{0.74227, 0.74227}";
type = Corner;
name = _corner.CapRightSerif;
},
{
origin = "{0, 7}";
scale = "{0.74227, 0.74227}";
type = Corner;
name = _corner.CapLeftSerif;
},
{
origin = "{0, 5}";
scale = "{0.74227, 0.74227}";
type = Corner;
name = _corner.CapLeftSerif;
}
);
layerId = "34301EF7-A2BE-469F-9697-D6100B11FDFE";
paths = (
{
closed = 1;
nodes = (
"296 0 LINE",
"296 996 LINE",
"730 0 LINE",
"796 0 LINE",
"1208 979 LINE",
"1208 0 LINE",
"1328 0 LINE",
"1328 1155 LINE",
"1208 1155 LINE",
"800 164 LINE",
"374 1155 LINE",
"225 1155 LINE",
"225 0 LINE"
);
}
);
width = 1553;
},
{
hints = (
{
origin = "{0, 3}";
type = Corner;
name = _corner.CapRightSerif;
},
{
origin = "{0, 8}";
type = Corner;
name = _corner.CapRightSerif;
},
{
origin = "{0, 10}";
type = Corner;
name = _corner.CapRightSerif;
},
{
origin = "{0, 4}";
type = Corner;
name = _corner.CapLeftSerif;
},
{
origin = "{0, 9}";
type = Corner;
name = _corner.CapLeftSerif;
},
{
origin = "{0, 2}";
type = Corner;
name = _corner.CapLeftSerif;
},
{
origin = "{0, 2}";
type = Corner;
name = _corner.CapLeftSerif;
},
{
origin = "{0, 3}";
type = Corner;
name = _corner.CapRightSerif;
},
{
origin = "{0, 4}";
type = Corner;
name = _corner.CapLeftSerif;
},
{
origin = "{0, 8}";
type = Corner;
name = _corner.CapRightSerif;
},
{
origin = "{0, 9}";
type = Corner;
name = _corner.CapLeftSerif;
},
{
origin = "{0, 10}";
type = Corner;
name = _corner.CapRightSerif;
}
);
layerId = "CFF67ECA-3B2D-433B-B605-F38590C8F106";
paths = (
{
closed = 1;
nodes = (
"1186 938 LINE",
"1175 778 LINE",
"1175 0 LINE",
"1333 0 LINE",
"1333 1155 LINE",
"1146 1155 LINE",
"810 228 LINE",
"445 1155 LINE",
"249 1155 LINE",
"249 0 LINE",
"363 0 LINE",
"363 920 LINE",
"371 920 LINE",
"405 793 LINE",
"726 0 LINE",
"840 0 LINE",
"1179 938 LINE"
);
}
);
width = 1582;
}
);
leftMetricsKey = H;
rightMetricsKey = H;
unicode = 004D;
},
{
glyphname = N;
lastChange = "2020-03-07 17:01:56 +0000";
layers = (
{
hints = (
{
origin = "{0, 0}";
type = Corner;
name = _corner.CapRightSerif;
},
{
origin = "{0, 8}";
type = Corner;
name = _corner.CapRightSerif;
},
{
origin = "{0, 9}";
type = Corner;
name = _corner.CapLeftSerif;
},
{
origin = "{0, 5}";
type = Corner;
name = _corner.CapRightSerif;
},
{
origin = "{0, 4}";
type = Corner;
name = _corner.CapLeftSerif;
}
);
layerId = "6B6AD122-EF8D-49FE-8C69-4BDE8C56BDD8";
paths = (
{
closed = 1;
nodes = (
"315 0 LINE",
"315 855 LINE",
"886 0 LINE",
"1049 0 LINE",
"1049 1155 LINE",
"897 1155 LINE",
"897 427 LINE",
"424 1155 LINE",
"163 1155 LINE",
"163 0 LINE"
);
}
);
width = 1170;
},
{
hints = (
{
origin = "{0, 0}";
scale = "{0.74227, 0.74227}";
type = Corner;
name = _corner.CapRightSerif;
},
{
origin = "{0, 8}";
scale = "{0.74227, 0.74227}";
type = Corner;
name = _corner.CapRightSerif;
},
{
origin = "{0, 9}";
scale = "{0.74227, 0.74227}";
type = Corner;
name = _corner.CapLeftSerif;
},
{
origin = "{0, 5}";
scale = "{0.74227, 0.74227}";
type = Corner;
name = _corner.CapRightSerif;
},
{
origin = "{0, 4}";
scale = "{0.74227, 0.74227}";
type = Corner;
name = _corner.CapLeftSerif;
}
);
layerId = "34301EF7-A2BE-469F-9697-D6100B11FDFE";
paths = (
{
closed = 1;
nodes = (
"296 0 LINE",
"296 972 LINE",
"1031 0 LINE",
"1072 0 LINE",
"1072 1155 LINE",
"1001 1155 LINE",
"1001 239 LINE",
"313 1155 LINE",
"225 1155 LINE",
"225 0 LINE"
);
}
);
width = 1140;
},
{
hints = (
{
origin = "{0, 11}";
type = Corner;
name = _corner.CapLeftSerif;
},
{
origin = "{0, 4}";
type = Corner;
name = _corner.CapLeftSerif;
},
{
origin = "{0, 12}";
type = Corner;
name = _corner.CapRightSerif;
},
{
origin = "{0, 3}";
type = Corner;
name = _corner.CapRightSerif;
},
{
origin = "{0, 5}";
type = Corner;
name = _corner.CapRightSerif;
}
);
layerId = "CFF67ECA-3B2D-433B-B605-F38590C8F106";
paths = (
{
closed = 1;
nodes = (
"997 293 LINE",
"960 374 LINE",
"410 1155 LINE",
"249 1155 LINE",
"249 0 LINE",
"363 0 LINE",
"363 936 LINE",
"370 936 LINE",
"411 851 LINE",
"1025 0 LINE",
"1118 0 LINE",
"1118 1155 LINE",
"1004 1155 LINE",
"1004 293 LINE"
);
}
);
width = 1225;
}
);
leftMetricsKey = H;
rightMetricsKey = H;
unicode = 004E;
},
{
glyphname = O;
lastChange = "2020-02-13 14:30:14 +0000";
layers = (
{
layerId = "6B6AD122-EF8D-49FE-8C69-4BDE8C56BDD8";
paths = (
{
closed = 1;
nodes = (
"913 -33 OFFCURVE",
"1138 197 OFFCURVE",
"1138 575 CURVE SMOOTH",
"1138 941 OFFCURVE",
"913 1183 OFFCURVE",
"610 1183 CURVE SMOOTH",
"308 1183 OFFCURVE",
"80 941 OFFCURVE",
"80 575 CURVE SMOOTH",
"80 197 OFFCURVE",
"308 -33 OFFCURVE",
"610 -33 CURVE SMOOTH"
);
},
{
closed = 1;
nodes = (
"450 114 OFFCURVE",
"343 403 OFFCURVE",
"343 641 CURVE SMOOTH",
"343 873 OFFCURVE",
"438 1037 OFFCURVE",
"579 1037 CURVE SMOOTH",
"769 1037 OFFCURVE",
"875 747 OFFCURVE",
"875 507 CURVE SMOOTH",
"875 276 OFFCURVE",
"781 114 OFFCURVE",
"640 114 CURVE SMOOTH"
);
}
);
width = 1218;
},
{
layerId = "34301EF7-A2BE-469F-9697-D6100B11FDFE";
paths = (
{
closed = 1;
nodes = (
"883 -30 OFFCURVE",
"1114 212 OFFCURVE",
"1114 578 CURVE SMOOTH",
"1114 933 OFFCURVE",
"883 1185 OFFCURVE",
"598 1185 CURVE SMOOTH",
"313 1185 OFFCURVE",
"80 933 OFFCURVE",
"80 578 CURVE SMOOTH",
"80 212 OFFCURVE",
"313 -30 OFFCURVE",
"598 -30 CURVE SMOOTH"
);
},
{
closed = 1;
nodes = (
"388 33 OFFCURVE",
"218 249 OFFCURVE",
"218 578 CURVE SMOOTH",
"218 916 OFFCURVE",
"388 1122 OFFCURVE",
"598 1122 CURVE SMOOTH",
"807 1122 OFFCURVE",
"976 916 OFFCURVE",
"976 578 CURVE SMOOTH",
"976 249 OFFCURVE",
"807 33 OFFCURVE",
"598 33 CURVE SMOOTH"
);
}
);
width = 1194;
},
{
layerId = "CFF67ECA-3B2D-433B-B605-F38590C8F106";
paths = (
{
closed = 1;
nodes = (
"931 -33 OFFCURVE",
"1156 219 OFFCURVE",
"1156 575 CURVE SMOOTH",
"1156 931 OFFCURVE",
"931 1183 OFFCURVE",
"628 1183 CURVE SMOOTH",
"326 1183 OFFCURVE",
"98 931 OFFCURVE",
"98 575 CURVE SMOOTH",
"98 219 OFFCURVE",
"326 -33 OFFCURVE",
"628 -33 CURVE SMOOTH"
);
},
{
closed = 1;
nodes = (
"407 73 OFFCURVE",
"269 337 OFFCURVE",
"269 609 CURVE SMOOTH",
"269 883 OFFCURVE",
"413 1077 OFFCURVE",
"613 1077 CURVE SMOOTH",
"848 1077 OFFCURVE",
"985 813 OFFCURVE",
"985 541 CURVE SMOOTH",
"985 267 OFFCURVE",
"842 73 OFFCURVE",
"643 73 CURVE SMOOTH"
);
}
);
width = 1254;
}
);
note = "Remeber to Make out side circle round and tilt inner";
unicode = 004F;
},
{
glyphname = P;
lastChange = "2020-02-13 14:32:41 +0000";
layers = (
{
hints = (
{
origin = "{0, 0}";
scale = "{1.35, 1}";
type = Corner;
name = _corner.CapRightSerif;
},
{
origin = "{0, 11}";
scale = "{0.96, 1}";
type = Corner;
name = _corner.CapRightSerif;
},
{
origin = "{0, 12}";
scale = "{0.96, 1}";
type = Corner;
name = _corner.CapLeftSerif;
}
);
layerId = "6B6AD122-EF8D-49FE-8C69-4BDE8C56BDD8";
paths = (
{
closed = 1;
nodes = (
"403 0 LINE",
"403 411 LINE",
"453 399 OFFCURVE",
"503 395 OFFCURVE",
"546 395 CURVE SMOOTH",
"778 395 OFFCURVE",
"963 545 OFFCURVE",
"963 775 CURVE SMOOTH",
"963 941 OFFCURVE",
"862 1155 OFFCURVE",
"572 1155 CURVE SMOOTH",
"161 1155 LINE",
"161 0 LINE"
);
},
{
closed = 1;
nodes = (
"503 519 OFFCURVE",
"462 532 OFFCURVE",
"403 548 CURVE",
"403 1013 LINE",
"477 1013 LINE SMOOTH",
"638 1013 OFFCURVE",
"717 903 OFFCURVE",
"717 746 CURVE SMOOTH",
"717 634 OFFCURVE",
"676 519 OFFCURVE",
"550 519 CURVE SMOOTH"
);
}
);
width = 1038;
},
{
hints = (
{
origin = "{0, 0}";
scale = "{0.81649, 0.74227}";
type = Corner;
name = _corner.CapRightSerif;
},
{
origin = "{0, 11}";
scale = "{0.74227, 0.74227}";
type = Corner;
name = _corner.CapRightSerif;
},
{
origin = "{0, 12}";
scale = "{0.74227, 0.74227}";
type = Corner;
name = _corner.CapLeftSerif;
}
);
layerId = "34301EF7-A2BE-469F-9697-D6100B11FDFE";
paths = (
{
closed = 1;
nodes = (
"345 0 LINE",
"345 448 LINE",
"411 431 OFFCURVE",
"475 426 OFFCURVE",
"520 426 CURVE SMOOTH",
"797 426 OFFCURVE",
"921 616 OFFCURVE",
"921 798 CURVE SMOOTH",
"921 974 OFFCURVE",
"807 1155 OFFCURVE",
"535 1155 CURVE SMOOTH",
"225 1155 LINE",
"225 0 LINE"
);
},
{
closed = 1;
nodes = (
"486 486 OFFCURVE",
"414 498 OFFCURVE",
"345 523 CURVE",
"345 1095 LINE",
"504 1095 LINE SMOOTH",
"751 1095 OFFCURVE",
"793 918 OFFCURVE",
"793 789 CURVE SMOOTH",
"793 646 OFFCURVE",
"740 486 OFFCURVE",
"541 486 CURVE SMOOTH"
);
}
);
width = 986;
},
{
hints = (
{
origin = "{0, 11}";
type = Corner;
name = _corner.CapRightSerif;
},
{
origin = "{0, 0}";
type = Corner;
name = _corner.CapRightSerif;
},
{
origin = "{0, 12}";
type = Corner;
name = _corner.CapLeftSerif;
}
);
layerId = "CFF67ECA-3B2D-433B-B605-F38590C8F106";
paths = (
{
closed = 1;
nodes = (
"409 0 LINE",
"409 433 LINE",
"470 419 OFFCURVE",
"525 414 OFFCURVE",
"569 414 CURVE SMOOTH",
"816 414 OFFCURVE",
"969 588 OFFCURVE",
"969 791 CURVE SMOOTH",
"969 961 OFFCURVE",
"866 1155 OFFCURVE",
"610 1155 CURVE SMOOTH",
"249 1155 LINE",
"249 0 LINE"
);
},
{
closed = 1;
nodes = (
"542 514 OFFCURVE",
"476 527 OFFCURVE",
"409 548 CURVE",
"409 1050 LINE",
"511 1050 LINE SMOOTH",
"732 1050 OFFCURVE",
"805 922 OFFCURVE",
"805 776 CURVE SMOOTH",
"805 651 OFFCURVE",
"751 514 OFFCURVE",
"593 514 CURVE SMOOTH"
);
}
);
width = 1029;
}
);
leftMetricsKey = H;
unicode = 0050;
},
{
glyphname = Q;
lastChange = "2020-02-13 14:33:42 +0000";
layers = (
{
components = (
{
name = O;
}
);
layerId = "6B6AD122-EF8D-49FE-8C69-4BDE8C56BDD8";
paths = (
{
closed = 1;
nodes = (
"1245 -158 LINE",
"1243 -93 LINE",
"1217 -90 OFFCURVE",
"1191 -87 OFFCURVE",
"1167 -82 CURVE SMOOTH",
"1039 -57 OFFCURVE",
"937 0 OFFCURVE",
"895 118 CURVE",
"660 8 LINE",
"779 -207 OFFCURVE",
"960 -256 OFFCURVE",
"1048 -256 CURVE"
);
}
);
width = 1198;
},
{
components = (
{
name = O;
}
);
layerId = "34301EF7-A2BE-469F-9697-D6100B11FDFE";
paths = (
{
closed = 1;
nodes = (
"1316 -102 LINE",
"1299 -76 LINE",
"1261 -90 OFFCURVE",
"1228 -95 OFFCURVE",
"1177 -95 CURVE SMOOTH",
"1040 -95 OFFCURVE",
"959 -27 OFFCURVE",
"874 81 CURVE",
"788 51 LINE",
"900 -151 OFFCURVE",
"1041 -210 OFFCURVE",
"1189 -210 CURVE"
);
}
);
width = 1196;
},
{
components = (
{
name = O;
}
);
layerId = "CFF67ECA-3B2D-433B-B605-F38590C8F106";
paths = (
{
closed = 1;
nodes = (
"1245 -188 LINE",
"1243 -127 LINE",
"1220 -127 OFFCURVE",
"1198 -126 OFFCURVE",
"1176 -124 CURVE SMOOTH",
"1044 -113 OFFCURVE",
"938 -63 OFFCURVE",
"895 58 CURVE",
"710 -2 LINE",
"839 -217 OFFCURVE",
"960 -256 OFFCURVE",
"1098 -256 CURVE"
);
}
);
width = 1225;
}
);
leftMetricsKey = O;
unicode = 0051;
},
{
glyphname = R;
lastChange = "2020-02-19 12:11:24 +0000";
layers = (
{
hints = (
{
origin = "{0, 0}";
scale = "{1.152, 1}";
type = Corner;
name = _corner.CapRightSerif;
},
{
origin = "{0, 24}";
type = Corner;
name = _corner.CapRightSerif;
},
{
origin = "{0, 25}";
type = Corner;
name = _corner.CapLeftSerif;
}
);
layerId = "6B6AD122-EF8D-49FE-8C69-4BDE8C56BDD8";
paths = (
{
closed = 1;
nodes = (
"405 0 LINE",
"405 464 LINE",
"450 463 OFFCURVE",
"481 461 OFFCURVE",
"510 461 CURVE SMOOTH",
"598 461 OFFCURVE",
"632 400 OFFCURVE",
"651 343 CURVE SMOOTH",
"763 0 LINE",
"1063 0 LINE",
"1074 56 LINE",
"1072 64 LINE",
"1008 100 LINE",
"901 349 LINE SMOOTH",
"864 435 OFFCURVE",
"809 479 OFFCURVE",
"744 501 CURVE",
"744 508 LINE",
"894 572 OFFCURVE",
"964 694 OFFCURVE",
"964 832 CURVE SMOOTH",
"964 990 OFFCURVE",
"874 1155 OFFCURVE",
"563 1155 CURVE SMOOTH",
"163 1155 LINE",
"163 0 LINE"
);
},
{
closed = 1;
nodes = (
"498 593 OFFCURVE",
"459 593 OFFCURVE",
"405 598 CURVE",
"405 1012 LINE",
"469 1012 LINE SMOOTH",
"649 1012 OFFCURVE",
"723 936 OFFCURVE",
"723 810 CURVE SMOOTH",
"723 700 OFFCURVE",
"668 593 OFFCURVE",
"533 593 CURVE SMOOTH"
);
}
);
width = 1122;
},
{
hints = (
{
origin = "{0, 0}";
scale = "{0.81649, 0.74227}";
type = Corner;
name = _corner.CapRightSerif;
},
{
origin = "{0, 24}";
scale = "{0.74227, 0.74227}";
type = Corner;
name = _corner.CapRightSerif;
},
{
origin = "{0, 25}";
scale = "{0.74227, 0.74227}";
type = Corner;
name = _corner.CapLeftSerif;
}
);
layerId = "34301EF7-A2BE-469F-9697-D6100B11FDFE";
paths = (
{
closed = 1;
nodes = (
"344 0 LINE",
"344 562 LINE",
"395 553 OFFCURVE",
"441 551 OFFCURVE",
"476 551 CURVE SMOOTH",
"570 551 OFFCURVE",
"644 504 OFFCURVE",
"685 399 CURVE SMOOTH",
"842 0 LINE",
"1040 0 LINE",
"1049 42 LINE",
"1046 47 LINE",
"946 75 LINE",
"813 402 LINE SMOOTH",
"762 528 OFFCURVE",
"688 549 OFFCURVE",
"608 567 CURVE",
"608 570 LINE",
"753 612 OFFCURVE",
"846 725 OFFCURVE",
"846 858 CURVE SMOOTH",
"846 1015 OFFCURVE",
"713 1155 OFFCURVE",
"518 1155 CURVE SMOOTH",
"225 1155 LINE",
"225 0 LINE"
);
},
{
closed = 1;
nodes = (
"443 607 OFFCURVE",
"395 615 OFFCURVE",
"344 630 CURVE",
"344 1095 LINE",
"497 1095 LINE SMOOTH",
"656 1095 OFFCURVE",
"717 984 OFFCURVE",
"717 852 CURVE SMOOTH",
"717 744 OFFCURVE",
"675 601 OFFCURVE",
"494 606 CURVE SMOOTH"
);
}
);
width = 1101;
},
{
hints = (
{
origin = "{0, 0}";
type = Corner;
name = _corner.CapRightSerif;
},
{
origin = "{0, 24}";
type = Corner;
name = _corner.CapRightSerif;
options = 2;
},
{
origin = "{0, 25}";
type = Corner;
name = _corner.CapLeftSerif;
}
);
layerId = "CFF67ECA-3B2D-433B-B605-F38590C8F106";
paths = (
{
closed = 1;
nodes = (
"409 0 LINE",
"409 509 LINE",
"467 505 OFFCURVE",
"525 503 OFFCURVE",
"592 503 CURVE SMOOTH",
"675 503 OFFCURVE",
"702 461 OFFCURVE",
"725 398 CURVE SMOOTH",
"872 0 LINE",
"1119 0 LINE",
"1127 42 LINE",
"1123 52 LINE",
"1020 87 LINE",
"897 401 LINE SMOOTH",
"859 500 OFFCURVE",
"807 532 OFFCURVE",
"737 541 CURVE",
"737 546 LINE",
"864 595 OFFCURVE",
"975 712 OFFCURVE",
"975 862 CURVE SMOOTH",
"975 996 OFFCURVE",
"885 1155 OFFCURVE",
"628 1155 CURVE SMOOTH",
"249 1155 LINE",
"249 0 LINE"
);
},
{
closed = 1;
nodes = (
"526 605 OFFCURVE",
"467 605 OFFCURVE",
"409 612 CURVE",
"409 1047 LINE",
"511 1047 LINE SMOOTH",
"752 1047 OFFCURVE",
"809 940 OFFCURVE",
"809 834 CURVE SMOOTH",
"809 710 OFFCURVE",
"731 605 OFFCURVE",
"584 605 CURVE SMOOTH"
);
}
);
width = 1176;
}
);
leftMetricsKey = H;
unicode = 0052;
},
{
glyphname = S;
lastChange = "2020-02-19 12:12:36 +0000";
layers = (
{
layerId = "6B6AD122-EF8D-49FE-8C69-4BDE8C56BDD8";
paths = (
{
closed = 1;
nodes = (
"701 -30 OFFCURVE",
"871 92 OFFCURVE",
"871 315 CURVE SMOOTH",
"871 716 OFFCURVE",
"303 648 OFFCURVE",
"303 886 CURVE SMOOTH",
"303 963 OFFCURVE",
"362 1026 OFFCURVE",
"456 1026 CURVE SMOOTH",
"595 1026 OFFCURVE",
"687 892 OFFCURVE",
"713 840 CURVE",
"799 857 LINE",
"799 1143 LINE",
"746 1164 OFFCURVE",
"651 1185 OFFCURVE",
"551 1185 CURVE SMOOTH",
"287 1185 OFFCURVE",
"90 1064 OFFCURVE",
"90 819 CURVE SMOOTH",
"90 428 OFFCURVE",
"626 530 OFFCURVE",
"637 251 CURVE SMOOTH",
"641 153 OFFCURVE",
"573 117 OFFCURVE",
"500 117 CURVE SMOOTH",
"355 117 OFFCURVE",
"270 255 OFFCURVE",
"193 366 CURVE",
"99 347 LINE",
"129 19 LINE",
"181 3 OFFCURVE",
"298 -30 OFFCURVE",
"432 -30 CURVE SMOOTH"
);
}
);
width = 951;
},
{
layerId = "34301EF7-A2BE-469F-9697-D6100B11FDFE";
paths = (
{
closed = 1;
nodes = (
"603 -41 OFFCURVE",
"746 91 OFFCURVE",
"746 277 CURVE SMOOTH",
"746 660 OFFCURVE",
"155 568 OFFCURVE",
"155 897 CURVE SMOOTH",
"155 1030 OFFCURVE",
"248 1117 OFFCURVE",
"390 1117 CURVE SMOOTH",
"514 1117 OFFCURVE",
"614 1045 OFFCURVE",
"643 751 CURVE",
"686 755 LINE",
"680 1089 LINE",
"591 1155 OFFCURVE",
"496 1175 OFFCURVE",
"421 1175 CURVE SMOOTH",
"231 1175 OFFCURVE",
"53 1053 OFFCURVE",
"53 848 CURVE SMOOTH",
"53 467 OFFCURVE",
"642 555 OFFCURVE",
"642 222 CURVE SMOOTH",
"642 60 OFFCURVE",
"500 17 OFFCURVE",
"392 17 CURVE SMOOTH",
"253 17 OFFCURVE",
"154 89 OFFCURVE",
"82 382 CURVE",
"40 378 LINE",
"88 29 LINE",
"178 -19 OFFCURVE",
"271 -41 OFFCURVE",
"366 -41 CURVE SMOOTH"
);
}
);
width = 786;
},
{
layerId = "CFF67ECA-3B2D-433B-B605-F38590C8F106";
paths = (
{
closed = 1;
nodes = (
"682 -37 OFFCURVE",
"834 107 OFFCURVE",
"834 302 CURVE SMOOTH",
"834 697 OFFCURVE",
"248 588 OFFCURVE",
"248 883 CURVE SMOOTH",
"248 992 OFFCURVE",
"332 1070 OFFCURVE",
"465 1070 CURVE SMOOTH",
"595 1070 OFFCURVE",
"689 995 OFFCURVE",
"718 797 CURVE",
"780 805 LINE",
"780 1114 LINE",
"700 1160 OFFCURVE",
"598 1179 OFFCURVE",
"515 1179 CURVE SMOOTH",
"292 1179 OFFCURVE",
"107 1051 OFFCURVE",
"107 835 CURVE SMOOTH",
"107 446 OFFCURVE",
"676 556 OFFCURVE",
"676 253 CURVE SMOOTH",
"676 115 OFFCURVE",
"554 72 OFFCURVE",
"451 72 CURVE SMOOTH",
"313 72 OFFCURVE",
"210 148 OFFCURVE",
"141 356 CURVE",
"80 348 LINE",
"123 15 LINE",
"218 -17 OFFCURVE",
"320 -37 OFFCURVE",
"418 -37 CURVE SMOOTH"
);
}
);
width = 914;
}
);
unicode = 0053;
},
{
glyphname = T;
lastChange = "2020-02-28 19:51:14 +0000";
layers = (
{
hints = (
{
origin = "{0, 0}";
scale = "{0.96, 0.96}";
type = Corner;
name = _corner.CapRightSerif;
},
{
origin = "{0, 3}";
scale = "{0.96, 0.96}";
type = Corner;
name = _corner.CapLeftSerif;
}
);
layerId = "6B6AD122-EF8D-49FE-8C69-4BDE8C56BDD8";
paths = (
{
closed = 1;
nodes = (
"618 0 LINE",
"618 1155 LINE",
"377 1155 LINE",
"377 0 LINE"
);
},
{
closed = 1;
nodes = (
"109 844 LINE",
"211 976 OFFCURVE",
"272 1013 OFFCURVE",
"357 1013 CURVE SMOOTH",
"638 1013 LINE SMOOTH",
"723 1013 OFFCURVE",
"784 976 OFFCURVE",
"886 844 CURVE",
"893 840 LINE",
"965 847 LINE",
"965 1148 LINE",
"931 1169 LINE",
"884 1164 OFFCURVE",
"836 1160 OFFCURVE",
"789 1155 CURVE",
"206 1155 LINE",
"159 1160 OFFCURVE",
"111 1164 OFFCURVE",
"64 1169 CURVE",
"30 1148 LINE",
"30 847 LINE",
"102 840 LINE"
);
}
);
width = 995;
},
{
hints = (
{
origin = "{0, 0}";
scale = "{0.74227, 0.74227}";
type = Corner;
name = _corner.CapRightSerif;
},
{
origin = "{0, 3}";
scale = "{0.74227, 0.74227}";
type = Corner;
name = _corner.CapLeftSerif;
}
);
layerId = "34301EF7-A2BE-469F-9697-D6100B11FDFE";
paths = (
{
closed = 1;
nodes = (
"567 0 LINE",
"567 1155 LINE",
"447 1155 LINE",
"447 0 LINE"
);
},
{
closed = 1;
nodes = (
"39 772 LINE",
"81 1024 OFFCURVE",
"132 1091 OFFCURVE",
"217 1091 CURVE SMOOTH",
"798 1091 LINE SMOOTH",
"883 1091 OFFCURVE",
"934 1024 OFFCURVE",
"976 772 CURVE",
"983 768 LINE",
"1015 775 LINE",
"1015 1178 LINE",
"1001 1189 LINE",
"968 1182 OFFCURVE",
"908 1155 OFFCURVE",
"839 1155 CURVE SMOOTH",
"176 1155 LINE SMOOTH",
"107 1155 OFFCURVE",
"47 1182 OFFCURVE",
"14 1189 CURVE",
"0 1178 LINE",
"0 775 LINE",
"32 768 LINE"
);
}
);
width = 1015;
},
{
hints = (
{
origin = "{0, 0}";
type = Corner;
name = _corner.CapRightSerif;
options = 1;
},
{
origin = "{0, 3}";
type = Corner;
name = _corner.CapLeftSerif;
}
);
layerId = "CFF67ECA-3B2D-433B-B605-F38590C8F106";
paths = (
{
closed = 1;
nodes = (
"480 10 LINE",
"723 1155 LINE",
"573 1155 LINE",
"330 10 LINE"
);
},
{
closed = 1;
nodes = (
"172 760 LINE",
"273 992 OFFCURVE",
"340 1049 OFFCURVE",
"405 1049 CURVE SMOOTH",
"866 1049 LINE SMOOTH",
"931 1049 OFFCURVE",
"968 1004 OFFCURVE",
"971 772 CURVE",
"977 762 LINE",
"1028 769 LINE",
"1083 1178 LINE",
"1067 1190 LINE",
"1035 1183 OFFCURVE",
"918 1155 OFFCURVE",
"899 1155 CURVE SMOOTH",
"396 1155 LINE SMOOTH",
"377 1155 OFFCURVE",
"273 1181 OFFCURVE",
"241 1188 CURVE",
"228 1178 LINE",
"113 769 LINE",
"164 762 LINE"
);
}
);
width = 985;
}
);
unicode = 0054;
},
{
glyphname = U;
lastChange = "2020-03-07 17:01:56 +0000";
layers = (
{
hints = (
{
origin = "{0, 10}";
type = Corner;
name = _corner.CapRightSerif;
},
{
origin = "{0, 9}";
type = Corner;
name = _corner.CapLeftSerif;
},
{
origin = "{0, 1}";
type = Corner;
name = _corner.CapRightSerif;
},
{
origin = "{0, 0}";
type = Corner;
name = _corner.CapLeftSerif;
}
);
layerId = "6B6AD122-EF8D-49FE-8C69-4BDE8C56BDD8";
paths = (
{
closed = 1;
nodes = (
"406 1157 LINE",
"164 1157 LINE",
"164 371 LINE SMOOTH",
"164 120 OFFCURVE",
"335 -30 OFFCURVE",
"601 -30 CURVE SMOOTH",
"825 -30 OFFCURVE",
"1055 89 OFFCURVE",
"1055 387 CURVE SMOOTH",
"1055 1157 LINE",
"903 1157 LINE",
"903 377 LINE SMOOTH",
"903 217 OFFCURVE",
"794 127 OFFCURVE",
"649 127 CURVE SMOOTH",
"502 127 OFFCURVE",
"406 216 OFFCURVE",
"406 411 CURVE SMOOTH"
);
}
);
width = 1106;
},
{
hints = (
{
origin = "{0, 0}";
scale = "{0.74227, 0.74227}";
type = Corner;
name = _corner.CapLeftSerif;
},
{
origin = "{0, 1}";
scale = "{0.74227, 0.74227}";
type = Corner;
name = _corner.CapRightSerif;
},
{
origin = "{0, 9}";
scale = "{0.74227, 0.74227}";
type = Corner;
name = _corner.CapLeftSerif;
},
{
origin = "{0, 10}";
scale = "{0.74227, 0.74227}";
type = Corner;
name = _corner.CapRightSerif;
}
);
layerId = "34301EF7-A2BE-469F-9697-D6100B11FDFE";
paths = (
{
closed = 1;
nodes = (
"345 1155 LINE",
"225 1155 LINE",
"225 351 LINE SMOOTH",
"225 121 OFFCURVE",
"377 -30 OFFCURVE",
"634 -30 CURVE SMOOTH",
"866 -30 OFFCURVE",
"1067 94 OFFCURVE",
"1067 397 CURVE SMOOTH",
"1067 1155 LINE",
"995 1155 LINE",
"995 389 LINE SMOOTH",
"995 156 OFFCURVE",
"840 47 OFFCURVE",
"659 47 CURVE SMOOTH",
"505 47 OFFCURVE",
"345 126 OFFCURVE",
"345 381 CURVE SMOOTH"
);
}
);
width = 1064;
},
{
hints = (
{
origin = "{0, 1}";
type = Corner;
name = _corner.CapRightSerif;
},
{
origin = "{0, 10}";
type = Corner;
name = _corner.CapRightSerif;
},
{
origin = "{0, 0}";
type = Corner;
name = _corner.CapLeftSerif;
},
{
origin = "{0, 9}";
type = Corner;
name = _corner.CapLeftSerif;
}
);
layerId = "CFF67ECA-3B2D-433B-B605-F38590C8F106";
paths = (
{
closed = 1;
nodes = (
"413 1155 LINE",
"249 1155 LINE",
"249 343 LINE SMOOTH",
"249 113 OFFCURVE",
"404 -38 OFFCURVE",
"675 -38 CURVE SMOOTH",
"914 -38 OFFCURVE",
"1130 80 OFFCURVE",
"1130 377 CURVE SMOOTH",
"1130 1155 LINE",
"1008 1155 LINE",
"1008 371 LINE SMOOTH",
"1008 165 OFFCURVE",
"872 74 OFFCURVE",
"704 74 CURVE SMOOTH",
"556 74 OFFCURVE",
"413 142 OFFCURVE",
"413 373 CURVE SMOOTH"
);
}
);
width = 1169;
}
);
leftMetricsKey = H;
rightMetricsKey = H;
unicode = 0055;
},
{
glyphname = V;
lastChange = "2020-02-19 13:51:54 +0000";
layers = (
{
layerId = "6B6AD122-EF8D-49FE-8C69-4BDE8C56BDD8";
paths = (
{
closed = 1;
nodes = (
"637 0 LINE",
"657 97 LINE",
"393 909 LINE SMOOTH",
"370 980 OFFCURVE",
"363 1042 OFFCURVE",
"423 1100 CURVE",
"423 1111 LINE",
"411 1155 LINE",
"12 1155 LINE",
"0 1111 LINE",
"0 1100 LINE",
"47 1073 OFFCURVE",
"68 1035 OFFCURVE",
"97 957 CURVE SMOOTH",
"448 0 LINE"
);
},
{
closed = 1;
nodes = (
"648 0 LINE",
"936 897 LINE SMOOTH",
"966 989 OFFCURVE",
"1011 1064 OFFCURVE",
"1066 1095 CURVE",
"1066 1106 LINE",
"1053 1155 LINE",
"773 1155 LINE",
"758 1111 LINE",
"758 1100 LINE",
"812 1047 OFFCURVE",
"800 975 OFFCURVE",
"783 921 CURVE SMOOTH",
"497 0 LINE"
);
}
);
width = 1066;
},
{
layerId = "34301EF7-A2BE-469F-9697-D6100B11FDFE";
paths = (
{
closed = 1;
nodes = (
"586 0 LINE",
"616 95 LINE",
"273 986 LINE SMOOTH",
"238 1078 OFFCURVE",
"287 1106 OFFCURVE",
"409 1117 CURVE",
"414 1123 LINE",
"412 1155 LINE",
"3 1155 LINE",
"0 1119 LINE",
"5 1113 LINE",
"37 1107 OFFCURVE",
"96 1093 OFFCURVE",
"139 980 CURVE SMOOTH",
"514 0 LINE"
);
},
{
closed = 1;
nodes = (
"608 0 LINE",
"981 993 LINE SMOOTH",
"1019 1093 OFFCURVE",
"1075 1108 OFFCURVE",
"1118 1114 CURVE",
"1124 1121 LINE",
"1120 1155 LINE",
"762 1155 LINE",
"759 1122 LINE",
"764 1116 LINE",
"902 1104 OFFCURVE",
"940 1091 OFFCURVE",
"901 986 CURVE SMOOTH",
"534 0 LINE"
);
}
);
width = 1128;
},
{
layerId = "CFF67ECA-3B2D-433B-B605-F38590C8F106";
paths = (
{
closed = 1;
nodes = (
"612 0 LINE",
"623 131 LINE",
"308 952 LINE SMOOTH",
"277 1034 OFFCURVE",
"298 1073 OFFCURVE",
"429 1103 CURVE",
"434 1112 LINE",
"429 1155 LINE",
"10 1155 LINE",
"5 1110 LINE",
"10 1101 LINE",
"43 1087 OFFCURVE",
"85 1059 OFFCURVE",
"117 976 CURVE SMOOTH",
"493 0 LINE"
);
},
{
closed = 1;
nodes = (
"650 0 LINE",
"994 980 LINE SMOOTH",
"1021 1058 OFFCURVE",
"1064 1084 OFFCURVE",
"1102 1101 CURVE",
"1106 1107 LINE",
"1101 1155 LINE",
"746 1155 LINE",
"740 1111 LINE",
"745 1104 LINE",
"882 1075 OFFCURVE",
"895 1044 OFFCURVE",
"863 953 CURVE SMOOTH",
"529 0 LINE"
);
}
);
width = 1101;
}
);
unicode = 0056;
},
{
glyphname = W;
lastChange = "2020-03-07 17:01:53 +0000";
layers = (
{
layerId = "6B6AD122-EF8D-49FE-8C69-4BDE8C56BDD8";
paths = (
{
closed = 1;
nodes = (
"637 0 LINE",
"657 97 LINE",
"393 909 LINE SMOOTH",
"370 980 OFFCURVE",
"363 1042 OFFCURVE",
"423 1100 CURVE",
"423 1111 LINE",
"411 1155 LINE",
"12 1155 LINE",
"0 1111 LINE",
"0 1100 LINE",
"47 1073 OFFCURVE",
"68 1035 OFFCURVE",
"97 957 CURVE SMOOTH",
"448 0 LINE"
);
},
{
closed = 1;
nodes = (
"648 0 LINE",
"872 697 LINE",
"770 867 LINE",
"501 0 LINE"
);
},
{
closed = 1;
nodes = (
"1237 0 LINE",
"1257 97 LINE",
"993 909 LINE SMOOTH",
"970 980 OFFCURVE",
"963 1042 OFFCURVE",
"1023 1100 CURVE",
"1023 1111 LINE",
"1011 1155 LINE",
"612 1155 LINE",
"600 1111 LINE",
"600 1100 LINE",
"647 1073 OFFCURVE",
"668 1035 OFFCURVE",
"697 957 CURVE SMOOTH",
"1048 0 LINE"
);
},
{
closed = 1;
nodes = (
"1248 0 LINE",
"1516 897 LINE SMOOTH",
"1544 989 OFFCURVE",
"1591 1069 OFFCURVE",
"1636 1100 CURVE",
"1636 1111 LINE",
"1623 1155 LINE",
"1349 1155 LINE",
"1334 1111 LINE",
"1334 1100 LINE",
"1388 1047 OFFCURVE",
"1375 975 OFFCURVE",
"1359 921 CURVE SMOOTH",
"1093 0 LINE"
);
}
);
width = 1635;
},
{
layerId = "34301EF7-A2BE-469F-9697-D6100B11FDFE";
paths = (
{
closed = 1;
nodes = (
"536 0 LINE",
"566 95 LINE",
"273 986 LINE SMOOTH",
"243 1078 OFFCURVE",
"287 1106 OFFCURVE",
"409 1117 CURVE",
"414 1123 LINE",
"412 1155 LINE",
"3 1155 LINE",
"0 1119 LINE",
"5 1113 LINE",
"37 1107 OFFCURVE",
"101 1093 OFFCURVE",
"139 980 CURVE SMOOTH",
"464 0 LINE"
);
},
{
closed = 1;
nodes = (
"555 0 LINE",
"887 1065 LINE",
"880 1169 LINE",
"841 1169 LINE",
"479 0 LINE"
);
},
{
closed = 1;
nodes = (
"1186 0 LINE",
"1221 95 LINE",
"883 1169 LINE",
"841 1169 LINE",
"806 977 LINE",
"1114 0 LINE"
);
},
{
closed = 1;
nodes = (
"1208 0 LINE",
"1531 993 LINE SMOOTH",
"1564 1093 OFFCURVE",
"1625 1108 OFFCURVE",
"1668 1114 CURVE",
"1674 1121 LINE",
"1670 1155 LINE",
"1312 1155 LINE",
"1309 1122 LINE",
"1314 1116 LINE",
"1452 1104 OFFCURVE",
"1485 1091 OFFCURVE",
"1451 986 CURVE SMOOTH",
"1131 0 LINE"
);
}
);
width = 1678;
},
{
layerId = "CFF67ECA-3B2D-433B-B605-F38590C8F106";
paths = (
{
closed = 1;
nodes = (
"535 0 LINE",
"552 131 LINE",
"308 952 LINE SMOOTH",
"284 1034 OFFCURVE",
"298 1073 OFFCURVE",
"439 1103 CURVE",
"444 1112 LINE",
"439 1155 LINE",
"10 1155 LINE",
"5 1111 LINE",
"10 1102 LINE",
"43 1087 OFFCURVE",
"92 1059 OFFCURVE",
"117 976 CURVE SMOOTH",
"416 0 LINE"
);
},
{
closed = 1;
nodes = (
"573 0 LINE",
"892 1034 LINE",
"872 1174 LINE",
"811 1174 LINE",
"452 0 LINE"
);
},
{
closed = 1;
nodes = (
"1205 0 LINE",
"1216 142 LINE",
"872 1174 LINE",
"811 1174 LINE",
"776 923 LINE",
"1086 0 LINE"
);
},
{
closed = 1;
nodes = (
"1243 0 LINE",
"1497 980 LINE SMOOTH",
"1517 1058 OFFCURVE",
"1567 1084 OFFCURVE",
"1605 1102 CURVE",
"1609 1108 LINE",
"1604 1155 LINE",
"1239 1155 LINE",
"1233 1111 LINE",
"1238 1104 LINE",
"1385 1075 OFFCURVE",
"1389 1044 OFFCURVE",
"1366 953 CURVE SMOOTH",
"1122 0 LINE"
);
}
);
width = 1604;
}
);
leftMetricsKey = V;
rightMetricsKey = V;
unicode = 0057;
},
{
glyphname = X;
lastChange = "2020-02-19 14:03:18 +0000";
layers = (
{
layerId = "6B6AD122-EF8D-49FE-8C69-4BDE8C56BDD8";
paths = (
{
closed = 1;
nodes = (
"1054 0 LINE",
"1066 44 LINE",
"1066 55 LINE",
"1019 82 OFFCURVE",
"978 126 OFFCURVE",
"929 198 CURVE SMOOTH",
"446 909 LINE SMOOTH",
"399 978 OFFCURVE",
"416 1044 OFFCURVE",
"453 1102 CURVE",
"453 1113 LINE",
"434 1155 LINE",
"30 1155 LINE",
"18 1111 LINE",
"18 1100 LINE",
"65 1073 OFFCURVE",
"96 1029 OFFCURVE",
"145 957 CURVE SMOOTH",
"628 246 LINE SMOOTH",
"675 177 OFFCURVE",
"658 111 OFFCURVE",
"618 53 CURVE",
"618 42 LINE",
"638 0 LINE"
);
},
{
closed = 1;
nodes = (
"343 0 LINE",
"361 42 LINE",
"361 53 LINE",
"337 90 OFFCURVE",
"331 155 OFFCURVE",
"371 223 CURVE SMOOTH",
"615 634 LINE",
"508 699 LINE",
"221 258 LINE SMOOTH",
"169 178 OFFCURVE",
"95 91 OFFCURVE",
"30 60 CURVE",
"30 49 LINE",
"43 0 LINE"
);
},
{
closed = 1;
nodes = (
"858 897 LINE SMOOTH",
"910 977 OFFCURVE",
"980 1064 OFFCURVE",
"1042 1095 CURVE",
"1042 1106 LINE",
"1029 1155 LINE",
"729 1155 LINE",
"709 1113 LINE",
"709 1102 LINE",
"734 1029 OFFCURVE",
"714 951 OFFCURVE",
"680 892 CURVE SMOOTH",
"464 521 LINE",
"571 456 LINE"
);
}
);
width = 1076;
},
{
layerId = "CFF67ECA-3B2D-433B-B605-F38590C8F106";
paths = (
{
closed = 1;
nodes = (
"1085 0 LINE",
"1090 44 LINE",
"1085 54 LINE",
"1018 79 OFFCURVE",
"959 115 OFFCURVE",
"919 183 CURVE SMOOTH",
"438 1000 LINE SMOOTH",
"408 1051 OFFCURVE",
"405 1079 OFFCURVE",
"505 1104 CURVE",
"511 1112 LINE",
"503 1155 LINE",
"98 1155 LINE",
"92 1114 LINE",
"97 1104 LINE",
"168 1076 OFFCURVE",
"221 1041 OFFCURVE",
"261 973 CURVE SMOOTH",
"742 155 LINE SMOOTH",
"777 95 OFFCURVE",
"771 74 OFFCURVE",
"671 54 CURVE",
"667 44 LINE",
"675 0 LINE"
);
},
{
closed = 1;
nodes = (
"436 0 LINE",
"442 44 LINE",
"438 54 LINE",
"341 82 OFFCURVE",
"354 94 OFFCURVE",
"387 155 CURVE SMOOTH",
"575 499 LINE",
"516 583 LINE",
"249 165 LINE SMOOTH",
"216 113 OFFCURVE",
"168 79 OFFCURVE",
"86 54 CURVE",
"80 44 LINE",
"86 0 LINE"
);
},
{
closed = 1;
nodes = (
"912 991 LINE SMOOTH",
"948 1047 OFFCURVE",
"1001 1080 OFFCURVE",
"1084 1104 CURVE",
"1088 1114 LINE",
"1084 1155 LINE",
"729 1155 LINE",
"722 1111 LINE",
"728 1104 LINE",
"826 1073 OFFCURVE",
"810 1049 OFFCURVE",
"782 1000 CURVE SMOOTH",
"571 626 LINE",
"666 606 LINE"
);
}
);
width = 1170;
},
{
layerId = "34301EF7-A2BE-469F-9697-D6100B11FDFE";
paths = (
{
closed = 1;
nodes = (
"1004 0 LINE",
"1005 32 LINE",
"999 41 LINE",
"955 50 OFFCURVE",
"905 97 OFFCURVE",
"853 175 CURVE SMOOTH",
"312 986 LINE SMOOTH",
"258 1067 OFFCURVE",
"323 1105 OFFCURVE",
"420 1116 CURVE",
"427 1125 LINE",
"425 1155 LINE",
"24 1155 LINE",
"23 1121 LINE",
"29 1114 LINE",
"67 1104 OFFCURVE",
"112 1065 OFFCURVE",
"169 980 CURVE SMOOTH",
"710 169 LINE SMOOTH",
"764 88 OFFCURVE",
"700 50 OFFCURVE",
"605 39 CURVE",
"595 29 LINE",
"597 0 LINE"
);
},
{
closed = 1;
nodes = (
"372 0 LINE",
"374 32 LINE",
"368 39 LINE",
"257 52 OFFCURVE",
"201 79 OFFCURVE",
"259 169 CURVE SMOOTH",
"500 545 LINE",
"484 641 LINE",
"180 162 LINE SMOOTH",
"134 89 OFFCURVE",
"85 50 OFFCURVE",
"41 41 CURVE",
"36 33 LINE",
"38 0 LINE"
);
},
{
closed = 1;
nodes = (
"837 993 LINE SMOOTH",
"884 1067 OFFCURVE",
"933 1105 OFFCURVE",
"975 1114 CURVE",
"981 1123 LINE",
"979 1155 LINE",
"647 1155 LINE",
"645 1125 LINE",
"652 1116 LINE",
"762 1103 OFFCURVE",
"800 1055 OFFCURVE",
"756 986 CURVE SMOOTH",
"517 608 LINE",
"537 520 LINE"
);
}
);
width = 1022;
}
);
unicode = 0058;
},
{
glyphname = Y;
lastChange = "2020-03-07 17:01:56 +0000";
layers = (
{
hints = (
{
origin = "{0, 0}";
scale = "{0.96, 0.96}";
type = Corner;
name = _corner.CapRightSerif;
},
{
origin = "{0, 28}";
scale = "{0.96, 0.96}";
type = Corner;
name = _corner.CapLeftSerif;
}
);
layerId = "6B6AD122-EF8D-49FE-8C69-4BDE8C56BDD8";
paths = (
{
closed = 1;
nodes = (
"648 0 LINE",
"648 453 LINE",
"870 870 LINE SMOOTH",
"940 1002 OFFCURVE",
"1018 1073 OFFCURVE",
"1053 1098 CURVE",
"1053 1109 LINE",
"1037 1155 LINE",
"733 1155 LINE",
"721 1110 LINE",
"721 1100 LINE",
"755 1071 OFFCURVE",
"752 1008 OFFCURVE",
"718 935 CURVE SMOOTH",
"565 610 LINE",
"383 956 LINE SMOOTH",
"354 1011 OFFCURVE",
"364 1071 OFFCURVE",
"400 1100 CURVE",
"400 1110 LINE",
"388 1155 LINE",
"17 1155 LINE",
"0 1111 LINE",
"0 1100 LINE",
"26 1084 OFFCURVE",
"102 1007 OFFCURVE",
"158 905 CURVE SMOOTH",
"406 455 LINE",
"406 0 LINE"
);
}
);
width = 1052;
},
{
hints = (
{
origin = "{0, 6}";
type = Corner;
name = _corner.CapRightSerif;
},
{
origin = "{0, 5}";
type = Corner;
name = _corner.CapLeftSerif;
}
);
layerId = "CFF67ECA-3B2D-433B-B605-F38590C8F106";
paths = (
{
closed = 1;
nodes = (
"8 1103 LINE",
"39 1088 OFFCURVE",
"70 1067 OFFCURVE",
"107 1000 CURVE SMOOTH",
"405 460 LINE",
"405 0 LINE",
"565 0 LINE",
"565 494 LINE",
"853 995 LINE SMOOTH",
"895 1069 OFFCURVE",
"923 1089 OFFCURVE",
"963 1103 CURVE",
"968 1109 LINE",
"962 1155 LINE",
"626 1155 LINE",
"620 1110 LINE",
"624 1103 LINE",
"755 1080 OFFCURVE",
"758 1048 OFFCURVE",
"724 987 CURVE SMOOTH",
"506 601 LINE",
"306 965 LINE SMOOTH",
"262 1046 OFFCURVE",
"264 1076 OFFCURVE",
"389 1103 CURVE",
"393 1110 LINE",
"387 1155 LINE",
"10 1155 LINE",
"3 1109 LINE"
);
}
);
width = 963;
},
{
hints = (
{
origin = "{0, 0}";
scale = "{0.74227, 0.74227}";
type = Corner;
name = _corner.CapRightSerif;
},
{
origin = "{0, 29}";
scale = "{0.74227, 0.74227}";
type = Corner;
name = _corner.CapLeftSerif;
}
);
layerId = "34301EF7-A2BE-469F-9697-D6100B11FDFE";
paths = (
{
closed = 1;
nodes = (
"533 0 LINE",
"533 464 LINE",
"807 1033 LINE SMOOTH",
"836 1094 OFFCURVE",
"884 1105 OFFCURVE",
"925 1114 CURVE",
"928 1120 LINE",
"924 1155 LINE",
"611 1155 LINE",
"608 1122 LINE",
"611 1117 LINE",
"751 1106 OFFCURVE",
"763 1094 OFFCURVE",
"738 1043 CURVE SMOOTH",
"467 485 LINE",
"530 485 LINE",
"248 1043 LINE SMOOTH",
"223 1093 OFFCURVE",
"242 1109 OFFCURVE",
"368 1117 CURVE",
"371 1122 LINE",
"368 1155 LINE",
"3 1155 LINE",
"-1 1122 LINE",
"4 1116 LINE",
"29 1108 OFFCURVE",
"83 1093 OFFCURVE",
"113 1033 CURVE SMOOTH",
"413 439 LINE",
"413 0 LINE"
);
}
);
width = 933;
}
);
leftMetricsKey = V;
rightMetricsKey = V;
unicode = 0059;
},
{
glyphname = Z;
lastChange = "2020-02-13 14:34:41 +0000";
layers = (
{
layerId = "6B6AD122-EF8D-49FE-8C69-4BDE8C56BDD8";
paths = (
{
closed = 1;
nodes = (
"99 0 LINE",
"900 0 LINE",
"954 321 LINE",
"882 366 LINE",
"869 366 LINE",
"766 262 OFFCURVE",
"663 142 OFFCURVE",
"499 142 CURVE SMOOTH",
"419 142 LINE",
"928 1104 LINE",
"905 1155 LINE",
"109 1155 LINE",
"109 822 LINE",
"198 818 LINE",
"277 930 OFFCURVE",
"381 1013 OFFCURVE",
"532 1013 CURVE SMOOTH",
"607 1013 LINE",
"95 52 LINE"
);
}
);
width = 1044;
},
{
layerId = "34301EF7-A2BE-469F-9697-D6100B11FDFE";
paths = (
{
closed = 1;
nodes = (
"67 0 LINE",
"837 0 LINE",
"906 404 LINE",
"870 416 LINE",
"863 413 LINE",
"779 119 OFFCURVE",
"699 64 OFFCURVE",
"547 64 CURVE SMOOTH",
"237 64 LINE",
"861 1145 LINE",
"857 1155 LINE",
"95 1155 LINE",
"95 759 LINE",
"136 756 LINE",
"173 1047 OFFCURVE",
"234 1093 OFFCURVE",
"382 1093 CURVE SMOOTH",
"686 1093 LINE",
"60 12 LINE"
);
}
);
width = 976;
},
{
layerId = "CFF67ECA-3B2D-433B-B605-F38590C8F106";
paths = (
{
closed = 1;
nodes = (
"103 0 LINE",
"847 0 LINE",
"897 361 LINE",
"847 372 LINE",
"839 368 LINE",
"764 162 OFFCURVE",
"675 106 OFFCURVE",
"569 106 CURVE SMOOTH",
"317 106 LINE",
"887 1118 LINE",
"870 1155 LINE",
"118 1155 LINE",
"118 808 LINE",
"168 805 LINE",
"222 1000 OFFCURVE",
"292 1053 OFFCURVE",
"441 1053 CURVE SMOOTH",
"663 1053 LINE",
"89 38 LINE"
);
}
);
width = 1011;
}
);
unicode = 005A;
},
{
glyphname = a;
lastChange = "2020-03-10 13:43:31 +0000";
layers = (
{
background = {
paths = (
{
closed = 1;
nodes = (
"52 127 OFFCURVE",
"117 -30 OFFCURVE",
"252 -30 CURVE SMOOTH",
"391 -30 OFFCURVE",
"559 136 OFFCURVE",
"614 288 CURVE",
"560 415 LINE",
"696 701 LINE",
"629 796 OFFCURVE",
"534 861 OFFCURVE",
"446 861 CURVE SMOOTH",
"255 861 OFFCURVE",
"52 595 OFFCURVE",
"52 285 CURVE SMOOTH"
);
},
{
closed = 1;
nodes = (
"256 528 OFFCURVE",
"309 703 OFFCURVE",
"404 703 CURVE SMOOTH",
"497 703 OFFCURVE",
"584 542 OFFCURVE",
"558 416 CURVE SMOOTH",
"516 213 OFFCURVE",
"434 153 OFFCURVE",
"371 153 CURVE SMOOTH",
"287 153 OFFCURVE",
"256 259 OFFCURVE",
"256 375 CURVE SMOOTH"
);
},
{
closed = 1;
nodes = (
"853 826 LINE",
"795 861 LINE",
"634 776 LINE",
"498 129 LINE SMOOTH",
"498 129 OFFCURVE",
"498 128 OFFCURVE",
"498 128 CURVE",
"486 66 OFFCURVE",
"570 -30 OFFCURVE",
"625 -30 CURVE SMOOTH",
"727 -30 OFFCURVE",
"844 106 OFFCURVE",
"899 195 CURVE",
"899 209 LINE",
"855 260 LINE",
"841 260 LINE",
"780 205 OFFCURVE",
"759 200 OFFCURVE",
"738 200 CURVE SMOOTH",
"728 200 OFFCURVE",
"723 209 OFFCURVE",
"726 223 CURVE SMOOTH"
);
}
);
};
layerId = "6B6AD122-EF8D-49FE-8C69-4BDE8C56BDD8";
paths = (
{
closed = 1;
nodes = (
"622 418 LINE",
"746 761 LINE",
"659 831 OFFCURVE",
"594 861 OFFCURVE",
"512 861 CURVE SMOOTH",
"265 861 OFFCURVE",
"40 560 OFFCURVE",
"40 270 CURVE SMOOTH",
"40 88 OFFCURVE",
"127 -30 OFFCURVE",
"262 -30 CURVE SMOOTH",
"421 -30 OFFCURVE",
"544 156 OFFCURVE",
"605 336 CURVE",
"539 310 LINE",
"519 211 OFFCURVE",
"434 153 OFFCURVE",
"371 153 CURVE SMOOTH",
"299 153 OFFCURVE",
"249 224 OFFCURVE",
"249 364 CURVE SMOOTH",
"249 523 OFFCURVE",
"310 692 OFFCURVE",
"451 692 CURVE SMOOTH",
"537 692 OFFCURVE",
"589 627 OFFCURVE",
"589 558 CURVE SMOOTH",
"589 547 OFFCURVE",
"588 536 OFFCURVE",
"585 525 CURVE"
);
},
{
closed = 1;
nodes = (
"502 129 LINE",
"502 129 OFFCURVE",
"498 128 OFFCURVE",
"498 128 CURVE",
"497 124 OFFCURVE",
"497 120 OFFCURVE",
"497 115 CURVE SMOOTH",
"497 54 OFFCURVE",
"574 -30 OFFCURVE",
"625 -30 CURVE SMOOTH",
"727 -30 OFFCURVE",
"844 106 OFFCURVE",
"899 195 CURVE",
"899 209 LINE",
"855 260 LINE",
"841 260 LINE",
"780 205 OFFCURVE",
"759 200 OFFCURVE",
"738 200 CURVE SMOOTH",
"730 200 OFFCURVE",
"725 206 OFFCURVE",
"725 215 CURVE SMOOTH",
"725 218 OFFCURVE",
"725 220 OFFCURVE",
"726 223 CURVE SMOOTH",
"853 826 LINE",
"795 861 LINE",
"638 776 LINE"
);
}
);
width = 953;
},
{
background = {
paths = (
{
closed = 1;
nodes = (
"675 1003 OFFCURVE",
"636 820 OFFCURVE",
"597 636 CURVE",
"614 582 LINE",
"597 706 OFFCURVE",
"512 780 OFFCURVE",
"409 780 CURVE SMOOTH",
"230 780 OFFCURVE",
"60 555 OFFCURVE",
"60 278 CURVE SMOOTH",
"60 86 OFFCURVE",
"144 -30 OFFCURVE",
"264 -30 CURVE SMOOTH",
"376 -30 OFFCURVE",
"461 67 OFFCURVE",
"514 146 CURVE",
"498 169 LINE",
"490 134 LINE SMOOTH",
"466 30 OFFCURVE",
"518 -30 OFFCURVE",
"587 -30 CURVE SMOOTH",
"588 -30 LINE SMOOTH",
"652 -30 OFFCURVE",
"710 25 OFFCURVE",
"758 108 CURVE",
"758 116 LINE",
"691 149 LINE",
"684 144 LINE",
"665 82 OFFCURVE",
"640 11 OFFCURVE",
"594 11 CURVE SMOOTH",
"567 11 OFFCURVE",
"556 30 OFFCURVE",
"561 56 CURVE SMOOTH",
"646 463 OFFCURVE",
"733 859 OFFCURVE",
"817 1254 CURVE",
"804 1266 LINE",
"506 1184 LINE",
"499 1141 LINE",
"508 1137 LINE",
"755 1173 LINE",
"711 1187 LINE"
);
},
{
closed = 1;
nodes = (
"154 529 OFFCURVE",
"279 723 OFFCURVE",
"418 723 CURVE SMOOTH",
"506 723 OFFCURVE",
"560 645 OFFCURVE",
"581 564 CURVE",
"499 178 LINE",
"442 103 OFFCURVE",
"364 33 OFFCURVE",
"291 33 CURVE SMOOTH",
"202 33 OFFCURVE",
"154 137 OFFCURVE",
"154 287 CURVE SMOOTH"
);
}
);
};
layerId = "34301EF7-A2BE-469F-9697-D6100B11FDFE";
paths = (
{
closed = 1;
nodes = (
"154 531 OFFCURVE",
"274 729 OFFCURVE",
"412 729 CURVE SMOOTH",
"501 729 OFFCURVE",
"558 645 OFFCURVE",
"582 569 CURVE",
"498 179 LINE",
"440 101 OFFCURVE",
"369 28 OFFCURVE",
"292 28 CURVE SMOOTH",
"197 28 OFFCURVE",
"154 139 OFFCURVE",
"154 287 CURVE SMOOTH"
);
},
{
closed = 1;
nodes = (
"466 35 OFFCURVE",
"504 -30 OFFCURVE",
"593 -30 CURVE SMOOTH",
"675 -30 OFFCURVE",
"732 23 OFFCURVE",
"770 181 CURVE",
"767 189 LINE",
"736 196 LINE",
"728 191 LINE",
"692 50 OFFCURVE",
"655 16 OFFCURVE",
"612 16 CURVE SMOOTH",
"574 16 OFFCURVE",
"557 43 OFFCURVE",
"567 91 CURVE SMOOTH",
"619 322 OFFCURVE",
"703 727 OFFCURVE",
"721 766 CURVE",
"709 780 LINE",
"678 782 OFFCURVE",
"651 774 OFFCURVE",
"621 755 CURVE",
"594 636 LINE",
"622 592 LINE",
"595 706 OFFCURVE",
"520 780 OFFCURVE",
"415 780 CURVE SMOOTH",
"228 780 OFFCURVE",
"58 540 OFFCURVE",
"58 271 CURVE SMOOTH",
"58 81 OFFCURVE",
"144 -30 OFFCURVE",
"270 -30 CURVE SMOOTH",
"386 -30 OFFCURVE",
"459 67 OFFCURVE",
"522 134 CURVE",
"496 169 LINE",
"486 125 LINE SMOOTH"
);
}
);
width = 813;
},
{
background = {
paths = (
{
closed = 1;
nodes = (
"855 59 LINE",
"855 97 LINE",
"847 104 LINE",
"807 107 OFFCURVE",
"773 114 OFFCURVE",
"746 128 CURVE SMOOTH",
"710 146 OFFCURVE",
"690 178 OFFCURVE",
"690 231 CURVE SMOOTH",
"693 592 LINE SMOOTH",
"694 735 OFFCURVE",
"613 851 OFFCURVE",
"405 851 CURVE SMOOTH",
"309 851 OFFCURVE",
"201 827 OFFCURVE",
"108 783 CURVE",
"108 657 LINE",
"124 647 LINE",
"189 678 OFFCURVE",
"285 706 OFFCURVE",
"368 706 CURVE SMOOTH",
"449 706 OFFCURVE",
"560 679 OFFCURVE",
"557 528 CURVE SMOOTH",
"550 162 LINE SMOOTH",
"548 39 OFFCURVE",
"649 -30 OFFCURVE",
"735 -30 CURVE"
);
},
{
closed = 1;
nodes = (
"383 -30 OFFCURVE",
"474 13 OFFCURVE",
"567 125 CURVE",
"565 209 LINE",
"507 145 OFFCURVE",
"421 75 OFFCURVE",
"337 75 CURVE SMOOTH",
"283 75 OFFCURVE",
"236 101 OFFCURVE",
"236 177 CURVE SMOOTH",
"236 262 OFFCURVE",
"296 357 OFFCURVE",
"584 476 CURVE",
"568 569 LINE",
"405 495 LINE SMOOTH",
"167 387 OFFCURVE",
"85 266 OFFCURVE",
"85 154 CURVE SMOOTH",
"85 48 OFFCURVE",
"152 -30 OFFCURVE",
"284 -30 CURVE SMOOTH"
);
}
);
};
layerId = "CFF67ECA-3B2D-433B-B605-F38590C8F106";
paths = (
{
closed = 1;
nodes = (
"334 -30 OFFCURVE",
"507 176 OFFCURVE",
"629 478 CURVE",
"607 639 LINE",
"524 250 OFFCURVE",
"297 99 OFFCURVE",
"233 99 CURVE SMOOTH",
"190 99 OFFCURVE",
"179 205 OFFCURVE",
"179 266 CURVE SMOOTH",
"179 434 OFFCURVE",
"271 732 OFFCURVE",
"442 732 CURVE SMOOTH",
"494 732 OFFCURVE",
"553 697 OFFCURVE",
"647 619 CURVE",
"681 761 LINE",
"605 821 OFFCURVE",
"549 851 OFFCURVE",
"479 851 CURVE SMOOTH",
"247 851 OFFCURVE",
"45 487 OFFCURVE",
"45 198 CURVE SMOOTH",
"45 80 OFFCURVE",
"80 -30 OFFCURVE",
"189 -30 CURVE SMOOTH"
);
},
{
closed = 1;
nodes = (
"852 254 LINE",
"819 290 LINE",
"810 290 LINE",
"714 170 OFFCURVE",
"663 135 OFFCURVE",
"642 135 CURVE SMOOTH",
"634 135 OFFCURVE",
"630 140 OFFCURVE",
"630 149 CURVE SMOOTH",
"630 154 OFFCURVE",
"631 159 OFFCURVE",
"632 165 CURVE SMOOTH",
"772 821 LINE",
"736 851 LINE",
"638 787 LINE",
"492 97 LINE SMOOTH",
"475 19 OFFCURVE",
"539 -30 OFFCURVE",
"587 -30 CURVE SMOOTH",
"656 -30 OFFCURVE",
"781 127 OFFCURVE",
"852 247 CURVE"
);
}
);
width = 897;
}
);
leftMetricsKey = "=o+5";
unicode = 0061;
},
{
glyphname = b;
lastChange = "2020-03-10 13:24:55 +0000";
layers = (
{
background = {
paths = (
{
closed = 1;
nodes = (
"530 -30 OFFCURVE",
"770 178 OFFCURVE",
"828 453 CURVE SMOOTH",
"873 664 OFFCURVE",
"804 861 OFFCURVE",
"600 861 CURVE SMOOTH",
"465 861 OFFCURVE",
"357 770 OFFCURVE",
"279 712 CURVE",
"304 631 LINE",
"337 657 OFFCURVE",
"372 691 OFFCURVE",
"436 691 CURVE SMOOTH",
"573 691 OFFCURVE",
"616 545 OFFCURVE",
"580 372 CURVE SMOOTH",
"545 211 OFFCURVE",
"472 115 OFFCURVE",
"338 115 CURVE SMOOTH",
"258 115 OFFCURVE",
"216 146 OFFCURVE",
"197 172 CURVE",
"-36 31 LINE",
"65 -4 OFFCURVE",
"173 -30 OFFCURVE",
"267 -30 CURVE SMOOTH"
);
},
{
closed = 1;
nodes = (
"204 179 LINE",
"428 1249 LINE",
"413 1266 LINE",
"124 1159 LINE",
"117 1108 LINE",
"151 1031 LINE",
"-57 54 LINE",
"-36 28 LINE"
);
}
);
};
layerId = "6B6AD122-EF8D-49FE-8C69-4BDE8C56BDD8";
paths = (
{
closed = 1;
nodes = (
"473 1208 LINE",
"406 1266 LINE",
"98 1161 LINE",
"82 1072 LINE",
"92 1059 LINE",
"302 1089 LINE",
"251 1143 LINE",
"66 255 LINE",
"-10 0 LINE",
"67 -30 LINE",
"266 225 LINE"
);
},
{
closed = 1;
nodes = (
"246 414 LINE",
"122 98 LINE",
"209 8 OFFCURVE",
"274 -29 OFFCURVE",
"356 -29 CURVE SMOOTH",
"603 -29 OFFCURVE",
"828 272 OFFCURVE",
"828 562 CURVE SMOOTH",
"828 744 OFFCURVE",
"741 862 OFFCURVE",
"606 862 CURVE SMOOTH",
"447 862 OFFCURVE",
"324 676 OFFCURVE",
"263 496 CURVE",
"329 522 LINE",
"349 621 OFFCURVE",
"434 679 OFFCURVE",
"497 679 CURVE SMOOTH",
"569 679 OFFCURVE",
"619 608 OFFCURVE",
"619 468 CURVE SMOOTH",
"619 309 OFFCURVE",
"558 140 OFFCURVE",
"417 140 CURVE SMOOTH",
"331 140 OFFCURVE",
"279 205 OFFCURVE",
"279 274 CURVE SMOOTH",
"279 285 OFFCURVE",
"280 296 OFFCURVE",
"283 307 CURVE"
);
}
);
width = 860;
},
{
background = {
paths = (
{
closed = 1;
nodes = (
"632 219 OFFCURVE",
"512 25 OFFCURVE",
"373 25 CURVE SMOOTH",
"285 25 OFFCURVE",
"228 105 OFFCURVE",
"206 183 CURVE",
"288 569 LINE",
"346 647 OFFCURVE",
"429 719 OFFCURVE",
"502 719 CURVE SMOOTH",
"591 719 OFFCURVE",
"632 611 OFFCURVE",
"632 463 CURVE SMOOTH"
);
},
{
closed = 1;
nodes = (
"320 715 OFFCURVE",
"282 780 OFFCURVE",
"193 780 CURVE SMOOTH",
"111 780 OFFCURVE",
"54 727 OFFCURVE",
"16 569 CURVE",
"19 561 LINE",
"50 554 LINE",
"58 559 LINE",
"94 700 OFFCURVE",
"131 734 OFFCURVE",
"174 734 CURVE SMOOTH",
"212 734 OFFCURVE",
"229 707 OFFCURVE",
"219 659 CURVE SMOOTH",
"167 428 OFFCURVE",
"83 23 OFFCURVE",
"65 -16 CURVE",
"77 -30 LINE",
"108 -32 OFFCURVE",
"135 -24 OFFCURVE",
"165 -5 CURVE",
"192 114 LINE",
"166 155 LINE",
"191 44 OFFCURVE",
"266 -30 OFFCURVE",
"371 -30 CURVE SMOOTH",
"558 -30 OFFCURVE",
"728 210 OFFCURVE",
"728 479 CURVE SMOOTH",
"728 669 OFFCURVE",
"644 780 OFFCURVE",
"524 780 CURVE SMOOTH",
"412 780 OFFCURVE",
"327 683 OFFCURVE",
"264 616 CURVE",
"290 581 LINE",
"300 625 LINE SMOOTH"
);
}
);
};
layerId = "34301EF7-A2BE-469F-9697-D6100B11FDFE";
paths = (
{
closed = 1;
nodes = (
"330 805 OFFCURVE",
"381 1030 OFFCURVE",
"433 1254 CURVE",
"420 1266 LINE",
"120 1173 LINE",
"113 1130 LINE",
"122 1126 LINE",
"364 1173 LINE",
"316 1187 LINE",
"235 786 OFFCURVE",
"153 384 OFFCURVE",
"67 -17 CURVE",
"100 -24 LINE",
"183 119 LINE",
"158 155 LINE",
"191 44 OFFCURVE",
"273 -30 OFFCURVE",
"375 -30 CURVE SMOOTH",
"563 -30 OFFCURVE",
"725 224 OFFCURVE",
"725 493 CURVE SMOOTH",
"725 679 OFFCURVE",
"641 780 OFFCURVE",
"523 780 CURVE SMOOTH",
"409 780 OFFCURVE",
"324 683 OFFCURVE",
"262 596 CURVE",
"279 577 LINE"
);
},
{
closed = 1;
nodes = (
"631 229 OFFCURVE",
"514 22 OFFCURVE",
"374 22 CURVE SMOOTH",
"287 22 OFFCURVE",
"220 105 OFFCURVE",
"190 181 CURVE",
"277 557 LINE",
"338 647 OFFCURVE",
"426 722 OFFCURVE",
"501 722 CURVE SMOOTH",
"588 722 OFFCURVE",
"631 621 OFFCURVE",
"631 473 CURVE SMOOTH"
);
}
);
width = 765;
},
{
background = {
paths = (
{
closed = 1;
nodes = (
"498 851 OFFCURVE",
"325 645 OFFCURVE",
"203 343 CURVE",
"225 182 LINE",
"308 571 OFFCURVE",
"535 722 OFFCURVE",
"599 722 CURVE SMOOTH",
"642 722 OFFCURVE",
"653 616 OFFCURVE",
"653 555 CURVE SMOOTH",
"653 387 OFFCURVE",
"561 89 OFFCURVE",
"390 89 CURVE SMOOTH",
"338 89 OFFCURVE",
"279 124 OFFCURVE",
"185 202 CURVE",
"151 60 LINE",
"227 0 OFFCURVE",
"283 -30 OFFCURVE",
"353 -30 CURVE SMOOTH",
"585 -30 OFFCURVE",
"787 334 OFFCURVE",
"787 623 CURVE SMOOTH",
"787 741 OFFCURVE",
"752 851 OFFCURVE",
"643 851 CURVE SMOOTH"
);
},
{
closed = 1;
nodes = (
"-55 502 LINE",
"-22 466 LINE",
"-13 466 LINE",
"118 651 OFFCURVE",
"169 686 OFFCURVE",
"190 686 CURVE SMOOTH",
"198 686 OFFCURVE",
"202 681 OFFCURVE",
"202 672 CURVE SMOOTH",
"202 667 OFFCURVE",
"201 662 OFFCURVE",
"200 656 CURVE SMOOTH",
"60 0 LINE",
"96 -30 LINE",
"194 34 LINE",
"340 724 LINE SMOOTH",
"357 802 OFFCURVE",
"293 851 OFFCURVE",
"245 851 CURVE SMOOTH",
"176 851 OFFCURVE",
"51 694 OFFCURVE",
"-55 509 CURVE"
);
}
);
};
layerId = "CFF67ECA-3B2D-433B-B605-F38590C8F106";
paths = (
{
closed = 1;
nodes = (
"110 110 LINE",
"172 25 OFFCURVE",
"265 -26 OFFCURVE",
"357 -26 CURVE SMOOTH",
"604 -26 OFFCURVE",
"791 328 OFFCURVE",
"791 617 CURVE SMOOTH",
"791 735 OFFCURVE",
"756 851 OFFCURVE",
"647 851 CURVE SMOOTH",
"502 851 OFFCURVE",
"329 645 OFFCURVE",
"207 343 CURVE",
"226 214 LINE",
"309 563 OFFCURVE",
"539 722 OFFCURVE",
"596 722 CURVE SMOOTH",
"646 722 OFFCURVE",
"660 608 OFFCURVE",
"660 547 CURVE SMOOTH",
"660 379 OFFCURVE",
"556 88 OFFCURVE",
"385 88 CURVE SMOOTH",
"295 88 OFFCURVE",
"199 174 OFFCURVE",
"142 236 CURVE",
"198 84 LINE",
"452 1236 LINE",
"416 1266 LINE",
"85 1141 LINE",
"79 1081 LINE",
"95 1067 LINE",
"349 1126 LINE",
"306 1143 LINE",
"62 -3 LINE",
"93 -32 LINE",
"217 60 LINE"
);
}
);
width = 824;
}
);
leftMetricsKey = l;
rightMetricsKey = "=o+5";
unicode = 0062;
},
{
glyphname = c;
lastChange = "2020-03-10 17:29:30 +0000";
layers = (
{
background = {
paths = (
{
closed = 1;
nodes = (
"621 418 LINE",
"745 761 LINE",
"658 831 OFFCURVE",
"593 861 OFFCURVE",
"511 861 CURVE SMOOTH",
"264 861 OFFCURVE",
"39 560 OFFCURVE",
"39 270 CURVE SMOOTH",
"39 88 OFFCURVE",
"126 -30 OFFCURVE",
"261 -30 CURVE SMOOTH",
"420 -30 OFFCURVE",
"543 156 OFFCURVE",
"604 336 CURVE",
"538 310 LINE",
"518 211 OFFCURVE",
"433 153 OFFCURVE",
"370 153 CURVE SMOOTH",
"298 153 OFFCURVE",
"248 224 OFFCURVE",
"248 364 CURVE SMOOTH",
"248 523 OFFCURVE",
"309 692 OFFCURVE",
"450 692 CURVE SMOOTH",
"536 692 OFFCURVE",
"588 627 OFFCURVE",
"588 558 CURVE SMOOTH",
"588 547 OFFCURVE",
"587 536 OFFCURVE",
"584 525 CURVE"
);
}
);
};
layerId = "6B6AD122-EF8D-49FE-8C69-4BDE8C56BDD8";
paths = (
{
closed = 1;
nodes = (
"463 675 OFFCURVE",
"526 667 OFFCURVE",
"605 641 CURVE",
"633 657 LINE",
"687 785 LINE",
"686 819 LINE",
"613 853 OFFCURVE",
"550 861 OFFCURVE",
"509 861 CURVE SMOOTH",
"264 861 OFFCURVE",
"36 557 OFFCURVE",
"36 280 CURVE SMOOTH",
"36 89 OFFCURVE",
"143 -30 OFFCURVE",
"284 -30 CURVE SMOOTH",
"410 -30 OFFCURVE",
"515 56 OFFCURVE",
"659 190 CURVE",
"659 208 LINE",
"617 268 LINE",
"598 268 LINE",
"507 198 OFFCURVE",
"455 155 OFFCURVE",
"385 155 CURVE SMOOTH",
"290 155 OFFCURVE",
"242 229 OFFCURVE",
"242 380 CURVE SMOOTH",
"242 497 OFFCURVE",
"271 675 OFFCURVE",
"430 675 CURVE SMOOTH"
);
}
);
width = 707;
},
{
background = {
paths = (
{
closed = 1;
nodes = (
"590 542 LINE",
"576 710 OFFCURVE",
"511 780 OFFCURVE",
"409 780 CURVE SMOOTH",
"225 780 OFFCURVE",
"55 550 OFFCURVE",
"55 283 CURVE SMOOTH",
"55 88 OFFCURVE",
"143 -30 OFFCURVE",
"280 -30 CURVE SMOOTH",
"405 -30 OFFCURVE",
"495 59 OFFCURVE",
"560 177 CURVE",
"560 185 LINE",
"548 204 OFFCURVE",
"525 215 OFFCURVE",
"500 217 CURVE",
"493 212 LINE",
"452 102 OFFCURVE",
"392 23 OFFCURVE",
"301 23 CURVE SMOOTH",
"200 23 OFFCURVE",
"150 129 OFFCURVE",
"150 287 CURVE SMOOTH",
"150 531 OFFCURVE",
"270 723 OFFCURVE",
"400 723 CURVE SMOOTH",
"467 723 OFFCURVE",
"511 675 OFFCURVE",
"526 525 CURVE",
"532 520 LINE",
"552 519 OFFCURVE",
"571 522 OFFCURVE",
"587 535 CURVE"
);
}
);
};
layerId = "34301EF7-A2BE-469F-9697-D6100B11FDFE";
paths = (
{
closed = 1;
nodes = (
"55 88 OFFCURVE",
"143 -30 OFFCURVE",
"285 -30 CURVE SMOOTH",
"414 -30 OFFCURVE",
"498 63 OFFCURVE",
"563 181 CURVE",
"563 189 LINE",
"555 203 OFFCURVE",
"542 209 OFFCURVE",
"522 209 CURVE",
"515 204 LINE",
"466 99 OFFCURVE",
"394 21 OFFCURVE",
"306 21 CURVE SMOOTH",
"200 21 OFFCURVE",
"150 129 OFFCURVE",
"150 287 CURVE SMOOTH",
"150 531 OFFCURVE",
"269 733 OFFCURVE",
"405 733 CURVE SMOOTH",
"469 733 OFFCURVE",
"511 689 OFFCURVE",
"533 595 CURVE",
"529 666 LINE",
"493 647 OFFCURVE",
"468 592 OFFCURVE",
"468 553 CURVE SMOOTH",
"468 516 OFFCURVE",
"490 484 OFFCURVE",
"524 484 CURVE SMOOTH",
"561 484 OFFCURVE",
"590 524 OFFCURVE",
"590 585 CURVE SMOOTH",
"590 679 OFFCURVE",
"524 780 OFFCURVE",
"406 780 CURVE SMOOTH",
"228 780 OFFCURVE",
"55 550 OFFCURVE",
"55 283 CURVE SMOOTH"
);
}
);
width = 636;
},
{
background = {
paths = (
{
closed = 1;
nodes = (
"189 454 OFFCURVE",
"245 723 OFFCURVE",
"391 723 CURVE SMOOTH",
"437 723 OFFCURVE",
"515 714 OFFCURVE",
"606 674 CURVE",
"622 674 LINE",
"681 785 LINE",
"681 801 LINE",
"583 857 OFFCURVE",
"493 851 OFFCURVE",
"453 851 CURVE SMOOTH",
"221 851 OFFCURVE",
"52 509 OFFCURVE",
"52 234 CURVE SMOOTH",
"52 68 OFFCURVE",
"119 -30 OFFCURVE",
"248 -30 CURVE SMOOTH",
"369 -30 OFFCURVE",
"501 53 OFFCURVE",
"608 158 CURVE",
"608 171 LINE",
"578 219 LINE",
"567 221 LINE",
"456 132 OFFCURVE",
"368 94 OFFCURVE",
"305 94 CURVE SMOOTH",
"199 94 OFFCURVE",
"189 205 OFFCURVE",
"189 283 CURVE SMOOTH"
);
},
{
closed = 1;
nodes = (
"30 -30 OFFCURVE",
"140 33 OFFCURVE",
"164 156 CURVE SMOOTH",
"234 522 LINE SMOOTH",
"264 673 OFFCURVE",
"387 706 OFFCURVE",
"472 706 CURVE SMOOTH",
"551 706 OFFCURVE",
"641 681 OFFCURVE",
"699 650 CURVE",
"713 657 LINE",
"734 780 LINE",
"651 824 OFFCURVE",
"548 851 OFFCURVE",
"447 851 CURVE SMOOTH",
"244 851 OFFCURVE",
"144 741 OFFCURVE",
"115 598 CURVE SMOOTH",
"41 237 LINE SMOOTH",
"30 184 OFFCURVE",
"-2 149 OFFCURVE",
"-45 135 CURVE SMOOTH",
"-71 118 OFFCURVE",
"-108 107 OFFCURVE",
"-149 104 CURVE",
"-155 97 LINE",
"-160 59 LINE",
"-54 -30 LINE"
);
}
);
};
layerId = "CFF67ECA-3B2D-433B-B605-F38590C8F106";
paths = (
{
closed = 1;
nodes = (
"189 454 OFFCURVE",
"248 723 OFFCURVE",
"418 723 CURVE SMOOTH",
"449 723 OFFCURVE",
"512 715 OFFCURVE",
"600 687 CURVE",
"616 687 LINE",
"663 793 LINE",
"663 809 LINE",
"584 846 OFFCURVE",
"493 851 OFFCURVE",
"460 851 CURVE SMOOTH",
"191 851 OFFCURVE",
"52 509 OFFCURVE",
"52 234 CURVE SMOOTH",
"52 68 OFFCURVE",
"119 -30 OFFCURVE",
"248 -30 CURVE SMOOTH",
"369 -30 OFFCURVE",
"501 53 OFFCURVE",
"608 158 CURVE",
"608 171 LINE",
"578 219 LINE",
"567 221 LINE",
"456 132 OFFCURVE",
"368 94 OFFCURVE",
"305 94 CURVE SMOOTH",
"199 94 OFFCURVE",
"189 205 OFFCURVE",
"189 283 CURVE SMOOTH"
);
}
);
width = 662;
}
);
leftMetricsKey = o;
unicode = 0063;
},
{
glyphname = d;
lastChange = "2020-03-10 13:25:40 +0000";
layers = (
{
background = {
paths = (
{
closed = 1;
nodes = (
"41 121 OFFCURVE",
"70 -30 OFFCURVE",
"221 -30 CURVE SMOOTH",
"294 -30 OFFCURVE",
"541 136 OFFCURVE",
"596 328 CURVE",
"562 415 LINE",
"698 701 LINE",
"631 796 OFFCURVE",
"536 861 OFFCURVE",
"465 861 CURVE SMOOTH",
"307 861 OFFCURVE",
"41 539 OFFCURVE",
"41 229 CURVE SMOOTH"
);
},
{
closed = 1;
nodes = (
"252 504 OFFCURVE",
"292 699 OFFCURVE",
"391 699 CURVE SMOOTH",
"480 699 OFFCURVE",
"586 542 OFFCURVE",
"560 416 CURVE SMOOTH",
"518 213 OFFCURVE",
"436 153 OFFCURVE",
"361 153 CURVE SMOOTH",
"269 153 OFFCURVE",
"252 235 OFFCURVE",
"252 371 CURVE SMOOTH"
);
},
{
closed = 1;
nodes = (
"487 67 OFFCURVE",
"572 -30 OFFCURVE",
"627 -30 CURVE SMOOTH",
"734 -30 OFFCURVE",
"888 150 OFFCURVE",
"954 235 CURVE",
"902 310 LINE",
"893 310 LINE",
"812 235 OFFCURVE",
"761 200 OFFCURVE",
"740 200 CURVE SMOOTH",
"726 200 OFFCURVE",
"727 214 OFFCURVE",
"730 230 CURVE SMOOTH",
"936 1208 LINE",
"869 1266 LINE",
"561 1161 LINE",
"545 1072 LINE",
"555 1059 LINE",
"765 1089 LINE",
"714 1143 LINE",
"500 129 LINE SMOOTH"
);
}
);
};
layerId = "6B6AD122-EF8D-49FE-8C69-4BDE8C56BDD8";
paths = (
{
closed = 1;
nodes = (
"487 67 OFFCURVE",
"572 -30 OFFCURVE",
"627 -30 CURVE SMOOTH",
"729 -30 OFFCURVE",
"846 106 OFFCURVE",
"901 195 CURVE",
"901 209 LINE",
"857 260 LINE",
"843 260 LINE",
"782 205 OFFCURVE",
"761 200 OFFCURVE",
"740 200 CURVE SMOOTH",
"730 200 OFFCURVE",
"725 209 OFFCURVE",
"728 223 CURVE SMOOTH",
"936 1208 LINE",
"869 1266 LINE",
"561 1161 LINE",
"545 1072 LINE",
"555 1059 LINE",
"765 1089 LINE",
"714 1143 LINE",
"500 129 LINE SMOOTH"
);
},
{
closed = 1;
nodes = (
"622 418 LINE",
"746 761 LINE",
"659 831 OFFCURVE",
"594 861 OFFCURVE",
"512 861 CURVE SMOOTH",
"265 861 OFFCURVE",
"40 560 OFFCURVE",
"40 270 CURVE SMOOTH",
"40 88 OFFCURVE",
"127 -30 OFFCURVE",
"262 -30 CURVE SMOOTH",
"421 -30 OFFCURVE",
"544 156 OFFCURVE",
"605 336 CURVE",
"539 310 LINE",
"519 211 OFFCURVE",
"434 153 OFFCURVE",
"371 153 CURVE SMOOTH",
"299 153 OFFCURVE",
"249 224 OFFCURVE",
"249 364 CURVE SMOOTH",
"249 523 OFFCURVE",
"310 692 OFFCURVE",
"451 692 CURVE SMOOTH",
"537 692 OFFCURVE",
"589 627 OFFCURVE",
"589 558 CURVE SMOOTH",
"589 547 OFFCURVE",
"588 536 OFFCURVE",
"585 525 CURVE"
);
}
);
width = 953;
},
{
background = {
paths = (
{
closed = 1;
nodes = (
"154 531 OFFCURVE",
"274 725 OFFCURVE",
"413 725 CURVE SMOOTH",
"501 725 OFFCURVE",
"558 645 OFFCURVE",
"580 567 CURVE",
"498 181 LINE",
"440 103 OFFCURVE",
"357 31 OFFCURVE",
"284 31 CURVE SMOOTH",
"195 31 OFFCURVE",
"154 139 OFFCURVE",
"154 287 CURVE SMOOTH"
);
},
{
closed = 1;
nodes = (
"466 35 OFFCURVE",
"504 -30 OFFCURVE",
"593 -30 CURVE SMOOTH",
"675 -30 OFFCURVE",
"732 23 OFFCURVE",
"770 181 CURVE",
"767 189 LINE",
"736 196 LINE",
"728 191 LINE",
"692 50 OFFCURVE",
"655 16 OFFCURVE",
"612 16 CURVE SMOOTH",
"574 16 OFFCURVE",
"557 43 OFFCURVE",
"567 91 CURVE SMOOTH",
"619 322 OFFCURVE",
"703 727 OFFCURVE",
"721 766 CURVE",
"709 780 LINE",
"678 782 OFFCURVE",
"651 774 OFFCURVE",
"621 755 CURVE",
"594 636 LINE",
"620 595 LINE",
"595 706 OFFCURVE",
"520 780 OFFCURVE",
"415 780 CURVE SMOOTH",
"228 780 OFFCURVE",
"58 540 OFFCURVE",
"58 271 CURVE SMOOTH",
"58 81 OFFCURVE",
"142 -30 OFFCURVE",
"262 -30 CURVE SMOOTH",
"374 -30 OFFCURVE",
"459 67 OFFCURVE",
"522 134 CURVE",
"496 169 LINE",
"486 125 LINE SMOOTH"
);
}
);
};
layerId = "34301EF7-A2BE-469F-9697-D6100B11FDFE";
paths = (
{
closed = 1;
nodes = (
"652 498 OFFCURVE",
"733 859 OFFCURVE",
"817 1254 CURVE",
"804 1266 LINE",
"506 1184 LINE",
"499 1141 LINE",
"508 1137 LINE",
"755 1173 LINE",
"711 1187 LINE",
"675 1003 OFFCURVE",
"636 820 OFFCURVE",
"597 636 CURVE",
"620 590 LINE",
"597 708 OFFCURVE",
"516 780 OFFCURVE",
"413 780 CURVE SMOOTH",
"230 780 OFFCURVE",
"60 547 OFFCURVE",
"60 280 CURVE SMOOTH",
"60 88 OFFCURVE",
"147 -30 OFFCURVE",
"269 -30 CURVE SMOOTH",
"379 -30 OFFCURVE",
"462 65 OFFCURVE",
"518 139 CURVE",
"498 169 LINE",
"490 134 LINE SMOOTH",
"469 44 OFFCURVE",
"504 -30 OFFCURVE",
"593 -30 CURVE SMOOTH",
"675 -30 OFFCURVE",
"732 23 OFFCURVE",
"770 181 CURVE",
"767 189 LINE",
"736 196 LINE",
"728 191 LINE",
"692 50 OFFCURVE",
"655 16 OFFCURVE",
"612 16 CURVE SMOOTH",
"574 16 OFFCURVE",
"557 43 OFFCURVE",
"567 91 CURVE SMOOTH"
);
},
{
closed = 1;
nodes = (
"154 529 OFFCURVE",
"279 723 OFFCURVE",
"418 723 CURVE SMOOTH",
"506 723 OFFCURVE",
"560 645 OFFCURVE",
"581 564 CURVE",
"499 178 LINE",
"442 103 OFFCURVE",
"364 33 OFFCURVE",
"291 33 CURVE SMOOTH",
"202 33 OFFCURVE",
"154 137 OFFCURVE",
"154 287 CURVE SMOOTH"
);
}
);
width = 805;
},
{
background = {
paths = (
{
closed = 1;
nodes = (
"425 -30 OFFCURVE",
"518 62 OFFCURVE",
"569 115 CURVE",
"566 231 LINE",
"545 187 OFFCURVE",
"448 80 OFFCURVE",
"340 80 CURVE SMOOTH",
"211 80 OFFCURVE",
"116 214 OFFCURVE",
"116 428 CURVE SMOOTH",
"116 650 OFFCURVE",
"226 735 OFFCURVE",
"358 735 CURVE SMOOTH",
"461 735 OFFCURVE",
"534 684 OFFCURVE",
"567 616 CURVE",
"572 785 LINE",
"526 817 OFFCURVE",
"459 851 OFFCURVE",
"365 851 CURVE SMOOTH",
"155 851 OFFCURVE",
"-47 678 OFFCURVE",
"-47 384 CURVE SMOOTH",
"-47 128 OFFCURVE",
"96 -30 OFFCURVE",
"288 -30 CURVE SMOOTH"
);
},
{
closed = 1;
nodes = (
"444 1171 LINE",
"444 1122 LINE",
"561 1077 LINE",
"561 149 LINE",
"603 -26 LINE",
"623 -36 LINE",
"838 35 LINE",
"838 83 LINE",
"760 110 OFFCURVE",
"712 129 OFFCURVE",
"712 178 CURVE SMOOTH",
"712 1254 LINE",
"688 1266 LINE"
);
}
);
};
layerId = "CFF67ECA-3B2D-433B-B605-F38590C8F106";
paths = (
{
closed = 1;
nodes = (
"334 -30 OFFCURVE",
"507 176 OFFCURVE",
"629 478 CURVE",
"607 639 LINE",
"524 250 OFFCURVE",
"297 99 OFFCURVE",
"233 99 CURVE SMOOTH",
"190 99 OFFCURVE",
"179 205 OFFCURVE",
"179 266 CURVE SMOOTH",
"179 434 OFFCURVE",
"271 732 OFFCURVE",
"442 732 CURVE SMOOTH",
"494 732 OFFCURVE",
"553 697 OFFCURVE",
"647 619 CURVE",
"681 761 LINE",
"605 821 OFFCURVE",
"549 851 OFFCURVE",
"479 851 CURVE SMOOTH",
"247 851 OFFCURVE",
"45 487 OFFCURVE",
"45 198 CURVE SMOOTH",
"45 80 OFFCURVE",
"80 -30 OFFCURVE",
"189 -30 CURVE SMOOTH"
);
},
{
closed = 1;
nodes = (
"845 254 LINE",
"812 293 LINE",
"803 293 LINE",
"718 173 OFFCURVE",
"665 135 OFFCURVE",
"644 135 CURVE SMOOTH",
"636 135 OFFCURVE",
"632 140 OFFCURVE",
"632 149 CURVE SMOOTH",
"632 154 OFFCURVE",
"633 159 OFFCURVE",
"634 165 CURVE SMOOTH",
"860 1236 LINE",
"824 1266 LINE",
"493 1141 LINE",
"487 1081 LINE",
"503 1067 LINE",
"757 1126 LINE",
"714 1143 LINE",
"492 97 LINE SMOOTH",
"477 28 OFFCURVE",
"537 -30 OFFCURVE",
"595 -30 CURVE SMOOTH",
"664 -30 OFFCURVE",
"796 128 OFFCURVE",
"845 246 CURVE"
);
}
);
width = 898;
}
);
leftMetricsKey = a;
note = "Fix foot to have cut in it!!";
rightMetricsKey = l;
unicode = 0064;
},
{
glyphname = e;
lastChange = "2020-03-07 17:01:53 +0000";
layers = (
{
background = {
paths = (
{
closed = 1;
nodes = (
"625 418 LINE",
"749 761 LINE",
"662 831 OFFCURVE",
"597 861 OFFCURVE",
"515 861 CURVE SMOOTH",
"268 861 OFFCURVE",
"43 560 OFFCURVE",
"43 270 CURVE SMOOTH",
"43 88 OFFCURVE",
"130 -30 OFFCURVE",
"265 -30 CURVE SMOOTH",
"424 -30 OFFCURVE",
"547 156 OFFCURVE",
"608 336 CURVE",
"542 310 LINE",
"522 211 OFFCURVE",
"437 153 OFFCURVE",
"374 153 CURVE SMOOTH",
"302 153 OFFCURVE",
"252 224 OFFCURVE",
"252 364 CURVE SMOOTH",
"252 523 OFFCURVE",
"313 692 OFFCURVE",
"454 692 CURVE SMOOTH",
"540 692 OFFCURVE",
"592 627 OFFCURVE",
"592 558 CURVE SMOOTH",
"592 547 OFFCURVE",
"591 536 OFFCURVE",
"588 525 CURVE"
);
}
);
};
layerId = "6B6AD122-EF8D-49FE-8C69-4BDE8C56BDD8";
paths = (
{
closed = 1;
nodes = (
"644 763 OFFCURVE",
"571 861 OFFCURVE",
"451 861 CURVE SMOOTH",
"248 861 OFFCURVE",
"39 570 OFFCURVE",
"39 284 CURVE SMOOTH",
"39 92 OFFCURVE",
"127 -30 OFFCURVE",
"280 -30 CURVE SMOOTH",
"424 -30 OFFCURVE",
"557 73 OFFCURVE",
"701 234 CURVE",
"701 252 LINE",
"655 298 LINE",
"636 298 LINE",
"540 206 OFFCURVE",
"471 152 OFFCURVE",
"380 152 CURVE SMOOTH",
"272 152 OFFCURVE",
"215 239 OFFCURVE",
"215 357 CURVE SMOOTH",
"215 507 OFFCURVE",
"308 701 OFFCURVE",
"399 701 CURVE SMOOTH",
"441 701 OFFCURVE",
"460 659 OFFCURVE",
"460 615 CURVE SMOOTH",
"460 548 OFFCURVE",
"420 469 OFFCURVE",
"180 405 CURVE",
"196 271 LINE",
"552 387 OFFCURVE",
"644 498 OFFCURVE",
"644 642 CURVE SMOOTH"
);
}
);
width = 707;
},
{
background = {
paths = (
{
closed = 0;
nodes = (
"281 -30 LINE SMOOTH",
"406 -30 OFFCURVE",
"490 63 OFFCURVE",
"555 181 CURVE",
"555 189 LINE",
"547 203 OFFCURVE",
"534 209 OFFCURVE",
"514 209 CURVE",
"507 204 LINE",
"458 99 OFFCURVE",
"386 21 OFFCURVE",
"302 21 CURVE SMOOTH"
);
}
);
};
layerId = "34301EF7-A2BE-469F-9697-D6100B11FDFE";
paths = (
{
closed = 1;
nodes = (
"561 197 LINE",
"553 211 OFFCURVE",
"539 219 OFFCURVE",
"521 217 CURVE",
"514 213 LINE",
"457 103 OFFCURVE",
"374 20 OFFCURVE",
"286 20 CURVE SMOOTH",
"191 20 OFFCURVE",
"143 117 OFFCURVE",
"143 261 CURVE SMOOTH",
"143 518 OFFCURVE",
"279 724 OFFCURVE",
"415 724 CURVE SMOOTH",
"478 724 OFFCURVE",
"503 681 OFFCURVE",
"503 636 CURVE SMOOTH",
"503 516 OFFCURVE",
"340 377 OFFCURVE",
"139 377 CURVE",
"131 325 LINE",
"362 325 OFFCURVE",
"596 483 OFFCURVE",
"596 638 CURVE SMOOTH",
"596 730 OFFCURVE",
"517 780 OFFCURVE",
"430 780 CURVE SMOOTH",
"233 780 OFFCURVE",
"49 530 OFFCURVE",
"49 254 CURVE SMOOTH",
"49 74 OFFCURVE",
"130 -30 OFFCURVE",
"266 -30 CURVE SMOOTH",
"393 -30 OFFCURVE",
"486 60 OFFCURVE",
"561 189 CURVE"
);
}
);
width = 629;
},
{
background = {
paths = (
{
closed = 1;
nodes = (
"154 427 LINE",
"481 496 OFFCURVE",
"647 559 OFFCURVE",
"647 694 CURVE SMOOTH",
"647 787 OFFCURVE",
"566 851 OFFCURVE",
"467 851 CURVE SMOOTH",
"235 851 OFFCURVE",
"43 495 OFFCURVE",
"43 236 CURVE SMOOTH",
"43 68 OFFCURVE",
"123 -30 OFFCURVE",
"252 -30 CURVE SMOOTH",
"373 -30 OFFCURVE",
"505 53 OFFCURVE",
"612 128 CURVE",
"612 141 LINE",
"582 189 LINE",
"571 191 LINE",
"460 132 OFFCURVE",
"372 94 OFFCURVE",
"304 94 CURVE SMOOTH",
"203 94 OFFCURVE",
"180 205 OFFCURVE",
"180 293 CURVE SMOOTH",
"180 503 OFFCURVE",
"310 755 OFFCURVE",
"443 755 CURVE SMOOTH",
"495 755 OFFCURVE",
"519 717 OFFCURVE",
"519 684 CURVE SMOOTH",
"519 601 OFFCURVE",
"363 562 OFFCURVE",
"154 502 CURVE"
);
}
);
};
layerId = "CFF67ECA-3B2D-433B-B605-F38590C8F106";
paths = (
{
closed = 1;
nodes = (
"134 347 LINE",
"435 456 OFFCURVE",
"621 579 OFFCURVE",
"621 697 CURVE SMOOTH",
"621 777 OFFCURVE",
"540 851 OFFCURVE",
"454 851 CURVE SMOOTH",
"265 851 OFFCURVE",
"43 495 OFFCURVE",
"43 224 CURVE SMOOTH",
"43 68 OFFCURVE",
"110 -30 OFFCURVE",
"239 -30 CURVE SMOOTH",
"360 -30 OFFCURVE",
"492 53 OFFCURVE",
"599 158 CURVE",
"599 171 LINE",
"569 219 LINE",
"558 221 LINE",
"447 132 OFFCURVE",
"359 94 OFFCURVE",
"296 94 CURVE SMOOTH",
"190 94 OFFCURVE",
"180 205 OFFCURVE",
"180 263 CURVE SMOOTH",
"180 503 OFFCURVE",
"340 757 OFFCURVE",
"426 757 CURVE SMOOTH",
"459 757 OFFCURVE",
"483 717 OFFCURVE",
"483 684 CURVE SMOOTH",
"483 591 OFFCURVE",
"395 536 OFFCURVE",
"134 422 CURVE"
);
}
);
width = 663;
}
);
leftMetricsKey = o;
unicode = 0065;
},
{
glyphname = f;
lastChange = "2020-03-11 10:26:33 +0000";
layers = (
{
background = {
paths = (
{
closed = 1;
nodes = (
"498 1137 LINE",
"427 1042 OFFCURVE",
"402 926 OFFCURVE",
"390 826 CURVE",
"568 853 LINE",
"586 839 LINE",
"550 684 LINE",
"387 684 LINE",
"260 -77 LINE SMOOTH",
"219 -324 OFFCURVE",
"22 -424 OFFCURVE",
"-119 -424 CURVE SMOOTH",
"-163 -424 OFFCURVE",
"-228 -414 OFFCURVE",
"-268 -379 CURVE",
"-268 -357 LINE",
"-208 -207 LINE",
"-178 -207 LINE",
"-137 -230 OFFCURVE",
"-95 -252 OFFCURVE",
"-53 -252 CURVE SMOOTH",
"2 -252 OFFCURVE",
"28 -212 OFFCURVE",
"37 -162 CURVE SMOOTH",
"181 688 LINE",
"48 688 LINE",
"72 811 LINE",
"208 838 LINE",
"213 869 LINE SMOOTH",
"248 1106 OFFCURVE",
"454 1266 OFFCURVE",
"616 1266 CURVE SMOOTH",
"701 1266 OFFCURVE",
"688 1131 OFFCURVE",
"685 1068 CURVE",
"712 1075 OFFCURVE",
"742 1093 OFFCURVE",
"776 1109 CURVE",
"784 1107 LINE",
"803 1069 LINE",
"801 1062 LINE",
"745 1010 OFFCURVE",
"666 943 OFFCURVE",
"605 943 CURVE SMOOTH",
"551 943 OFFCURVE",
"495 995 OFFCURVE",
"516 1137 CURVE"
);
}
);
};
layerId = "6B6AD122-EF8D-49FE-8C69-4BDE8C56BDD8";
paths = (
{
closed = 1;
nodes = (
"387 692 LINE",
"550 692 LINE",
"586 847 LINE",
"568 861 LINE",
"390 834 LINE",
"413 1006 OFFCURVE",
"441 1075 OFFCURVE",
"525 1075 CURVE SMOOTH",
"568 1075 OFFCURVE",
"633 1068 OFFCURVE",
"715 1044 CURVE",
"740 1062 LINE",
"793 1190 LINE",
"793 1224 LINE",
"722 1255 OFFCURVE",
"657 1266 OFFCURVE",
"616 1266 CURVE SMOOTH",
"454 1266 OFFCURVE",
"252 1116 OFFCURVE",
"213 877 CURVE SMOOTH",
"208 846 LINE",
"72 819 LINE",
"48 696 LINE",
"181 696 LINE",
"44 -377 LINE",
"81 -413 LINE",
"223 -334 LINE"
);
}
);
width = 543;
},
{
background = {
paths = (
{
closed = 1;
nodes = (
"322 697 LINE",
"520 697 LINE",
"528 711 OFFCURVE",
"532 725 OFFCURVE",
"532 739 CURVE SMOOTH",
"532 753 OFFCURVE",
"528 766 OFFCURVE",
"522 779 CURVE",
"333 753 LINE",
"391 1027 LINE SMOOTH",
"420 1163 OFFCURVE",
"462 1202 OFFCURVE",
"522 1206 CURVE SMOOTH",
"542 1204 OFFCURVE",
"563 1199 OFFCURVE",
"586 1192 CURVE",
"532 1212 LINE",
"543 1157 OFFCURVE",
"588 1109 OFFCURVE",
"657 1109 CURVE SMOOTH",
"699 1109 OFFCURVE",
"724 1129 OFFCURVE",
"724 1161 CURVE SMOOTH",
"724 1214 OFFCURVE",
"652 1265 OFFCURVE",
"578 1265 CURVE SMOOTH",
"480 1265 OFFCURVE",
"351 1191 OFFCURVE",
"290 953 CURVE SMOOTH",
"238 750 LINE",
"69 729 LINE",
"63 697 LINE",
"227 697 LINE",
"2 -410 LINE",
"14 -424 LINE",
"44 -425 OFFCURVE",
"63 -417 OFFCURVE",
"93 -398 CURVE"
);
}
);
};
layerId = "34301EF7-A2BE-469F-9697-D6100B11FDFE";
paths = (
{
closed = 1;
nodes = (
"322 697 LINE",
"520 697 LINE",
"528 711 OFFCURVE",
"532 725 OFFCURVE",
"532 739 CURVE SMOOTH",
"532 753 OFFCURVE",
"528 766 OFFCURVE",
"522 779 CURVE",
"333 753 LINE",
"391 1027 LINE SMOOTH",
"420 1163 OFFCURVE",
"462 1202 OFFCURVE",
"522 1206 CURVE SMOOTH",
"542 1204 OFFCURVE",
"563 1199 OFFCURVE",
"586 1192 CURVE",
"532 1212 LINE",
"543 1157 OFFCURVE",
"588 1109 OFFCURVE",
"657 1109 CURVE SMOOTH",
"699 1109 OFFCURVE",
"724 1129 OFFCURVE",
"724 1161 CURVE SMOOTH",
"724 1214 OFFCURVE",
"652 1265 OFFCURVE",
"578 1265 CURVE SMOOTH",
"480 1265 OFFCURVE",
"351 1191 OFFCURVE",
"290 953 CURVE SMOOTH",
"238 750 LINE",
"69 729 LINE",
"63 697 LINE",
"227 697 LINE",
"2 -410 LINE",
"14 -424 LINE",
"44 -425 OFFCURVE",
"63 -417 OFFCURVE",
"93 -398 CURVE"
);
}
);
width = 490;
},
{
background = {
paths = (
{
closed = 1;
nodes = (
"-258 -357 LINE",
"-207 -258 LINE",
"-177 -258 LINE",
"-146 -281 OFFCURVE",
"-114 -303 OFFCURVE",
"-58 -303 CURVE SMOOTH",
"13 -303 OFFCURVE",
"51 -243 OFFCURVE",
"61 -183 CURVE SMOOTH",
"219 744 LINE",
"67 744 LINE",
"81 809 LINE",
"236 836 LINE",
"246 899 LINE SMOOTH",
"285 1146 OFFCURVE",
"424 1266 OFFCURVE",
"550 1266 CURVE SMOOTH",
"614 1266 OFFCURVE",
"691 1239 OFFCURVE",
"728 1156 CURVE",
"686 1055 LINE",
"656 1055 LINE",
"625 1108 OFFCURVE",
"570 1145 OFFCURVE",
"514 1145 CURVE SMOOTH",
"428 1145 OFFCURVE",
"375 1070 OFFCURVE",
"348 824 CURVE",
"586 849 LINE",
"595 837 LINE",
"569 740 LINE",
"343 740 LINE",
"207 -77 LINE SMOOTH",
"166 -324 OFFCURVE",
"32 -424 OFFCURVE",
"-109 -424 CURVE SMOOTH",
"-153 -424 OFFCURVE",
"-218 -414 OFFCURVE",
"-258 -379 CURVE"
);
},
{
closed = 0;
nodes = (
"325 571 LINE SMOOTH",
"395 937 LINE SMOOTH",
"425 1088 OFFCURVE",
"548 1121 OFFCURVE",
"633 1121 CURVE SMOOTH",
"712 1121 OFFCURVE",
"802 1096 OFFCURVE",
"860 1065 CURVE",
"874 1072 LINE",
"895 1195 LINE",
"812 1239 OFFCURVE",
"709 1266 OFFCURVE",
"608 1266 CURVE SMOOTH",
"405 1266 OFFCURVE",
"305 1156 OFFCURVE",
"276 1013 CURVE SMOOTH",
"202 652 LINE SMOOTH"
);
}
);
};
layerId = "CFF67ECA-3B2D-433B-B605-F38590C8F106";
paths = (
{
closed = 1;
nodes = (
"343 740 LINE",
"569 740 LINE",
"595 837 LINE",
"586 849 LINE",
"348 824 LINE",
"390 1109 OFFCURVE",
"475 1135 OFFCURVE",
"556 1135 CURVE SMOOTH",
"591 1135 OFFCURVE",
"644 1130 OFFCURVE",
"712 1103 CURVE",
"736 1113 LINE",
"789 1207 LINE",
"783 1231 LINE",
"693 1258 OFFCURVE",
"630 1266 OFFCURVE",
"584 1266 CURVE SMOOTH",
"434 1266 OFFCURVE",
"306 1180 OFFCURVE",
"257 939 CURVE SMOOTH",
"236 836 LINE",
"81 809 LINE",
"67 744 LINE",
"219 744 LINE",
"35 -394 LINE",
"63 -424 LINE",
"144 -375 LINE"
);
}
);
width = 540;
}
);
unicode = 0066;
},
{
glyphname = g;
lastChange = "2020-03-10 13:26:09 +0000";
layers = (
{
background = {
paths = (
{
closed = 1;
nodes = (
"583 291 OFFCURVE",
"717 416 OFFCURVE",
"717 571 CURVE SMOOTH",
"717 732 OFFCURVE",
"573 851 OFFCURVE",
"407 851 CURVE SMOOTH",
"232 851 OFFCURVE",
"89 725 OFFCURVE",
"89 571 CURVE SMOOTH",
"89 409 OFFCURVE",
"241 291 OFFCURVE",
"407 291 CURVE SMOOTH"
);
},
{
closed = 1;
nodes = (
"305 383 OFFCURVE",
"247 496 OFFCURVE",
"247 600 CURVE SMOOTH",
"247 688 OFFCURVE",
"293 759 OFFCURVE",
"392 759 CURVE SMOOTH",
"514 759 OFFCURVE",
"569 647 OFFCURVE",
"569 545 CURVE SMOOTH",
"569 457 OFFCURVE",
"526 383 OFFCURVE",
"424 383 CURVE SMOOTH"
);
},
{
closed = 1;
nodes = (
"850 711 LINE",
"850 835 LINE",
"833 851 LINE",
"556 808 LINE",
"568 711 LINE"
);
},
{
closed = 1;
nodes = (
"315 82 LINE",
"184 -11 LINE SMOOTH",
"79 -86 OFFCURVE",
"36 -154 OFFCURVE",
"36 -232 CURVE SMOOTH",
"36 -347 OFFCURVE",
"132 -424 OFFCURVE",
"363 -424 CURVE SMOOTH",
"636 -424 OFFCURVE",
"800 -318 OFFCURVE",
"800 -158 CURVE SMOOTH",
"800 -47 OFFCURVE",
"722 20 OFFCURVE",
"591 64 CURVE SMOOTH",
"438 116 LINE SMOOTH",
"394 131 OFFCURVE",
"367 140 OFFCURVE",
"367 175 CURVE SMOOTH",
"367 192 OFFCURVE",
"373 214 OFFCURVE",
"431 299 CURVE",
"360 332 LINE",
"273 231 OFFCURVE",
"225 171 OFFCURVE",
"225 108 CURVE SMOOTH",
"225 60 OFFCURVE",
"255 -3 OFFCURVE",
"342 -30 CURVE SMOOTH",
"462 -67 LINE SMOOTH",
"618 -115 OFFCURVE",
"659 -146 OFFCURVE",
"659 -191 CURVE SMOOTH",
"659 -262 OFFCURVE",
"554 -322 OFFCURVE",
"380 -322 CURVE SMOOTH",
"220 -322 OFFCURVE",
"173 -269 OFFCURVE",
"173 -200 CURVE SMOOTH",
"173 -131 OFFCURVE",
"217 -62 OFFCURVE",
"371 27 CURVE"
);
}
);
};
layerId = "6B6AD122-EF8D-49FE-8C69-4BDE8C56BDD8";
paths = (
{
closed = 1;
nodes = (
"442 -424 OFFCURVE",
"629 -292 OFFCURVE",
"680 -35 CURVE SMOOTH",
"852 826 LINE",
"794 861 LINE",
"633 776 LINE",
"478 8 LINE SMOOTH",
"444 -162 OFFCURVE",
"425 -233 OFFCURVE",
"341 -233 CURVE SMOOTH",
"298 -233 OFFCURVE",
"233 -226 OFFCURVE",
"61 -172 CURVE",
"36 -190 LINE",
"-17 -328 LINE",
"-17 -362 LINE",
"144 -413 OFFCURVE",
"209 -424 OFFCURVE",
"280 -424 CURVE SMOOTH"
);
},
{
closed = 1;
nodes = (
"421 -30 OFFCURVE",
"544 156 OFFCURVE",
"605 336 CURVE",
"539 310 LINE",
"519 211 OFFCURVE",
"434 153 OFFCURVE",
"371 153 CURVE SMOOTH",
"299 153 OFFCURVE",
"249 224 OFFCURVE",
"249 364 CURVE SMOOTH",
"249 523 OFFCURVE",
"310 692 OFFCURVE",
"451 692 CURVE SMOOTH",
"537 692 OFFCURVE",
"589 627 OFFCURVE",
"589 558 CURVE SMOOTH",
"589 547 OFFCURVE",
"588 536 OFFCURVE",
"585 525 CURVE",
"622 418 LINE",
"746 761 LINE",
"659 831 OFFCURVE",
"594 861 OFFCURVE",
"512 861 CURVE SMOOTH",
"265 861 OFFCURVE",
"40 560 OFFCURVE",
"40 270 CURVE SMOOTH",
"40 88 OFFCURVE",
"127 -30 OFFCURVE",
"262 -30 CURVE SMOOTH"
);
},
{
closed = 1;
nodes = (
"856 572 LINE",
"862 633 LINE",
"778 758 LINE",
"750 509 LINE"
);
}
);
width = 878;
},
{
background = {
paths = (
{
closed = 1;
nodes = (
"154 531 OFFCURVE",
"274 725 OFFCURVE",
"413 725 CURVE SMOOTH",
"501 725 OFFCURVE",
"558 645 OFFCURVE",
"580 567 CURVE",
"498 181 LINE",
"440 103 OFFCURVE",
"357 31 OFFCURVE",
"284 31 CURVE SMOOTH",
"195 31 OFFCURVE",
"154 139 OFFCURVE",
"154 287 CURVE SMOOTH"
);
},
{
closed = 1;
nodes = (
"466 35 OFFCURVE",
"504 -30 OFFCURVE",
"593 -30 CURVE SMOOTH",
"675 -30 OFFCURVE",
"732 23 OFFCURVE",
"770 181 CURVE",
"767 189 LINE",
"736 196 LINE",
"728 191 LINE",
"692 50 OFFCURVE",
"655 16 OFFCURVE",
"612 16 CURVE SMOOTH",
"574 16 OFFCURVE",
"557 43 OFFCURVE",
"567 91 CURVE SMOOTH",
"619 322 OFFCURVE",
"703 727 OFFCURVE",
"721 766 CURVE",
"709 780 LINE",
"678 782 OFFCURVE",
"651 774 OFFCURVE",
"621 755 CURVE",
"594 636 LINE",
"620 595 LINE",
"595 706 OFFCURVE",
"520 780 OFFCURVE",
"415 780 CURVE SMOOTH",
"228 780 OFFCURVE",
"58 540 OFFCURVE",
"58 271 CURVE SMOOTH",
"58 81 OFFCURVE",
"142 -30 OFFCURVE",
"262 -30 CURVE SMOOTH",
"374 -30 OFFCURVE",
"459 67 OFFCURVE",
"522 134 CURVE",
"496 169 LINE",
"486 125 LINE SMOOTH"
);
}
);
};
layerId = "34301EF7-A2BE-469F-9697-D6100B11FDFE";
paths = (
{
closed = 1;
nodes = (
"149 535 OFFCURVE",
"282 723 OFFCURVE",
"421 723 CURVE SMOOTH",
"509 723 OFFCURVE",
"563 645 OFFCURVE",
"584 564 CURVE",
"505 185 LINE",
"445 103 OFFCURVE",
"365 34 OFFCURVE",
"290 34 CURVE SMOOTH",
"203 34 OFFCURVE",
"149 123 OFFCURVE",
"149 284 CURVE SMOOTH"
);
},
{
closed = 1;
nodes = (
"715 780 LINE",
"685 781 OFFCURVE",
"656 773 OFFCURVE",
"626 754 CURVE",
"599 636 LINE",
"620 590 LINE",
"600 708 OFFCURVE",
"515 780 OFFCURVE",
"415 780 CURVE SMOOTH",
"233 780 OFFCURVE",
"56 532 OFFCURVE",
"56 263 CURVE SMOOTH",
"56 73 OFFCURVE",
"147 -30 OFFCURVE",
"268 -30 CURVE SMOOTH",
"379 -30 OFFCURVE",
"464 67 OFFCURVE",
"526 143 CURVE",
"506 176 LINE",
"449 -86 LINE SMOOTH",
"412 -258 OFFCURVE",
"350 -379 OFFCURVE",
"231 -379 CURVE SMOOTH",
"169 -379 OFFCURVE",
"144 -347 OFFCURVE",
"110 -312 CURVE",
"135 -367 LINE",
"133 -279 OFFCURVE",
"90 -198 OFFCURVE",
"27 -198 CURVE SMOOTH",
"-6 -198 OFFCURVE",
"-28 -222 OFFCURVE",
"-28 -259 CURVE SMOOTH",
"-28 -340 OFFCURVE",
"67 -424 OFFCURVE",
"218 -424 CURVE SMOOTH",
"353 -424 OFFCURVE",
"478 -354 OFFCURVE",
"545 -48 CURVE SMOOTH",
"603 217 OFFCURVE",
"712 723 OFFCURVE",
"727 766 CURVE"
);
}
);
width = 707;
},
{
background = {
paths = (
{
closed = 1;
nodes = (
"536 291 OFFCURVE",
"691 410 OFFCURVE",
"722 558 CURVE SMOOTH",
"758 726 OFFCURVE",
"636 851 OFFCURVE",
"465 851 CURVE SMOOTH",
"295 851 OFFCURVE",
"131 731 OFFCURVE",
"100 584 CURVE SMOOTH",
"64 415 OFFCURVE",
"194 291 OFFCURVE",
"365 291 CURVE SMOOTH"
);
},
{
closed = 1;
nodes = (
"268 383 OFFCURVE",
"238 490 OFFCURVE",
"259 587 CURVE SMOOTH",
"279 682 OFFCURVE",
"346 759 OFFCURVE",
"450 759 CURVE SMOOTH",
"567 759 OFFCURVE",
"595 653 OFFCURVE",
"574 558 CURVE SMOOTH",
"554 463 OFFCURVE",
"489 383 OFFCURVE",
"383 383 CURVE SMOOTH"
);
},
{
closed = 1;
nodes = (
"888 711 LINE",
"913 835 LINE",
"899 851 LINE",
"615 808 LINE",
"606 711 LINE"
);
},
{
closed = 1;
nodes = (
"216 82 LINE",
"64 -7 LINE SMOOTH",
"-56 -82 OFFCURVE",
"-109 -148 OFFCURVE",
"-124 -219 CURVE SMOOTH",
"-150 -341 OFFCURVE",
"-67 -424 OFFCURVE",
"169 -424 CURVE SMOOTH",
"437 -424 OFFCURVE",
"618 -324 OFFCURVE",
"650 -171 CURVE SMOOTH",
"675 -53 OFFCURVE",
"608 18 OFFCURVE",
"486 62 CURVE SMOOTH",
"344 114 LINE SMOOTH",
"304 129 OFFCURVE",
"282 134 OFFCURVE",
"288 162 CURVE SMOOTH",
"293 186 OFFCURVE",
"307 209 OFFCURVE",
"383 294 CURVE",
"314 337 LINE",
"207 236 OFFCURVE",
"149 177 OFFCURVE",
"137 121 CURVE SMOOTH",
"126 66 OFFCURVE",
"146 -1 OFFCURVE",
"227 -28 CURVE SMOOTH",
"340 -65 LINE SMOOTH",
"485 -113 OFFCURVE",
"516 -140 OFFCURVE",
"508 -178 CURVE SMOOTH",
"491 -256 OFFCURVE",
"367 -322 OFFCURVE",
"189 -322 CURVE SMOOTH",
"33 -322 OFFCURVE",
"1 -275 OFFCURVE",
"15 -213 CURVE SMOOTH",
"31 -137 OFFCURVE",
"94 -65 OFFCURVE",
"267 24 CURVE"
);
}
);
};
layerId = "CFF67ECA-3B2D-433B-B605-F38590C8F106";
paths = (
{
closed = 1;
nodes = (
"334 -30 OFFCURVE",
"507 176 OFFCURVE",
"629 478 CURVE",
"607 639 LINE",
"524 250 OFFCURVE",
"297 99 OFFCURVE",
"233 99 CURVE SMOOTH",
"190 99 OFFCURVE",
"179 205 OFFCURVE",
"179 266 CURVE SMOOTH",
"179 434 OFFCURVE",
"271 732 OFFCURVE",
"442 732 CURVE SMOOTH",
"494 732 OFFCURVE",
"553 697 OFFCURVE",
"647 619 CURVE",
"681 761 LINE",
"605 821 OFFCURVE",
"549 851 OFFCURVE",
"479 851 CURVE SMOOTH",
"247 851 OFFCURVE",
"45 487 OFFCURVE",
"45 198 CURVE SMOOTH",
"45 80 OFFCURVE",
"80 -30 OFFCURVE",
"189 -30 CURVE SMOOTH"
);
},
{
closed = 1;
nodes = (
"-44 -358 LINE",
"105 -412 OFFCURVE",
"181 -424 OFFCURVE",
"232 -424 CURVE SMOOTH",
"386 -424 OFFCURVE",
"529 -320 OFFCURVE",
"569 -131 CURVE SMOOTH",
"772 821 LINE",
"736 851 LINE",
"638 787 LINE",
"427 -211 LINE SMOOTH",
"409 -296 OFFCURVE",
"358 -328 OFFCURVE",
"287 -328 CURVE SMOOTH",
"232 -328 OFFCURVE",
"164 -308 OFFCURVE",
"29 -230 CURVE",
"8 -230 LINE",
"-44 -338 LINE"
);
},
{
closed = 1;
nodes = (
"801 625 LINE",
"807 660 LINE",
"723 732 LINE",
"695 589 LINE"
);
}
);
width = 805;
}
);
leftMetricsKey = a;
note = ss03;
unicode = 0067;
},
{
glyphname = h;
lastChange = "2020-03-10 17:21:42 +0000";
layers = (
{
layerId = "6B6AD122-EF8D-49FE-8C69-4BDE8C56BDD8";
paths = (
{
closed = 1;
nodes = (
"905 209 LINE",
"861 260 LINE",
"847 260 LINE",
"786 205 OFFCURVE",
"765 200 OFFCURVE",
"744 200 CURVE SMOOTH",
"730 200 OFFCURVE",
"730 214 OFFCURVE",
"734 230 CURVE SMOOTH",
"846 662 LINE SMOOTH",
"868 747 OFFCURVE",
"788 861 OFFCURVE",
"710 861 CURVE SMOOTH",
"610 861 OFFCURVE",
"450 788 OFFCURVE",
"267 474 CURVE",
"304 436 LINE",
"473 1208 LINE",
"406 1266 LINE",
"98 1161 LINE",
"82 1072 LINE",
"92 1059 LINE",
"302 1089 LINE",
"260 1143 LINE",
"99 365 LINE",
"0 -4 LINE",
"16 -24 LINE",
"218 12 LINE",
"248 148 LINE SMOOTH",
"328 512 OFFCURVE",
"502 683 OFFCURVE",
"595 683 CURVE SMOOTH",
"617 683 OFFCURVE",
"633 652 OFFCURVE",
"629 636 CURVE SMOOTH",
"504 129 LINE SMOOTH",
"489 67 OFFCURVE",
"576 -30 OFFCURVE",
"631 -30 CURVE SMOOTH",
"733 -30 OFFCURVE",
"850 106 OFFCURVE",
"905 195 CURVE"
);
}
);
width = 962;
},
{
layerId = "34301EF7-A2BE-469F-9697-D6100B11FDFE";
paths = (
{
closed = 1;
nodes = (
"346 683 OFFCURVE",
"418 711 OFFCURVE",
"486 711 CURVE SMOOTH",
"565 711 OFFCURVE",
"610 658 OFFCURVE",
"582 532 CURVE SMOOTH",
"492 124 LINE SMOOTH",
"474 44 OFFCURVE",
"508 -30 OFFCURVE",
"597 -30 CURVE SMOOTH",
"679 -30 OFFCURVE",
"736 23 OFFCURVE",
"774 181 CURVE",
"771 189 LINE",
"740 196 LINE",
"732 191 LINE",
"696 50 OFFCURVE",
"659 16 OFFCURVE",
"616 16 CURVE SMOOTH",
"578 16 OFFCURVE",
"560 43 OFFCURVE",
"571 91 CURVE SMOOTH",
"672 531 LINE SMOOTH",
"711 700 OFFCURVE",
"621 780 OFFCURVE",
"509 780 CURVE SMOOTH",
"423 780 OFFCURVE",
"328 734 OFFCURVE",
"215 578 CURVE",
"252 571 LINE"
);
},
{
closed = 1;
nodes = (
"218 417 OFFCURVE",
"382 1190 OFFCURVE",
"401 1254 CURVE",
"388 1266 LINE",
"124 1192 LINE",
"117 1149 LINE",
"126 1145 LINE",
"334 1173 LINE",
"286 1177 LINE",
"277 1123 OFFCURVE",
"228 873 OFFCURVE",
"174 617 CURVE SMOOTH",
"51 41 OFFCURVE",
"37 1 OFFCURVE",
"30 -13 CURVE",
"42 -27 LINE",
"75 -25 OFFCURVE",
"102 -17 OFFCURVE",
"129 -1 CURVE"
);
}
);
width = 809;
},
{
layerId = "CFF67ECA-3B2D-433B-B605-F38590C8F106";
paths = (
{
closed = 1;
nodes = (
"177 15 LINE",
"254 373 LINE",
"452 1236 LINE",
"416 1266 LINE",
"85 1141 LINE",
"79 1081 LINE",
"95 1067 LINE",
"349 1116 LINE",
"305 1167 LINE",
"75 122 LINE",
"19 0 LINE",
"48 -30 LINE"
);
},
{
closed = 1;
nodes = (
"882 255 LINE",
"849 292 LINE",
"840 292 LINE",
"776 205 OFFCURVE",
"730 135 OFFCURVE",
"691 135 CURVE SMOOTH",
"683 135 OFFCURVE",
"679 140 OFFCURVE",
"679 149 CURVE SMOOTH",
"679 154 OFFCURVE",
"680 159 OFFCURVE",
"681 165 CURVE SMOOTH",
"783 583 LINE SMOOTH",
"825 753 OFFCURVE",
"749 851 OFFCURVE",
"633 851 CURVE SMOOTH",
"475 851 OFFCURVE",
"353 672 OFFCURVE",
"141 160 CURVE",
"174 125 LINE",
"406 633 OFFCURVE",
"508 727 OFFCURVE",
"577 727 CURVE SMOOTH",
"635 727 OFFCURVE",
"674 662 OFFCURVE",
"654 579 CURVE SMOOTH",
"532 85 LINE SMOOTH",
"516 21 OFFCURVE",
"571 -30 OFFCURVE",
"609 -30 CURVE SMOOTH",
"704 -30 OFFCURVE",
"814 115 OFFCURVE",
"882 247 CURVE"
);
}
);
width = 932;
}
);
leftMetricsKey = l;
rightMetricsKey = n;
unicode = 0068;
},
{
glyphname = i;
lastChange = "2020-03-10 12:57:22 +0000";
layers = (
{
background = {
hints = (
{
origin = "{0, 0}";
scale = "{0.96, 0.96}";
type = Corner;
name = _corner.RightSerif;
},
{
origin = "{0, 6}";
scale = "{0.96, 0.96}";
type = Corner;
name = _corner.LeftSerif;
}
);
paths = (
{
closed = 1;
nodes = (
"272 0 LINE",
"449 844 LINE",
"433 861 LINE",
"145 755 LINE",
"138 705 LINE",
"171 625 LINE",
"36 0 LINE"
);
},
{
closed = 1;
nodes = (
"449 975 OFFCURVE",
"521 1031 OFFCURVE",
"535 1096 CURVE SMOOTH",
"552 1179 OFFCURVE",
"497 1256 OFFCURVE",
"406 1256 CURVE SMOOTH",
"328 1256 OFFCURVE",
"255 1199 OFFCURVE",
"241 1136 CURVE SMOOTH",
"223 1051 OFFCURVE",
"280 975 OFFCURVE",
"371 975 CURVE SMOOTH"
);
}
);
};
layerId = "6B6AD122-EF8D-49FE-8C69-4BDE8C56BDD8";
leftMetricsKey = "=n-5";
paths = (
{
closed = 1;
nodes = (
"440 975 OFFCURVE",
"503 1031 OFFCURVE",
"515 1096 CURVE SMOOTH",
"530 1179 OFFCURVE",
"482 1256 OFFCURVE",
"402 1256 CURVE SMOOTH",
"333 1256 OFFCURVE",
"269 1199 OFFCURVE",
"257 1136 CURVE SMOOTH",
"241 1051 OFFCURVE",
"291 975 OFFCURVE",
"371 975 CURVE SMOOTH"
);
},
{
closed = 1;
nodes = (
"58 67 OFFCURVE",
"144 -30 OFFCURVE",
"199 -30 CURVE SMOOTH",
"301 -30 OFFCURVE",
"418 106 OFFCURVE",
"473 195 CURVE",
"473 209 LINE",
"429 260 LINE",
"415 260 LINE",
"354 205 OFFCURVE",
"333 200 OFFCURVE",
"312 200 CURVE SMOOTH",
"302 200 OFFCURVE",
"297 209 OFFCURVE",
"300 223 CURVE SMOOTH",
"432 803 LINE",
"365 861 LINE",
"57 756 LINE",
"41 667 LINE",
"51 654 LINE",
"261 684 LINE",
"210 738 LINE",
"72 129 LINE SMOOTH"
);
}
);
width = 530;
},
{
background = {
paths = (
{
closed = 1;
nodes = (
"384 1007 OFFCURVE",
"428 1044 OFFCURVE",
"437 1087 CURVE SMOOTH",
"448 1139 OFFCURVE",
"416 1185 OFFCURVE",
"372 1185 CURVE SMOOTH",
"330 1185 OFFCURVE",
"288 1149 OFFCURVE",
"279 1105 CURVE SMOOTH",
"269 1054 OFFCURVE",
"298 1007 OFFCURVE",
"345 1007 CURVE SMOOTH"
);
},
{
closed = 1;
nodes = (
"347 768 LINE",
"334 780 LINE",
"41 645 LINE",
"34 602 LINE",
"43 598 LINE",
"285 687 LINE",
"243 701 LINE",
"121 134 LINE SMOOTH",
"99 30 OFFCURVE",
"149 -30 OFFCURVE",
"218 -30 CURVE SMOOTH",
"219 -30 LINE SMOOTH",
"283 -30 OFFCURVE",
"341 25 OFFCURVE",
"389 108 CURVE",
"389 116 LINE",
"372 138 OFFCURVE",
"349 149 OFFCURVE",
"322 149 CURVE",
"315 144 LINE",
"296 82 OFFCURVE",
"271 11 OFFCURVE",
"225 11 CURVE SMOOTH",
"198 11 OFFCURVE",
"186 30 OFFCURVE",
"192 56 CURVE SMOOTH"
);
}
);
};
layerId = "34301EF7-A2BE-469F-9697-D6100B11FDFE";
paths = (
{
closed = 1;
nodes = (
"384 1007 OFFCURVE",
"428 1044 OFFCURVE",
"437 1087 CURVE SMOOTH",
"448 1139 OFFCURVE",
"416 1185 OFFCURVE",
"372 1185 CURVE SMOOTH",
"330 1185 OFFCURVE",
"288 1149 OFFCURVE",
"279 1105 CURVE SMOOTH",
"269 1054 OFFCURVE",
"298 1007 OFFCURVE",
"345 1007 CURVE SMOOTH"
);
},
{
closed = 1;
nodes = (
"313 618 LINE SMOOTH",
"335 717 OFFCURVE",
"296 780 OFFCURVE",
"207 780 CURVE SMOOTH",
"125 780 OFFCURVE",
"67 727 OFFCURVE",
"36 566 CURVE",
"39 558 LINE",
"69 554 LINE",
"77 559 LINE",
"106 700 OFFCURVE",
"144 734 OFFCURVE",
"187 734 CURVE SMOOTH",
"225 734 OFFCURVE",
"244 707 OFFCURVE",
"234 659 CURVE SMOOTH",
"121 134 LINE SMOOTH",
"102 44 OFFCURVE",
"135 -30 OFFCURVE",
"229 -30 CURVE SMOOTH",
"309 -30 OFFCURVE",
"363 23 OFFCURVE",
"401 181 CURVE",
"398 189 LINE",
"367 196 LINE",
"359 191 LINE",
"323 50 OFFCURVE",
"286 16 OFFCURVE",
"243 16 CURVE SMOOTH",
"205 16 OFFCURVE",
"188 43 OFFCURVE",
"198 91 CURVE SMOOTH"
);
}
);
width = 432;
},
{
background = {
hints = (
{
origin = "{0, 0}";
type = Corner;
name = _corner.RightSerif;
},
{
origin = "{0, 6}";
type = Corner;
name = _corner.LeftSerif;
}
);
paths = (
{
closed = 1;
nodes = (
"319 0 LINE",
"319 839 LINE",
"295 851 LINE",
"51 765 LINE",
"51 714 LINE",
"169 669 LINE",
"169 0 LINE"
);
},
{
closed = 1;
nodes = (
"301 973 OFFCURVE",
"353 1023 OFFCURVE",
"353 1080 CURVE SMOOTH",
"353 1136 OFFCURVE",
"301 1185 OFFCURVE",
"239 1185 CURVE SMOOTH",
"175 1185 OFFCURVE",
"124 1136 OFFCURVE",
"124 1080 CURVE SMOOTH",
"124 1023 OFFCURVE",
"175 973 OFFCURVE",
"239 973 CURVE SMOOTH"
);
}
);
};
layerId = "CFF67ECA-3B2D-433B-B605-F38590C8F106";
paths = (
{
closed = 1;
nodes = (
"415 973 OFFCURVE",
"469 1017 OFFCURVE",
"480 1067 CURVE SMOOTH",
"494 1130 OFFCURVE",
"451 1185 OFFCURVE",
"394 1185 CURVE SMOOTH",
"345 1185 OFFCURVE",
"293 1142 OFFCURVE",
"282 1093 CURVE SMOOTH",
"268 1029 OFFCURVE",
"309 973 OFFCURVE",
"368 973 CURVE SMOOTH"
);
},
{
closed = 1;
nodes = (
"481 257 LINE",
"449 292 LINE",
"440 292 LINE",
"351 170 OFFCURVE",
"300 135 OFFCURVE",
"279 135 CURVE SMOOTH",
"271 135 OFFCURVE",
"267 140 OFFCURVE",
"267 149 CURVE SMOOTH",
"267 154 OFFCURVE",
"268 159 OFFCURVE",
"269 165 CURVE SMOOTH",
"409 821 LINE",
"373 851 LINE",
"42 726 LINE",
"36 666 LINE",
"52 652 LINE",
"306 711 LINE",
"275 787 LINE",
"129 97 LINE SMOOTH",
"112 19 OFFCURVE",
"176 -30 OFFCURVE",
"224 -30 CURVE SMOOTH",
"293 -30 OFFCURVE",
"418 128 OFFCURVE",
"481 247 CURVE"
);
}
);
width = 531;
}
);
leftMetricsKey = n;
rightMetricsKey = n;
unicode = 0069;
},
{
glyphname = j;
lastChange = "2020-03-07 16:50:07 +0000";
layers = (
{
layerId = "6B6AD122-EF8D-49FE-8C69-4BDE8C56BDD8";
paths = (
{
closed = 1;
nodes = (
"-30 -424 LINE",
"61 -328 OFFCURVE",
"280 -95 OFFCURVE",
"326 122 CURVE SMOOTH",
"469 803 LINE",
"402 861 LINE",
"94 756 LINE",
"78 667 LINE",
"88 654 LINE",
"298 684 LINE",
"247 738 LINE",
"94 35 LINE SMOOTH",
"75 -54 OFFCURVE",
"31 -179 OFFCURVE",
"-82 -379 CURVE",
"-82 -398 LINE",
"-49 -424 LINE"
);
},
{
closed = 1;
nodes = (
"449 975 OFFCURVE",
"512 1031 OFFCURVE",
"524 1096 CURVE SMOOTH",
"539 1179 OFFCURVE",
"491 1256 OFFCURVE",
"411 1256 CURVE SMOOTH",
"342 1256 OFFCURVE",
"278 1199 OFFCURVE",
"266 1136 CURVE SMOOTH",
"250 1051 OFFCURVE",
"300 975 OFFCURVE",
"380 975 CURVE SMOOTH"
);
}
);
width = 487;
},
{
associatedMasterId = "6B6AD122-EF8D-49FE-8C69-4BDE8C56BDD8";
layerId = "C15B6B87-8A32-406C-B6EA-B2191BCD8B2B";
name = Text/Large;
paths = (
{
closed = 1;
nodes = (
"250 -420 OFFCURVE",
"434 -16 OFFCURVE",
"434 184 CURVE SMOOTH",
"434 1137 LINE",
"420 1147 LINE",
"61 1047 LINE",
"61 1016 LINE",
"281 987 LINE",
"281 102 LINE SMOOTH",
"281 -143 OFFCURVE",
"207 -315 OFFCURVE",
"113 -512 CURVE",
"162 -541 LINE"
);
},
{
closed = 1;
nodes = (
"408 1419 OFFCURVE",
"467 1475 OFFCURVE",
"467 1540 CURVE SMOOTH",
"467 1604 OFFCURVE",
"408 1659 OFFCURVE",
"338 1659 CURVE SMOOTH",
"266 1659 OFFCURVE",
"207 1604 OFFCURVE",
"207 1540 CURVE SMOOTH",
"207 1475 OFFCURVE",
"266 1419 OFFCURVE",
"338 1419 CURVE SMOOTH"
);
}
);
width = 662;
},
{
associatedMasterId = "6B6AD122-EF8D-49FE-8C69-4BDE8C56BDD8";
layerId = "C8815645-C473-45AD-B3EF-879FD1679DB8";
name = Bold/Small;
paths = (
{
closed = 1;
nodes = (
"215 -424 OFFCURVE",
"463 -98 OFFCURVE",
"463 102 CURVE SMOOTH",
"463 879 LINE",
"438 901 LINE",
"76 758 LINE",
"76 717 LINE",
"145 621 LINE",
"145 61 LINE SMOOTH",
"145 -61 OFFCURVE",
"135 -225 OFFCURVE",
"41 -494 CURVE",
"127 -545 LINE"
);
},
{
closed = 1;
nodes = (
"406 1120 OFFCURVE",
"489 1204 OFFCURVE",
"489 1298 CURVE SMOOTH",
"489 1391 OFFCURVE",
"406 1475 OFFCURVE",
"301 1475 CURVE SMOOTH",
"195 1475 OFFCURVE",
"111 1391 OFFCURVE",
"111 1298 CURVE SMOOTH",
"111 1204 OFFCURVE",
"195 1120 OFFCURVE",
"301 1120 CURVE SMOOTH"
);
}
);
width = 592;
},
{
associatedMasterId = "6B6AD122-EF8D-49FE-8C69-4BDE8C56BDD8";
layerId = "6400E7DD-72A7-4A80-ABEC-BBE29D62785D";
name = Text/Small;
paths = (
{
closed = 1;
nodes = (
"207 -420 OFFCURVE",
"391 -16 OFFCURVE",
"391 184 CURVE SMOOTH",
"391 891 LINE",
"377 901 LINE",
"41 801 LINE",
"41 770 LINE",
"238 741 LINE",
"238 102 LINE SMOOTH",
"238 -143 OFFCURVE",
"164 -315 OFFCURVE",
"70 -512 CURVE",
"119 -541 LINE"
);
},
{
closed = 1;
nodes = (
"365 1235 OFFCURVE",
"424 1290 OFFCURVE",
"424 1356 CURVE SMOOTH",
"424 1419 OFFCURVE",
"365 1475 OFFCURVE",
"295 1475 CURVE SMOOTH",
"223 1475 OFFCURVE",
"164 1419 OFFCURVE",
"164 1356 CURVE SMOOTH",
"164 1290 OFFCURVE",
"223 1235 OFFCURVE",
"295 1235 CURVE SMOOTH"
);
}
);
width = 578;
},
{
associatedMasterId = "6B6AD122-EF8D-49FE-8C69-4BDE8C56BDD8";
layerId = "221168A0-42AE-4060-A999-47FABC9AC537";
name = "new Layer";
width = 1229;
},
{
layerId = "34301EF7-A2BE-469F-9697-D6100B11FDFE";
paths = (
{
closed = 1;
nodes = (
"-172 -424 LINE",
"25 -273 OFFCURVE",
"183 -114 OFFCURVE",
"231 109 CURVE SMOOTH",
"341 618 LINE SMOOTH",
"362 717 OFFCURVE",
"324 780 OFFCURVE",
"235 780 CURVE SMOOTH",
"153 780 OFFCURVE",
"95 727 OFFCURVE",
"64 566 CURVE",
"67 558 LINE",
"97 554 LINE",
"105 559 LINE",
"134 700 OFFCURVE",
"172 734 OFFCURVE",
"215 734 CURVE SMOOTH",
"253 734 OFFCURVE",
"272 707 OFFCURVE",
"262 659 CURVE SMOOTH",
"131 60 LINE SMOOTH",
"99 -85 OFFCURVE",
"-25 -240 OFFCURVE",
"-207 -383 CURVE",
"-207 -394 LINE",
"-182 -424 LINE"
);
},
{
closed = 1;
nodes = (
"390 1007 OFFCURVE",
"434 1044 OFFCURVE",
"443 1087 CURVE SMOOTH",
"454 1139 OFFCURVE",
"422 1185 OFFCURVE",
"378 1185 CURVE SMOOTH",
"336 1185 OFFCURVE",
"294 1149 OFFCURVE",
"285 1105 CURVE SMOOTH",
"275 1054 OFFCURVE",
"304 1007 OFFCURVE",
"351 1007 CURVE SMOOTH"
);
}
);
width = 397;
},
{
background = {
paths = (
{
closed = 1;
nodes = (
"233 -222 OFFCURVE",
"322 -57 OFFCURVE",
"322 121 CURVE SMOOTH",
"322 839 LINE",
"299 851 LINE",
"53 763 LINE",
"53 714 LINE",
"171 669 LINE",
"171 42 LINE SMOOTH",
"171 -98 OFFCURVE",
"132 -220 OFFCURVE",
"41 -378 CURVE",
"41 -399 LINE",
"109 -424 LINE"
);
},
{
closed = 1;
nodes = (
"294 1005 OFFCURVE",
"345 1056 OFFCURVE",
"345 1112 CURVE SMOOTH",
"345 1168 OFFCURVE",
"294 1217 OFFCURVE",
"232 1217 CURVE SMOOTH",
"168 1217 OFFCURVE",
"117 1168 OFFCURVE",
"117 1112 CURVE SMOOTH",
"117 1056 OFFCURVE",
"168 1005 OFFCURVE",
"232 1005 CURVE SMOOTH"
);
}
);
};
layerId = "CFF67ECA-3B2D-433B-B605-F38590C8F106";
paths = (
{
closed = 1;
nodes = (
"-40 -416 LINE",
"103 -223 OFFCURVE",
"226 -61 OFFCURVE",
"267 155 CURVE SMOOTH",
"393 821 LINE",
"357 851 LINE",
"26 726 LINE",
"20 666 LINE",
"36 652 LINE",
"290 711 LINE",
"259 787 LINE",
"122 85 LINE SMOOTH",
"93 -62 OFFCURVE",
"-3 -215 OFFCURVE",
"-109 -368 CURVE",
"-109 -386 LINE",
"-58 -416 LINE"
);
},
{
closed = 1;
nodes = (
"410 973 OFFCURVE",
"464 1017 OFFCURVE",
"475 1067 CURVE SMOOTH",
"489 1130 OFFCURVE",
"446 1185 OFFCURVE",
"389 1185 CURVE SMOOTH",
"340 1185 OFFCURVE",
"288 1142 OFFCURVE",
"277 1093 CURVE SMOOTH",
"263 1029 OFFCURVE",
"304 973 OFFCURVE",
"363 973 CURVE SMOOTH"
);
}
);
width = 435;
}
);
unicode = 006A;
},
{
glyphname = k;
lastChange = "2020-03-11 11:15:47 +0000";
layers = (
{
background = {
paths = (
{
closed = 1;
nodes = (
"824 861 LINE",
"606 861 OFFCURVE",
"413 605 OFFCURVE",
"239 368 CURVE",
"217 252 LINE",
"347 417 OFFCURVE",
"568 610 OFFCURVE",
"689 610 CURVE SMOOTH",
"713 610 OFFCURVE",
"738 600 OFFCURVE",
"766 583 CURVE",
"817 605 LINE",
"863 831 LINE"
);
}
);
};
layerId = "6B6AD122-EF8D-49FE-8C69-4BDE8C56BDD8";
paths = (
{
closed = 1;
nodes = (
"473 1208 LINE",
"406 1266 LINE",
"98 1161 LINE",
"82 1072 LINE",
"92 1059 LINE",
"302 1089 LINE",
"260 1143 LINE",
"99 365 LINE",
"0 -4 LINE",
"16 -24 LINE",
"222 12 LINE"
);
},
{
closed = 1;
nodes = (
"673 -30 OFFCURVE",
"780 97 OFFCURVE",
"825 166 CURVE",
"825 180 LINE",
"781 231 LINE",
"767 231 LINE",
"715 188 OFFCURVE",
"697 175 OFFCURVE",
"678 175 CURVE SMOOTH",
"660 175 OFFCURVE",
"644 188 OFFCURVE",
"634 216 CURVE SMOOTH",
"503 582 LINE",
"351 423 LINE",
"489 36 LINE SMOOTH",
"499 7 OFFCURVE",
"586 -30 OFFCURVE",
"605 -30 CURVE SMOOTH"
);
},
{
closed = 1;
nodes = (
"804 657 LINE",
"831 672 LINE",
"875 815 LINE",
"866 838 LINE",
"814 855 OFFCURVE",
"781 861 OFFCURVE",
"740 861 CURVE SMOOTH",
"605 861 OFFCURVE",
"530 764 OFFCURVE",
"192 297 CURVE",
"211 219 LINE",
"527 640 OFFCURVE",
"591 657 OFFCURVE",
"680 657 CURVE SMOOTH"
);
}
);
width = 848;
},
{
background = {
paths = (
{
closed = 1;
nodes = (
"75 -25 OFFCURVE",
"104 -17 OFFCURVE",
"131 -1 CURVE",
"247 544 LINE",
"398 1254 LINE",
"385 1266 LINE",
"124 1192 LINE",
"117 1149 LINE",
"126 1145 LINE",
"334 1173 LINE",
"286 1177 LINE",
"277 1123 OFFCURVE",
"228 873 OFFCURVE",
"174 617 CURVE SMOOTH",
"51 41 OFFCURVE",
"37 1 OFFCURVE",
"30 -13 CURVE",
"42 -27 LINE"
);
},
{
closed = 1;
nodes = (
"547 226 LINE SMOOTH",
"553 253 OFFCURVE",
"558 286 OFFCURVE",
"558 312 CURVE SMOOTH",
"558 397 OFFCURVE",
"515 458 OFFCURVE",
"374 458 CURVE SMOOTH",
"336 458 OFFCURVE",
"291 453 OFFCURVE",
"236 434 CURVE",
"246 410 LINE",
"346 535 OFFCURVE",
"442 727 OFFCURVE",
"582 727 CURVE",
"532 745 LINE",
"562 673 OFFCURVE",
"611 626 OFFCURVE",
"662 626 CURVE SMOOTH",
"690 626 OFFCURVE",
"722 642 OFFCURVE",
"722 677 CURVE SMOOTH",
"722 736 OFFCURVE",
"673 780 OFFCURVE",
"601 780 CURVE SMOOTH",
"439 780 OFFCURVE",
"322 594 OFFCURVE",
"224 444 CURVE",
"206 436 LINE",
"181 293 LINE",
"238 412 OFFCURVE",
"312 423 OFFCURVE",
"352 423 CURVE SMOOTH",
"446 423 OFFCURVE",
"470 381 OFFCURVE",
"470 326 CURVE SMOOTH",
"470 288 OFFCURVE",
"458 243 OFFCURVE",
"450 202 CURVE SMOOTH",
"435 124 LINE SMOOTH",
"419 43 OFFCURVE",
"451 -30 OFFCURVE",
"540 -30 CURVE SMOOTH",
"622 -30 OFFCURVE",
"679 23 OFFCURVE",
"717 181 CURVE",
"714 189 LINE",
"683 196 LINE",
"675 191 LINE",
"639 50 OFFCURVE",
"602 16 OFFCURVE",
"559 16 CURVE SMOOTH",
"521 16 OFFCURVE",
"506 43 OFFCURVE",
"517 91 CURVE SMOOTH"
);
}
);
};
layerId = "34301EF7-A2BE-469F-9697-D6100B11FDFE";
paths = (
{
closed = 1;
nodes = (
"75 -25 OFFCURVE",
"104 -17 OFFCURVE",
"131 -1 CURVE",
"247 544 LINE",
"398 1254 LINE",
"385 1266 LINE",
"124 1192 LINE",
"117 1149 LINE",
"126 1145 LINE",
"334 1173 LINE",
"286 1177 LINE",
"277 1123 OFFCURVE",
"228 873 OFFCURVE",
"174 617 CURVE SMOOTH",
"51 41 OFFCURVE",
"37 1 OFFCURVE",
"30 -13 CURVE",
"42 -27 LINE"
);
},
{
closed = 1;
nodes = (
"242 425 LINE",
"497 425 OFFCURVE",
"335 -30 OFFCURVE",
"544 -30 CURVE SMOOTH",
"621 -30 OFFCURVE",
"679 23 OFFCURVE",
"697 181 CURVE",
"694 189 LINE",
"663 196 LINE",
"655 191 LINE",
"639 50 OFFCURVE",
"602 16 OFFCURVE",
"559 16 CURVE SMOOTH",
"455 16 OFFCURVE",
"574 458 OFFCURVE",
"244 458 CURVE"
);
},
{
closed = 1;
nodes = (
"195 315 LINE",
"336 535 OFFCURVE",
"432 725 OFFCURVE",
"582 725 CURVE",
"532 745 LINE",
"562 673 OFFCURVE",
"611 626 OFFCURVE",
"662 626 CURVE SMOOTH",
"690 626 OFFCURVE",
"722 641 OFFCURVE",
"722 683 CURVE SMOOTH",
"722 735 OFFCURVE",
"673 780 OFFCURVE",
"596 780 CURVE SMOOTH",
"439 780 OFFCURVE",
"314 594 OFFCURVE",
"193 374 CURVE",
"181 366 LINE",
"171 253 LINE"
);
}
);
width = 764;
},
{
background = {
paths = (
{
closed = 1;
nodes = (
"182 15 LINE",
"452 1236 LINE",
"416 1266 LINE",
"85 1141 LINE",
"79 1081 LINE",
"95 1067 LINE",
"349 1116 LINE",
"305 1167 LINE",
"75 122 LINE",
"22 0 LINE",
"48 -30 LINE"
);
},
{
closed = 1;
nodes = (
"437 514 LINE",
"349 423 LINE",
"529 17 LINE SMOOTH",
"544 -17 OFFCURVE",
"594 -30 OFFCURVE",
"633 -30 CURVE SMOOTH",
"682 -30 OFFCURVE",
"770 95 OFFCURVE",
"844 200 CURVE",
"844 208 LINE",
"811 245 LINE",
"802 245 LINE",
"732 179 OFFCURVE",
"668 123 OFFCURVE",
"629 123 CURVE SMOOTH",
"613 123 OFFCURVE",
"604 131 OFFCURVE",
"599 143 CURVE SMOOTH"
);
},
{
closed = 1;
nodes = (
"822 851 LINE",
"604 851 OFFCURVE",
"411 595 OFFCURVE",
"237 358 CURVE",
"215 242 LINE",
"345 407 OFFCURVE",
"566 674 OFFCURVE",
"677 674 CURVE SMOOTH",
"777 674 LINE",
"814 692 LINE",
"847 824 LINE"
);
}
);
};
layerId = "CFF67ECA-3B2D-433B-B605-F38590C8F106";
paths = (
{
closed = 1;
nodes = (
"182 15 LINE",
"452 1236 LINE",
"416 1266 LINE",
"85 1141 LINE",
"79 1081 LINE",
"95 1067 LINE",
"349 1116 LINE",
"305 1167 LINE",
"75 122 LINE",
"22 0 LINE",
"48 -30 LINE"
);
},
{
closed = 1;
nodes = (
"437 514 LINE",
"349 423 LINE",
"529 17 LINE SMOOTH",
"544 -17 OFFCURVE",
"594 -30 OFFCURVE",
"633 -30 CURVE SMOOTH",
"682 -30 OFFCURVE",
"770 95 OFFCURVE",
"844 200 CURVE",
"844 208 LINE",
"811 245 LINE",
"802 245 LINE",
"732 179 OFFCURVE",
"668 123 OFFCURVE",
"629 123 CURVE SMOOTH",
"613 123 OFFCURVE",
"604 131 OFFCURVE",
"599 143 CURVE SMOOTH"
);
},
{
closed = 1;
nodes = (
"810 683 LINE",
"832 696 LINE",
"868 813 LINE",
"861 832 LINE",
"818 846 OFFCURVE",
"786 851 OFFCURVE",
"753 851 CURVE SMOOTH",
"608 851 OFFCURVE",
"483 699 OFFCURVE",
"192 297 CURVE",
"211 202 LINE",
"544 664 OFFCURVE",
"611 683 OFFCURVE",
"690 683 CURVE SMOOTH"
);
}
);
width = 849;
}
);
leftMetricsKey = l;
unicode = 006B;
},
{
glyphname = l;
lastChange = "2020-03-10 12:58:15 +0000";
layers = (
{
layerId = "6B6AD122-EF8D-49FE-8C69-4BDE8C56BDD8";
paths = (
{
closed = 1;
nodes = (
"24 67 OFFCURVE",
"109 -30 OFFCURVE",
"164 -30 CURVE SMOOTH",
"266 -30 OFFCURVE",
"383 106 OFFCURVE",
"438 195 CURVE",
"438 209 LINE",
"394 260 LINE",
"380 260 LINE",
"319 205 OFFCURVE",
"298 200 OFFCURVE",
"277 200 CURVE SMOOTH",
"267 200 OFFCURVE",
"262 209 OFFCURVE",
"265 223 CURVE SMOOTH",
"473 1208 LINE",
"406 1266 LINE",
"98 1161 LINE",
"82 1072 LINE",
"92 1059 LINE",
"302 1089 LINE",
"251 1143 LINE",
"37 129 LINE SMOOTH"
);
}
);
width = 490;
},
{
layerId = "34301EF7-A2BE-469F-9697-D6100B11FDFE";
paths = (
{
closed = 1;
nodes = (
"138 44 OFFCURVE",
"156 16 OFFCURVE",
"194 16 CURVE SMOOTH",
"237 16 OFFCURVE",
"274 50 OFFCURVE",
"310 191 CURVE",
"318 196 LINE",
"349 189 LINE",
"352 181 LINE",
"314 23 OFFCURVE",
"257 -30 OFFCURVE",
"175 -30 CURVE SMOOTH",
"86 -30 OFFCURVE",
"54 43 OFFCURVE",
"72 134 CURVE SMOOTH",
"76 154 LINE SMOOTH",
"107 311 OFFCURVE",
"282 1142 OFFCURVE",
"290 1187 CURVE",
"336 1173 LINE",
"126 1145 LINE",
"117 1149 LINE",
"124 1192 LINE",
"394 1266 LINE",
"405 1254 LINE",
"379 1177 OFFCURVE",
"158 149 OFFCURVE",
"150 108 CURVE SMOOTH",
"147 92 LINE SMOOTH"
);
}
);
width = 387;
},
{
background = {
hints = (
{
origin = "{0, 4}";
type = Corner;
name = _corner.LeftSerif;
},
{
origin = "{0, 5}";
type = Corner;
name = _corner.RightSerif;
}
);
paths = (
{
closed = 1;
nodes = (
"260 1266 LINE",
"16 1173 LINE",
"16 1123 LINE",
"134 1084 LINE",
"134 0 LINE",
"284 0 LINE",
"284 1254 LINE"
);
}
);
};
layerId = "CFF67ECA-3B2D-433B-B605-F38590C8F106";
paths = (
{
closed = 1;
nodes = (
"442 253 LINE",
"408 293 LINE",
"399 293 LINE",
"308 170 OFFCURVE",
"257 135 OFFCURVE",
"236 135 CURVE SMOOTH",
"228 135 OFFCURVE",
"224 140 OFFCURVE",
"224 149 CURVE SMOOTH",
"224 154 OFFCURVE",
"225 159 OFFCURVE",
"226 165 CURVE SMOOTH",
"452 1236 LINE",
"416 1266 LINE",
"85 1141 LINE",
"79 1081 LINE",
"95 1067 LINE",
"349 1126 LINE",
"306 1143 LINE",
"84 97 LINE SMOOTH",
"69 28 OFFCURVE",
"129 -30 OFFCURVE",
"187 -30 CURVE SMOOTH",
"257 -30 OFFCURVE",
"386 126 OFFCURVE",
"442 247 CURVE"
);
}
);
width = 495;
}
);
unicode = 006C;
},
{
glyphname = m;
lastChange = "2020-03-10 13:44:49 +0000";
layers = (
{
background = {
hints = (
{
origin = "{0, 0}";
scale = "{0.96, 0.96}";
type = Corner;
name = _corner.RightSerif;
},
{
origin = "{0, 15}";
scale = "{0.96, 0.96}";
type = Corner;
name = _corner.LeftSerif;
},
{
origin = "{1, 0}";
scale = "{0.96, 0.96}";
type = Corner;
name = _corner.RightSerif;
},
{
origin = "{1, 15}";
scale = "{0.96, 0.96}";
type = Corner;
name = _corner.LeftSerif;
},
{
origin = "{2, 0}";
type = Corner;
name = _corner.RightSerif;
},
{
origin = "{2, 8}";
type = Corner;
name = _corner.LeftSerif;
}
);
paths = (
{
closed = 1;
nodes = (
"1308 0 LINE",
"1430 577 LINE SMOOTH",
"1469 760 OFFCURVE",
"1386 861 OFFCURVE",
"1238 861 CURVE SMOOTH",
"1109 861 OFFCURVE",
"997 781 OFFCURVE",
"913 699 CURVE",
"902 585 LINE",
"962 640 OFFCURVE",
"1037 678 OFFCURVE",
"1104 678 CURVE SMOOTH",
"1183 678 OFFCURVE",
"1207 627 OFFCURVE",
"1183 516 CURVE SMOOTH",
"1074 0 LINE"
);
},
{
closed = 1;
nodes = (
"804 0 LINE",
"926 577 LINE SMOOTH",
"965 760 OFFCURVE",
"890 861 OFFCURVE",
"737 861 CURVE SMOOTH",
"596 861 OFFCURVE",
"491 775 OFFCURVE",
"407 685 CURVE",
"397 585 LINE",
"457 640 OFFCURVE",
"533 678 OFFCURVE",
"600 678 CURVE SMOOTH",
"679 678 OFFCURVE",
"703 627 OFFCURVE",
"679 516 CURVE SMOOTH",
"570 0 LINE"
);
},
{
closed = 1;
nodes = (
"298 0 LINE",
"439 666 LINE",
"445 699 LINE",
"438 861 LINE",
"391 861 LINE",
"175 774 LINE",
"168 722 LINE",
"201 638 LINE",
"63 0 LINE"
);
}
);
};
layerId = "6B6AD122-EF8D-49FE-8C69-4BDE8C56BDD8";
paths = (
{
closed = 1;
nodes = (
"880 662 LINE SMOOTH",
"902 747 OFFCURVE",
"822 861 OFFCURVE",
"726 861 CURVE SMOOTH",
"634 861 OFFCURVE",
"475 758 OFFCURVE",
"315 464 CURVE",
"356 436 LINE",
"443 803 LINE",
"382 861 LINE",
"62 756 LINE",
"46 667 LINE",
"56 654 LINE",
"331 683 LINE",
"239 718 LINE",
"155 365 LINE",
"44 -4 LINE",
"60 -24 LINE",
"262 12 LINE",
"292 148 LINE SMOOTH",
"372 512 OFFCURVE",
"536 683 OFFCURVE",
"629 683 CURVE SMOOTH",
"651 683 OFFCURVE",
"667 654 OFFCURVE",
"663 636 CURVE SMOOTH",
"600 365 LINE",
"489 -4 LINE",
"505 -24 LINE",
"707 12 LINE",
"737 148 LINE SMOOTH",
"817 512 OFFCURVE",
"985 683 OFFCURVE",
"1078 683 CURVE SMOOTH",
"1100 683 OFFCURVE",
"1117 654 OFFCURVE",
"1112 636 CURVE SMOOTH",
"974 129 LINE SMOOTH",
"957 67 OFFCURVE",
"1046 -30 OFFCURVE",
"1101 -30 CURVE SMOOTH",
"1203 -30 OFFCURVE",
"1320 106 OFFCURVE",
"1375 195 CURVE",
"1375 209 LINE",
"1331 260 LINE",
"1317 260 LINE",
"1256 205 OFFCURVE",
"1235 200 OFFCURVE",
"1214 200 CURVE SMOOTH",
"1200 200 OFFCURVE",
"1199 214 OFFCURVE",
"1204 230 CURVE SMOOTH",
"1329 662 LINE SMOOTH",
"1353 746 OFFCURVE",
"1281 861 OFFCURVE",
"1183 861 CURVE SMOOTH",
"1093 861 OFFCURVE",
"953 758 OFFCURVE",
"760 464 CURVE",
"822 439 LINE"
);
}
);
width = 1432;
},
{
background = {
paths = (
{
closed = 1;
nodes = (
"832 634 LINE SMOOTH",
"845 694 OFFCURVE",
"768 780 OFFCURVE",
"698 780 CURVE SMOOTH",
"637 780 OFFCURVE",
"532 714 OFFCURVE",
"359 578 CURVE",
"369 528 LINE",
"552 669 OFFCURVE",
"628 703 OFFCURVE",
"663 703 CURVE SMOOTH",
"690 703 OFFCURVE",
"747 661 OFFCURVE",
"738 619 CURVE SMOOTH",
"632 122 LINE",
"590 -1 LINE",
"602 -15 LINE",
"698 10 LINE"
);
},
{
closed = 1;
nodes = (
"135 598 LINE",
"377 687 LINE",
"335 701 LINE",
"213 122 LINE",
"171 -1 LINE",
"183 -15 LINE",
"281 11 LINE",
"439 768 LINE",
"426 780 LINE",
"133 645 LINE",
"126 602 LINE"
);
},
{
closed = 1;
nodes = (
"1253 634 LINE SMOOTH",
"1266 694 OFFCURVE",
"1189 780 OFFCURVE",
"1119 780 CURVE SMOOTH",
"1058 780 OFFCURVE",
"953 714 OFFCURVE",
"780 578 CURVE",
"790 528 LINE",
"973 669 OFFCURVE",
"1049 703 OFFCURVE",
"1084 703 CURVE SMOOTH",
"1111 703 OFFCURVE",
"1168 661 OFFCURVE",
"1159 619 CURVE SMOOTH",
"1039 60 LINE SMOOTH",
"1033 31 OFFCURVE",
"1088 -30 OFFCURVE",
"1120 -30 CURVE SMOOTH",
"1121 -30 LINE SMOOTH",
"1165 -30 OFFCURVE",
"1245 25 OFFCURVE",
"1358 114 CURVE",
"1358 126 LINE",
"1346 149 LINE",
"1334 149 LINE",
"1230 82 OFFCURVE",
"1162 45 OFFCURVE",
"1145 45 CURVE SMOOTH",
"1133 45 OFFCURVE",
"1128 57 OFFCURVE",
"1130 68 CURVE SMOOTH"
);
}
);
};
layerId = "34301EF7-A2BE-469F-9697-D6100B11FDFE";
paths = (
{
closed = 1;
nodes = (
"721 571 LINE",
"805 673 OFFCURVE",
"887 711 OFFCURVE",
"951 711 CURVE SMOOTH",
"1026 711 OFFCURVE",
"1071 658 OFFCURVE",
"1043 532 CURVE SMOOTH",
"953 124 LINE SMOOTH",
"935 44 OFFCURVE",
"969 -30 OFFCURVE",
"1058 -30 CURVE SMOOTH",
"1140 -30 OFFCURVE",
"1197 23 OFFCURVE",
"1235 181 CURVE",
"1232 189 LINE",
"1201 196 LINE",
"1193 191 LINE",
"1157 50 OFFCURVE",
"1120 16 OFFCURVE",
"1077 16 CURVE SMOOTH",
"1039 16 OFFCURVE",
"1021 43 OFFCURVE",
"1032 91 CURVE SMOOTH",
"1133 531 LINE SMOOTH",
"1172 700 OFFCURVE",
"1082 780 OFFCURVE",
"974 780 CURVE SMOOTH",
"892 780 OFFCURVE",
"797 734 OFFCURVE",
"684 583 CURVE"
);
},
{
closed = 1;
nodes = (
"521 -15 LINE",
"551 -16 OFFCURVE",
"578 -8 OFFCURVE",
"608 11 CURVE",
"717 531 LINE SMOOTH",
"752 700 OFFCURVE",
"666 780 OFFCURVE",
"558 780 CURVE SMOOTH",
"476 780 OFFCURVE",
"381 734 OFFCURVE",
"268 578 CURVE",
"292 564 LINE",
"343 700 OFFCURVE",
"313 780 OFFCURVE",
"207 780 CURVE SMOOTH",
"130 780 OFFCURVE",
"66 727 OFFCURVE",
"35 564 CURVE",
"38 556 LINE",
"68 553 LINE",
"76 558 LINE",
"105 700 OFFCURVE",
"143 732 OFFCURVE",
"186 732 CURVE SMOOTH",
"230 732 OFFCURVE",
"242 696 OFFCURVE",
"237 663 CURVE SMOOTH",
"236 657 OFFCURVE",
"104 37 OFFCURVE",
"86 -1 CURVE",
"98 -15 LINE",
"128 -16 OFFCURVE",
"157 -8 OFFCURVE",
"187 11 CURVE",
"194 58 OFFCURVE",
"270 411 OFFCURVE",
"305 571 CURVE",
"389 673 OFFCURVE",
"471 711 OFFCURVE",
"535 711 CURVE SMOOTH",
"610 711 OFFCURVE",
"655 658 OFFCURVE",
"627 532 CURVE SMOOTH",
"509 -1 LINE"
);
}
);
width = 1270;
},
{
background = {
hints = (
{
origin = "{0, 0}";
type = Corner;
name = _corner.RightSerif;
},
{
origin = "{0, 15}";
type = Corner;
name = _corner.LeftSerif;
},
{
origin = "{1, 0}";
type = Corner;
name = _corner.RightSerif;
},
{
origin = "{1, 15}";
type = Corner;
name = _corner.LeftSerif;
},
{
origin = "{2, 0}";
scale = "{1.3, 1.1}";
type = Corner;
name = _corner.RightSerif;
},
{
origin = "{2, 8}";
type = Corner;
name = _corner.LeftSerif;
}
);
paths = (
{
closed = 1;
nodes = (
"1376 0 LINE",
"1376 594 LINE SMOOTH",
"1376 740 OFFCURVE",
"1286 851 OFFCURVE",
"1128 851 CURVE SMOOTH",
"982 851 OFFCURVE",
"900 758 OFFCURVE",
"786 631 CURVE",
"803 542 LINE",
"913 654 OFFCURVE",
"979 713 OFFCURVE",
"1071 713 CURVE SMOOTH",
"1168 713 OFFCURVE",
"1225 647 OFFCURVE",
"1225 537 CURVE SMOOTH",
"1225 0 LINE"
);
},
{
closed = 1;
nodes = (
"846 0 LINE",
"846 594 LINE SMOOTH",
"846 740 OFFCURVE",
"756 851 OFFCURVE",
"598 851 CURVE SMOOTH",
"452 851 OFFCURVE",
"370 758 OFFCURVE",
"256 631 CURVE",
"273 542 LINE",
"383 654 OFFCURVE",
"449 713 OFFCURVE",
"541 713 CURVE SMOOTH",
"638 713 OFFCURVE",
"695 647 OFFCURVE",
"695 537 CURVE SMOOTH",
"695 0 LINE"
);
},
{
closed = 1;
nodes = (
"316 0 LINE",
"316 639 LINE",
"309 656 LINE",
"247 851 LINE",
"209 851 LINE",
"19 764 LINE",
"19 714 LINE",
"165 670 LINE",
"165 0 LINE"
);
}
);
};
layerId = "CFF67ECA-3B2D-433B-B605-F38590C8F106";
paths = (
{
closed = 1;
nodes = (
"373 851 LINE",
"42 726 LINE",
"36 666 LINE",
"52 652 LINE",
"306 701 LINE",
"262 752 LINE",
"127 122 LINE",
"71 0 LINE",
"100 -30 LINE",
"229 15 LINE",
"298 373 LINE",
"409 821 LINE"
);
},
{
closed = 1;
nodes = (
"1362 255 LINE",
"1329 292 LINE",
"1320 292 LINE",
"1256 205 OFFCURVE",
"1210 135 OFFCURVE",
"1171 135 CURVE SMOOTH",
"1163 135 OFFCURVE",
"1159 140 OFFCURVE",
"1159 149 CURVE SMOOTH",
"1159 154 OFFCURVE",
"1160 159 OFFCURVE",
"1161 165 CURVE SMOOTH",
"1263 583 LINE SMOOTH",
"1305 753 OFFCURVE",
"1229 851 OFFCURVE",
"1123 851 CURVE SMOOTH",
"975 851 OFFCURVE",
"853 672 OFFCURVE",
"641 160 CURVE",
"674 125 LINE",
"906 633 OFFCURVE",
"1008 727 OFFCURVE",
"1067 727 CURVE SMOOTH",
"1115 727 OFFCURVE",
"1154 662 OFFCURVE",
"1134 579 CURVE SMOOTH",
"1012 85 LINE SMOOTH",
"996 21 OFFCURVE",
"1051 -30 OFFCURVE",
"1089 -30 CURVE SMOOTH",
"1184 -30 OFFCURVE",
"1294 115 OFFCURVE",
"1362 247 CURVE"
);
},
{
closed = 1;
nodes = (
"522 0 LINE",
"539 -30 LINE",
"676 0 LINE",
"818 583 LINE SMOOTH",
"860 754 OFFCURVE",
"784 851 OFFCURVE",
"678 851 CURVE SMOOTH",
"530 851 OFFCURVE",
"408 672 OFFCURVE",
"196 160 CURVE",
"229 125 LINE",
"461 633 OFFCURVE",
"563 727 OFFCURVE",
"622 727 CURVE SMOOTH",
"670 727 OFFCURVE",
"709 662 OFFCURVE",
"689 579 CURVE SMOOTH",
"578 122 LINE"
);
}
);
width = 1412;
}
);
leftMetricsKey = n;
rightMetricsKey = n;
unicode = 006D;
},
{
glyphname = n;
lastChange = "2020-03-10 13:28:52 +0000";
layers = (
{
background = {
paths = (
{
closed = 0;
nodes = (
"292 148 LINE SMOOTH",
"372 512 OFFCURVE",
"546 683 OFFCURVE",
"639 683 CURVE SMOOTH",
"661 683 OFFCURVE",
"677 652 OFFCURVE",
"673 636 CURVE SMOOTH",
"548 129 LINE SMOOTH",
"533 67 OFFCURVE",
"620 -30 OFFCURVE",
"675 -30 CURVE SMOOTH",
"777 -30 OFFCURVE",
"894 106 OFFCURVE",
"949 195 CURVE",
"949 209 LINE",
"905 260 LINE",
"891 260 LINE",
"830 205 OFFCURVE",
"809 200 OFFCURVE",
"788 200 CURVE SMOOTH",
"774 200 OFFCURVE",
"774 214 OFFCURVE",
"778 230 CURVE SMOOTH",
"890 662 LINE SMOOTH",
"912 747 OFFCURVE",
"832 861 OFFCURVE",
"754 861 CURVE SMOOTH",
"654 861 OFFCURVE",
"508 758 OFFCURVE",
"325 434 CURVE",
"348 436 LINE"
);
}
);
};
layerId = "6B6AD122-EF8D-49FE-8C69-4BDE8C56BDD8";
paths = (
{
closed = 1;
nodes = (
"435 803 LINE",
"374 861 LINE",
"62 756 LINE",
"46 667 LINE",
"56 654 LINE",
"331 683 LINE",
"239 718 LINE",
"155 365 LINE",
"44 -4 LINE",
"60 -24 LINE",
"262 12 LINE",
"292 148 LINE SMOOTH",
"372 512 OFFCURVE",
"546 683 OFFCURVE",
"639 683 CURVE SMOOTH",
"661 683 OFFCURVE",
"677 652 OFFCURVE",
"673 636 CURVE SMOOTH",
"548 129 LINE SMOOTH",
"533 67 OFFCURVE",
"620 -30 OFFCURVE",
"675 -30 CURVE SMOOTH",
"777 -30 OFFCURVE",
"894 106 OFFCURVE",
"949 195 CURVE",
"949 209 LINE",
"905 260 LINE",
"891 260 LINE",
"830 205 OFFCURVE",
"809 200 OFFCURVE",
"788 200 CURVE SMOOTH",
"774 200 OFFCURVE",
"774 214 OFFCURVE",
"778 230 CURVE SMOOTH",
"890 662 LINE SMOOTH",
"912 747 OFFCURVE",
"828 861 OFFCURVE",
"734 861 CURVE SMOOTH",
"634 861 OFFCURVE",
"498 758 OFFCURVE",
"315 484 CURVE",
"348 436 LINE"
);
}
);
width = 1006;
},
{
annotations = (
{
position = "{1316.398, 268.12}";
type = Circle;
width = 30;
},
{
position = "{1559.119, 286.132}";
type = Circle;
width = 30;
}
);
background = {
paths = (
{
closed = 1;
nodes = (
"38 556 LINE",
"68 553 LINE",
"76 558 LINE",
"105 700 OFFCURVE",
"143 732 OFFCURVE",
"186 732 CURVE SMOOTH",
"230 732 OFFCURVE",
"242 696 OFFCURVE",
"237 663 CURVE SMOOTH",
"236 657 OFFCURVE",
"104 37 OFFCURVE",
"86 -1 CURVE",
"98 -15 LINE",
"128 -16 OFFCURVE",
"157 -8 OFFCURVE",
"187 11 CURVE",
"194 58 OFFCURVE",
"270 411 OFFCURVE",
"305 551 CURVE",
"427 673 OFFCURVE",
"490 709 OFFCURVE",
"549 709 CURVE SMOOTH",
"617 709 OFFCURVE",
"664 661 OFFCURVE",
"637 538 CURVE SMOOTH",
"547 134 LINE SMOOTH",
"524 30 OFFCURVE",
"575 -30 OFFCURVE",
"644 -30 CURVE SMOOTH",
"645 -30 LINE SMOOTH",
"709 -30 OFFCURVE",
"767 25 OFFCURVE",
"815 108 CURVE",
"815 116 LINE",
"798 138 OFFCURVE",
"775 149 OFFCURVE",
"748 149 CURVE",
"741 144 LINE",
"722 82 OFFCURVE",
"697 11 OFFCURVE",
"651 11 CURVE SMOOTH",
"624 11 OFFCURVE",
"612 30 OFFCURVE",
"618 56 CURVE SMOOTH",
"728 539 LINE SMOOTH",
"763 694 OFFCURVE",
"679 780 OFFCURVE",
"574 780 CURVE SMOOTH",
"491 780 OFFCURVE",
"416 737 OFFCURVE",
"268 558 CURVE",
"292 544 LINE",
"343 700 OFFCURVE",
"313 780 OFFCURVE",
"207 780 CURVE SMOOTH",
"130 780 OFFCURVE",
"66 727 OFFCURVE",
"35 564 CURVE"
);
}
);
};
layerId = "34301EF7-A2BE-469F-9697-D6100B11FDFE";
paths = (
{
closed = 1;
nodes = (
"725 531 LINE SMOOTH",
"764 700 OFFCURVE",
"674 780 OFFCURVE",
"562 780 CURVE SMOOTH",
"476 780 OFFCURVE",
"381 734 OFFCURVE",
"268 578 CURVE",
"292 564 LINE",
"343 700 OFFCURVE",
"313 780 OFFCURVE",
"207 780 CURVE SMOOTH",
"130 780 OFFCURVE",
"66 727 OFFCURVE",
"35 564 CURVE",
"38 556 LINE",
"68 553 LINE",
"76 558 LINE",
"105 700 OFFCURVE",
"143 732 OFFCURVE",
"186 732 CURVE SMOOTH",
"230 732 OFFCURVE",
"242 696 OFFCURVE",
"237 663 CURVE SMOOTH",
"236 657 OFFCURVE",
"104 37 OFFCURVE",
"86 -1 CURVE",
"98 -15 LINE",
"128 -16 OFFCURVE",
"157 -8 OFFCURVE",
"187 11 CURVE",
"194 58 OFFCURVE",
"270 411 OFFCURVE",
"305 571 CURVE",
"389 673 OFFCURVE",
"471 711 OFFCURVE",
"539 711 CURVE SMOOTH",
"618 711 OFFCURVE",
"663 658 OFFCURVE",
"635 532 CURVE SMOOTH",
"545 124 LINE SMOOTH",
"527 44 OFFCURVE",
"561 -30 OFFCURVE",
"650 -30 CURVE SMOOTH",
"732 -30 OFFCURVE",
"789 23 OFFCURVE",
"827 181 CURVE",
"824 189 LINE",
"793 196 LINE",
"785 191 LINE",
"749 50 OFFCURVE",
"712 16 OFFCURVE",
"669 16 CURVE SMOOTH",
"631 16 OFFCURVE",
"613 43 OFFCURVE",
"624 91 CURVE SMOOTH"
);
}
);
width = 862;
},
{
background = {
hints = (
{
origin = "{0, 0}";
type = Corner;
name = _corner.RightSerif;
},
{
origin = "{0, 15}";
type = Corner;
name = _corner.LeftSerif;
},
{
origin = "{1, 0}";
type = Corner;
name = _corner.RightSerif;
},
{
origin = "{1, 8}";
type = Corner;
name = _corner.LeftSerif;
}
);
paths = (
{
closed = 1;
nodes = (
"884 0 LINE",
"884 591 LINE SMOOTH",
"884 761 OFFCURVE",
"743 851 OFFCURVE",
"615 851 CURVE SMOOTH",
"488 851 OFFCURVE",
"393 763 OFFCURVE",
"304 671 CURVE",
"329 602 LINE",
"403 660 OFFCURVE",
"484 714 OFFCURVE",
"577 714 CURVE SMOOTH",
"681 714 OFFCURVE",
"733 643 OFFCURVE",
"733 542 CURVE SMOOTH",
"733 0 LINE"
);
},
{
closed = 1;
nodes = (
"336 0 LINE",
"336 639 LINE",
"327 664 LINE",
"267 851 LINE",
"229 851 LINE",
"39 764 LINE",
"39 714 LINE",
"185 670 LINE",
"185 0 LINE"
);
}
);
};
layerId = "CFF67ECA-3B2D-433B-B605-F38590C8F106";
paths = (
{
closed = 1;
nodes = (
"373 851 LINE",
"42 726 LINE",
"36 666 LINE",
"52 652 LINE",
"306 701 LINE",
"262 752 LINE",
"127 122 LINE",
"71 0 LINE",
"100 -30 LINE",
"229 15 LINE",
"298 373 LINE",
"409 821 LINE"
);
},
{
closed = 1;
nodes = (
"934 255 LINE",
"901 292 LINE",
"892 292 LINE",
"831 205 OFFCURVE",
"785 135 OFFCURVE",
"746 135 CURVE SMOOTH",
"738 135 OFFCURVE",
"734 140 OFFCURVE",
"734 149 CURVE SMOOTH",
"734 154 OFFCURVE",
"735 159 OFFCURVE",
"736 165 CURVE SMOOTH",
"838 583 LINE SMOOTH",
"880 753 OFFCURVE",
"804 851 OFFCURVE",
"688 851 CURVE SMOOTH",
"530 851 OFFCURVE",
"408 672 OFFCURVE",
"196 160 CURVE",
"229 125 LINE",
"461 633 OFFCURVE",
"563 727 OFFCURVE",
"632 727 CURVE SMOOTH",
"690 727 OFFCURVE",
"729 662 OFFCURVE",
"709 579 CURVE SMOOTH",
"587 85 LINE SMOOTH",
"571 21 OFFCURVE",
"626 -30 OFFCURVE",
"664 -30 CURVE SMOOTH",
"759 -30 OFFCURVE",
"869 115 OFFCURVE",
"934 247 CURVE"
);
}
);
width = 984;
}
);
unicode = 006E;
},
{
glyphname = o;
lastChange = "2020-03-07 17:01:43 +0000";
layers = (
{
background = {
paths = (
{
closed = 1;
nodes = (
"40 141 OFFCURVE",
"139 -30 OFFCURVE",
"288 -30 CURVE SMOOTH",
"488 -30 OFFCURVE",
"721 261 OFFCURVE",
"721 542 CURVE SMOOTH",
"721 690 OFFCURVE",
"622 861 OFFCURVE",
"474 861 CURVE SMOOTH",
"273 861 OFFCURVE",
"40 570 OFFCURVE",
"40 289 CURVE SMOOTH"
);
},
{
closed = 1;
nodes = (
"253 536 OFFCURVE",
"277 703 OFFCURVE",
"384 703 CURVE SMOOTH",
"471 703 OFFCURVE",
"508 580 OFFCURVE",
"508 431 CURVE SMOOTH",
"508 295 OFFCURVE",
"484 128 OFFCURVE",
"377 128 CURVE SMOOTH",
"290 128 OFFCURVE",
"253 251 OFFCURVE",
"253 400 CURVE SMOOTH"
);
}
);
};
layerId = "6B6AD122-EF8D-49FE-8C69-4BDE8C56BDD8";
paths = (
{
closed = 1;
nodes = (
"37 88 OFFCURVE",
"144 -30 OFFCURVE",
"279 -30 CURVE SMOOTH",
"552 -30 OFFCURVE",
"750 274 OFFCURVE",
"750 561 CURVE SMOOTH",
"750 743 OFFCURVE",
"643 861 OFFCURVE",
"508 861 CURVE SMOOTH",
"235 861 OFFCURVE",
"37 558 OFFCURVE",
"37 270 CURVE SMOOTH"
);
},
{
closed = 1;
nodes = (
"246 503 OFFCURVE",
"298 703 OFFCURVE",
"419 703 CURVE SMOOTH",
"491 703 OFFCURVE",
"541 625 OFFCURVE",
"541 472 CURVE SMOOTH",
"541 328 OFFCURVE",
"489 128 OFFCURVE",
"368 128 CURVE SMOOTH",
"296 128 OFFCURVE",
"246 206 OFFCURVE",
"246 359 CURVE SMOOTH"
);
}
);
width = 779;
},
{
background = {
paths = (
{
closed = 1;
nodes = (
"547 -30 OFFCURVE",
"739 109 OFFCURVE",
"793 365 CURVE SMOOTH",
"849 631 OFFCURVE",
"723 780 OFFCURVE",
"517 780 CURVE SMOOTH",
"323 780 OFFCURVE",
"131 641 OFFCURVE",
"77 383 CURVE SMOOTH",
"21 119 OFFCURVE",
"147 -30 OFFCURVE",
"354 -30 CURVE SMOOTH"
);
},
{
closed = 1;
nodes = (
"219 26 OFFCURVE",
"148 151 OFFCURVE",
"194 365 CURVE SMOOTH",
"242 589 OFFCURVE",
"373 724 OFFCURVE",
"516 724 CURVE SMOOTH",
"651 724 OFFCURVE",
"722 599 OFFCURVE",
"676 383 CURVE SMOOTH",
"628 161 OFFCURVE",
"497 26 OFFCURVE",
"355 26 CURVE SMOOTH"
);
}
);
};
layerId = "34301EF7-A2BE-469F-9697-D6100B11FDFE";
paths = (
{
closed = 1;
nodes = (
"230 780 OFFCURVE",
"52 536 OFFCURVE",
"52 267 CURVE SMOOTH",
"52 77 OFFCURVE",
"144 -30 OFFCURVE",
"277 -30 CURVE SMOOTH",
"477 -30 OFFCURVE",
"655 214 OFFCURVE",
"655 483 CURVE SMOOTH",
"655 673 OFFCURVE",
"563 780 OFFCURVE",
"433 780 CURVE SMOOTH"
);
},
{
closed = 1;
nodes = (
"202 26 OFFCURVE",
"148 133 OFFCURVE",
"148 281 CURVE SMOOTH",
"148 525 OFFCURVE",
"279 723 OFFCURVE",
"412 723 CURVE SMOOTH",
"507 723 OFFCURVE",
"561 619 OFFCURVE",
"561 471 CURVE SMOOTH",
"561 227 OFFCURVE",
"430 26 OFFCURVE",
"297 26 CURVE SMOOTH"
);
}
);
width = 691;
},
{
background = {
paths = (
{
closed = 1;
nodes = (
"293 704 OFFCURVE",
"223 509 OFFCURVE",
"223 361 CURVE SMOOTH",
"223 260 OFFCURVE",
"261 118 OFFCURVE",
"354 118 CURVE SMOOTH",
"478 118 OFFCURVE",
"548 313 OFFCURVE",
"548 461 CURVE SMOOTH",
"548 562 OFFCURVE",
"510 704 OFFCURVE",
"417 704 CURVE SMOOTH"
);
},
{
closed = 1;
nodes = (
"112 -30 OFFCURVE",
"59 140 OFFCURVE",
"59 278 CURVE SMOOTH",
"59 559 OFFCURVE",
"256 851 OFFCURVE",
"492 851 CURVE SMOOTH",
"659 851 OFFCURVE",
"712 681 OFFCURVE",
"712 543 CURVE SMOOTH",
"712 262 OFFCURVE",
"515 -30 OFFCURVE",
"279 -30 CURVE SMOOTH"
);
}
);
};
layerId = "CFF67ECA-3B2D-433B-B605-F38590C8F106";
paths = (
{
closed = 1;
nodes = (
"276 745 OFFCURVE",
"199 539 OFFCURVE",
"199 357 CURVE SMOOTH",
"199 212 OFFCURVE",
"259 77 OFFCURVE",
"360 77 CURVE SMOOTH",
"495 77 OFFCURVE",
"572 283 OFFCURVE",
"572 465 CURVE SMOOTH",
"572 610 OFFCURVE",
"512 745 OFFCURVE",
"411 745 CURVE SMOOTH"
);
},
{
closed = 1;
nodes = (
"132 -30 OFFCURVE",
"59 150 OFFCURVE",
"59 288 CURVE SMOOTH",
"59 569 OFFCURVE",
"236 851 OFFCURVE",
"462 851 CURVE SMOOTH",
"639 851 OFFCURVE",
"712 671 OFFCURVE",
"712 533 CURVE SMOOTH",
"712 252 OFFCURVE",
"535 -30 OFFCURVE",
"309 -30 CURVE SMOOTH"
);
}
);
width = 756;
}
);
unicode = 006F;
},
{
glyphname = p;
lastChange = "2020-03-10 13:32:17 +0000";
layers = (
{
background = {
paths = (
{
closed = 1;
nodes = (
"437 803 LINE",
"370 861 LINE",
"62 756 LINE",
"46 667 LINE",
"56 654 LINE",
"266 684 LINE",
"215 738 LINE",
"54 -40 LINE",
"-45 -409 LINE",
"-29 -429 LINE",
"173 -393 LINE"
);
},
{
closed = 1;
nodes = (
"868 710 OFFCURVE",
"839 861 OFFCURVE",
"688 861 CURVE SMOOTH",
"595 861 OFFCURVE",
"368 635 OFFCURVE",
"313 503 CURVE",
"347 416 LINE",
"211 130 LINE",
"278 35 OFFCURVE",
"373 -30 OFFCURVE",
"444 -30 CURVE SMOOTH",
"602 -30 OFFCURVE",
"868 292 OFFCURVE",
"868 602 CURVE SMOOTH"
);
},
{
closed = 1;
nodes = (
"657 347 OFFCURVE",
"617 132 OFFCURVE",
"518 132 CURVE SMOOTH",
"429 132 OFFCURVE",
"323 290 OFFCURVE",
"349 415 CURVE SMOOTH",
"375 542 OFFCURVE",
"513 678 OFFCURVE",
"578 678 CURVE SMOOTH",
"640 678 OFFCURVE",
"657 632 OFFCURVE",
"657 510 CURVE SMOOTH"
);
}
);
};
layerId = "6B6AD122-EF8D-49FE-8C69-4BDE8C56BDD8";
paths = (
{
closed = 1;
nodes = (
"437 803 LINE",
"370 861 LINE",
"62 756 LINE",
"46 667 LINE",
"56 654 LINE",
"266 684 LINE",
"215 738 LINE",
"54 -40 LINE",
"-45 -409 LINE",
"-29 -429 LINE",
"173 -393 LINE"
);
},
{
closed = 1;
nodes = (
"291 413 LINE",
"167 70 LINE",
"254 0 OFFCURVE",
"319 -30 OFFCURVE",
"401 -30 CURVE SMOOTH",
"648 -30 OFFCURVE",
"873 271 OFFCURVE",
"873 561 CURVE SMOOTH",
"873 743 OFFCURVE",
"786 861 OFFCURVE",
"651 861 CURVE SMOOTH",
"492 861 OFFCURVE",
"369 675 OFFCURVE",
"308 495 CURVE",
"374 521 LINE",
"394 620 OFFCURVE",
"479 678 OFFCURVE",
"542 678 CURVE SMOOTH",
"614 678 OFFCURVE",
"664 607 OFFCURVE",
"664 467 CURVE SMOOTH",
"664 308 OFFCURVE",
"603 139 OFFCURVE",
"462 139 CURVE SMOOTH",
"376 139 OFFCURVE",
"324 204 OFFCURVE",
"324 273 CURVE SMOOTH",
"324 284 OFFCURVE",
"325 295 OFFCURVE",
"328 306 CURVE"
);
}
);
width = 905;
},
{
background = {
components = (
{
name = a;
transform = "{-1, 0, 0, -1, 803, 750}";
}
);
};
layerId = "34301EF7-A2BE-469F-9697-D6100B11FDFE";
paths = (
{
closed = 1;
nodes = (
"317 622 LINE",
"279 537 LINE",
"341 617 OFFCURVE",
"436 726 OFFCURVE",
"526 726 CURVE SMOOTH",
"620 726 OFFCURVE",
"656 609 OFFCURVE",
"656 471 CURVE SMOOTH",
"656 198 OFFCURVE",
"529 19 OFFCURVE",
"398 19 CURVE SMOOTH",
"312 19 OFFCURVE",
"246 95 OFFCURVE",
"217 176 CURVE"
);
},
{
closed = 1;
nodes = (
"330 714 OFFCURVE",
"296 780 OFFCURVE",
"207 780 CURVE SMOOTH",
"125 780 OFFCURVE",
"67 727 OFFCURVE",
"36 566 CURVE",
"39 558 LINE",
"69 554 LINE",
"77 559 LINE",
"106 700 OFFCURVE",
"144 734 OFFCURVE",
"187 734 CURVE SMOOTH",
"225 734 OFFCURVE",
"240 706 OFFCURVE",
"236 668 CURVE SMOOTH",
"235 660 OFFCURVE",
"19 -352 OFFCURVE",
"-5 -410 CURVE",
"7 -424 LINE",
"40 -425 OFFCURVE",
"72 -417 OFFCURVE",
"101 -398 CURVE",
"215 166 LINE",
"161 176 LINE",
"207 39 OFFCURVE",
"294 -30 OFFCURVE",
"395 -30 CURVE SMOOTH",
"576 -30 OFFCURVE",
"752 189 OFFCURVE",
"752 487 CURVE SMOOTH",
"752 663 OFFCURVE",
"678 780 OFFCURVE",
"550 780 CURVE SMOOTH",
"437 780 OFFCURVE",
"354 688 OFFCURVE",
"289 617 CURVE",
"311 615 LINE"
);
}
);
width = 794;
},
{
background = {
hints = (
{
origin = "{0, 0}";
scale = "{1.2, 1}";
type = Corner;
name = _corner.RightSerif;
},
{
origin = "{0, 8}";
type = Corner;
name = _corner.LeftSerif;
}
);
paths = (
{
closed = 1;
nodes = (
"250 -394 LINE",
"249 638 LINE",
"239 664 LINE",
"179 851 LINE",
"141 851 LINE",
"-49 764 LINE",
"-49 714 LINE",
"97 670 LINE",
"97 -394 LINE"
);
},
{
closed = 1;
nodes = (
"679 -30 OFFCURVE",
"852 148 OFFCURVE",
"852 434 CURVE SMOOTH",
"852 679 OFFCURVE",
"723 851 OFFCURVE",
"536 851 CURVE SMOOTH",
"406 851 OFFCURVE",
"298 768 OFFCURVE",
"210 665 CURVE",
"224 560 LINE",
"274 633 OFFCURVE",
"376 729 OFFCURVE",
"484 729 CURVE SMOOTH",
"603 729 OFFCURVE",
"685 614 OFFCURVE",
"685 396 CURVE SMOOTH",
"685 178 OFFCURVE",
"606 73 OFFCURVE",
"460 73 CURVE SMOOTH",
"362 73 OFFCURVE",
"286 121 OFFCURVE",
"246 170 CURVE",
"236 32 LINE",
"294 -9 OFFCURVE",
"371 -30 OFFCURVE",
"450 -30 CURVE SMOOTH"
);
}
);
};
layerId = "CFF67ECA-3B2D-433B-B605-F38590C8F106";
paths = (
{
closed = 1;
nodes = (
"409 821 LINE",
"373 851 LINE",
"42 726 LINE",
"36 666 LINE",
"52 652 LINE",
"306 711 LINE",
"263 728 LINE",
"88 -82 LINE",
"-34 -403 LINE",
"-12 -434 LINE",
"152 -380 LINE"
);
},
{
closed = 1;
nodes = (
"538 851 OFFCURVE",
"365 645 OFFCURVE",
"243 343 CURVE",
"265 182 LINE",
"348 571 OFFCURVE",
"575 722 OFFCURVE",
"639 722 CURVE SMOOTH",
"682 722 OFFCURVE",
"693 616 OFFCURVE",
"693 555 CURVE SMOOTH",
"693 387 OFFCURVE",
"601 89 OFFCURVE",
"430 89 CURVE SMOOTH",
"378 89 OFFCURVE",
"319 124 OFFCURVE",
"225 202 CURVE",
"191 60 LINE",
"267 0 OFFCURVE",
"323 -30 OFFCURVE",
"393 -30 CURVE SMOOTH",
"625 -30 OFFCURVE",
"827 334 OFFCURVE",
"827 623 CURVE SMOOTH",
"827 741 OFFCURVE",
"792 851 OFFCURVE",
"683 851 CURVE SMOOTH"
);
}
);
width = 857;
}
);
leftMetricsKey = n;
rightMetricsKey = b;
unicode = 0070;
},
{
glyphname = q;
lastChange = "2020-03-10 13:32:59 +0000";
layers = (
{
layerId = "6B6AD122-EF8D-49FE-8C69-4BDE8C56BDD8";
paths = (
{
closed = 1;
nodes = (
"783 861 LINE",
"621 749 LINE",
"407 -265 LINE SMOOTH",
"394 -327 OFFCURVE",
"479 -424 OFFCURVE",
"534 -424 CURVE SMOOTH",
"636 -424 OFFCURVE",
"747 -288 OFFCURVE",
"802 -199 CURVE",
"802 -185 LINE",
"758 -134 LINE",
"744 -134 LINE",
"683 -189 OFFCURVE",
"662 -194 OFFCURVE",
"641 -194 CURVE SMOOTH",
"631 -194 OFFCURVE",
"626 -185 OFFCURVE",
"629 -171 CURVE SMOOTH",
"841 826 LINE"
);
},
{
closed = 1;
nodes = (
"622 418 LINE",
"746 761 LINE",
"659 831 OFFCURVE",
"594 861 OFFCURVE",
"512 861 CURVE SMOOTH",
"265 861 OFFCURVE",
"40 560 OFFCURVE",
"40 270 CURVE SMOOTH",
"40 88 OFFCURVE",
"127 -30 OFFCURVE",
"262 -30 CURVE SMOOTH",
"421 -30 OFFCURVE",
"544 156 OFFCURVE",
"605 336 CURVE",
"539 310 LINE",
"519 211 OFFCURVE",
"434 153 OFFCURVE",
"371 153 CURVE SMOOTH",
"299 153 OFFCURVE",
"249 224 OFFCURVE",
"249 364 CURVE SMOOTH",
"249 523 OFFCURVE",
"310 692 OFFCURVE",
"451 692 CURVE SMOOTH",
"537 692 OFFCURVE",
"589 627 OFFCURVE",
"589 558 CURVE SMOOTH",
"589 547 OFFCURVE",
"588 536 OFFCURVE",
"585 525 CURVE"
);
},
{
closed = 1;
nodes = (
"859 572 LINE",
"865 633 LINE",
"781 758 LINE",
"753 509 LINE"
);
}
);
width = 868;
},
{
background = {
paths = (
{
closed = 1;
nodes = (
"154 531 OFFCURVE",
"274 729 OFFCURVE",
"412 729 CURVE SMOOTH",
"501 729 OFFCURVE",
"558 645 OFFCURVE",
"582 569 CURVE",
"498 179 LINE",
"440 101 OFFCURVE",
"357 29 OFFCURVE",
"284 29 CURVE SMOOTH",
"195 29 OFFCURVE",
"154 139 OFFCURVE",
"154 287 CURVE SMOOTH"
);
},
{
closed = 1;
nodes = (
"466 35 OFFCURVE",
"504 -30 OFFCURVE",
"593 -30 CURVE SMOOTH",
"675 -30 OFFCURVE",
"732 23 OFFCURVE",
"770 181 CURVE",
"767 189 LINE",
"736 196 LINE",
"728 191 LINE",
"692 50 OFFCURVE",
"655 16 OFFCURVE",
"612 16 CURVE SMOOTH",
"574 16 OFFCURVE",
"557 43 OFFCURVE",
"567 91 CURVE SMOOTH",
"619 322 OFFCURVE",
"703 727 OFFCURVE",
"721 766 CURVE",
"709 780 LINE",
"678 782 OFFCURVE",
"651 774 OFFCURVE",
"621 755 CURVE",
"594 636 LINE",
"622 592 LINE",
"595 706 OFFCURVE",
"520 780 OFFCURVE",
"415 780 CURVE SMOOTH",
"228 780 OFFCURVE",
"58 540 OFFCURVE",
"58 271 CURVE SMOOTH",
"58 81 OFFCURVE",
"142 -30 OFFCURVE",
"262 -30 CURVE SMOOTH",
"374 -30 OFFCURVE",
"459 67 OFFCURVE",
"522 134 CURVE",
"496 169 LINE",
"486 125 LINE SMOOTH"
);
}
);
};
layerId = "34301EF7-A2BE-469F-9697-D6100B11FDFE";
paths = (
{
closed = 1;
nodes = (
"154 530 OFFCURVE",
"276 725 OFFCURVE",
"415 725 CURVE SMOOTH",
"503 725 OFFCURVE",
"558 645 OFFCURVE",
"579 564 CURVE",
"497 178 LINE",
"440 103 OFFCURVE",
"361 30 OFFCURVE",
"288 30 CURVE SMOOTH",
"199 30 OFFCURVE",
"154 138 OFFCURVE",
"154 286 CURVE SMOOTH"
);
},
{
closed = 1;
nodes = (
"490 -269 LINE SMOOTH",
"494 -245 OFFCURVE",
"691 686 OFFCURVE",
"721 766 CURVE",
"709 780 LINE",
"679 781 OFFCURVE",
"651 773 OFFCURVE",
"621 754 CURVE",
"594 636 LINE",
"619 588 LINE",
"595 706 OFFCURVE",
"510 780 OFFCURVE",
"410 780 CURVE SMOOTH",
"228 780 OFFCURVE",
"58 539 OFFCURVE",
"58 270 CURVE SMOOTH",
"58 80 OFFCURVE",
"142 -30 OFFCURVE",
"262 -30 CURVE SMOOTH",
"374 -30 OFFCURVE",
"462 64 OFFCURVE",
"515 133 CURVE",
"496 169 LINE",
"407 -257 LINE SMOOTH",
"386 -357 OFFCURVE",
"421 -424 OFFCURVE",
"510 -424 CURVE SMOOTH",
"592 -424 OFFCURVE",
"649 -371 OFFCURVE",
"694 -198 CURVE",
"691 -190 LINE",
"660 -183 LINE",
"652 -188 LINE",
"609 -344 OFFCURVE",
"572 -378 OFFCURVE",
"529 -378 CURVE SMOOTH",
"491 -378 OFFCURVE",
"476 -351 OFFCURVE",
"484 -303 CURVE SMOOTH"
);
}
);
width = 735;
},
{
background = {
hints = (
{
origin = "{1, 0}";
type = Corner;
name = _corner.RightSerif;
},
{
origin = "{1, 4}";
type = Corner;
name = _corner.LeftSerif;
}
);
paths = (
{
closed = 1;
nodes = (
"812 -30 OFFCURVE",
"896 35 OFFCURVE",
"956 97 CURVE",
"952 203 LINE",
"931 159 OFFCURVE",
"844 88 OFFCURVE",
"737 88 CURVE SMOOTH",
"597 88 OFFCURVE",
"502 211 OFFCURVE",
"502 433 CURVE SMOOTH",
"502 628 OFFCURVE",
"589 739 OFFCURVE",
"758 739 CURVE SMOOTH",
"833 739 OFFCURVE",
"898 717 OFFCURVE",
"955 690 CURVE",
"1045 804 LINE",
"953 837 OFFCURVE",
"864 851 OFFCURVE",
"793 851 CURVE SMOOTH",
"533 851 OFFCURVE",
"338 658 OFFCURVE",
"338 385 CURVE SMOOTH",
"338 146 OFFCURVE",
"482 -30 OFFCURVE",
"688 -30 CURVE SMOOTH"
);
},
{
closed = 1;
nodes = (
"1087 -394 LINE",
"1087 845 LINE",
"1047 856 LINE",
"933 745 LINE",
"933 -394 LINE"
);
}
);
};
layerId = "CFF67ECA-3B2D-433B-B605-F38590C8F106";
paths = (
{
closed = 1;
nodes = (
"334 -30 OFFCURVE",
"507 176 OFFCURVE",
"629 478 CURVE",
"607 639 LINE",
"524 250 OFFCURVE",
"297 99 OFFCURVE",
"233 99 CURVE SMOOTH",
"190 99 OFFCURVE",
"179 205 OFFCURVE",
"179 266 CURVE SMOOTH",
"179 434 OFFCURVE",
"271 732 OFFCURVE",
"442 732 CURVE SMOOTH",
"494 732 OFFCURVE",
"553 697 OFFCURVE",
"647 619 CURVE",
"681 761 LINE",
"605 821 OFFCURVE",
"549 851 OFFCURVE",
"479 851 CURVE SMOOTH",
"247 851 OFFCURVE",
"45 487 OFFCURVE",
"45 198 CURVE SMOOTH",
"45 80 OFFCURVE",
"80 -30 OFFCURVE",
"189 -30 CURVE SMOOTH"
);
},
{
closed = 1;
nodes = (
"408 -297 LINE SMOOTH",
"393 -366 OFFCURVE",
"453 -424 OFFCURVE",
"511 -424 CURVE SMOOTH",
"581 -424 OFFCURVE",
"706 -274 OFFCURVE",
"790 -127 CURVE",
"790 -121 LINE",
"756 -81 LINE",
"747 -81 LINE",
"628 -230 OFFCURVE",
"581 -259 OFFCURVE",
"560 -259 CURVE SMOOTH",
"552 -259 OFFCURVE",
"548 -254 OFFCURVE",
"548 -245 CURVE SMOOTH",
"548 -240 OFFCURVE",
"549 -235 OFFCURVE",
"550 -229 CURVE SMOOTH",
"772 821 LINE",
"736 851 LINE",
"638 787 LINE"
);
},
{
closed = 1;
nodes = (
"801 625 LINE",
"807 660 LINE",
"723 732 LINE",
"695 589 LINE"
);
}
);
width = 836;
}
);
leftMetricsKey = a;
unicode = 0071;
},
{
glyphname = r;
lastChange = "2020-03-10 17:34:54 +0000";
layers = (
{
background = {
paths = (
{
closed = 1;
nodes = (
"591 608 OFFCURVE",
"628 602 OFFCURVE",
"664 574 CURVE",
"715 596 LINE",
"766 831 LINE",
"727 861 LINE",
"564 861 OFFCURVE",
"504 758 OFFCURVE",
"316 512 CURVE",
"348 436 LINE",
"435 803 LINE",
"374 861 LINE",
"62 756 LINE",
"46 667 LINE",
"56 654 LINE",
"331 683 LINE",
"239 718 LINE",
"155 365 LINE",
"44 -4 LINE",
"60 -24 LINE",
"262 12 LINE",
"292 148 LINE SMOOTH",
"372 512 OFFCURVE",
"460 608 OFFCURVE",
"565 608 CURVE SMOOTH"
);
}
);
};
layerId = "6B6AD122-EF8D-49FE-8C69-4BDE8C56BDD8";
paths = (
{
closed = 1;
nodes = (
"361 507 LINE",
"435 803 LINE",
"374 861 LINE",
"62 756 LINE",
"46 667 LINE",
"56 654 LINE",
"331 683 LINE",
"239 718 LINE",
"155 365 LINE",
"44 -4 LINE",
"60 -24 LINE",
"262 12 LINE",
"292 148 LINE"
);
},
{
closed = 1;
nodes = (
"675 650 LINE",
"701 666 LINE",
"748 815 LINE",
"739 837 LINE",
"687 855 OFFCURVE",
"649 861 OFFCURVE",
"614 861 CURVE SMOOTH",
"475 861 OFFCURVE",
"364 565 OFFCURVE",
"250 277 CURVE",
"292 148 LINE",
"343 437 OFFCURVE",
"446 650 OFFCURVE",
"546 650 CURVE SMOOTH"
);
}
);
width = 666;
},
{
background = {
paths = (
{
closed = 1;
nodes = (
"499 780 OFFCURVE",
"401 747 OFFCURVE",
"313 613 CURVE",
"320 643 OFFCURVE",
"324 664 OFFCURVE",
"324 683 CURVE SMOOTH",
"324 748 OFFCURVE",
"273 780 OFFCURVE",
"221 780 CURVE SMOOTH",
"155 780 OFFCURVE",
"93 728 OFFCURVE",
"34 597 CURVE",
"33 585 LINE",
"61 571 LINE",
"72 571 LINE",
"131 693 OFFCURVE",
"165 732 OFFCURVE",
"207 732 CURVE SMOOTH",
"228 732 OFFCURVE",
"240 720 OFFCURVE",
"240 698 CURVE SMOOTH",
"240 694 OFFCURVE",
"240 689 OFFCURVE",
"239 685 CURVE SMOOTH",
"238 679 OFFCURVE",
"105 37 OFFCURVE",
"87 -1 CURVE",
"99 -15 LINE",
"129 -16 OFFCURVE",
"158 -8 OFFCURVE",
"188 11 CURVE",
"196 64 OFFCURVE",
"293 511 OFFCURVE",
"316 594 CURVE",
"267 498 LINE",
"348 628 OFFCURVE",
"449 730 OFFCURVE",
"513 730 CURVE SMOOTH",
"522 730 OFFCURVE",
"527 727 OFFCURVE",
"527 720 CURVE SMOOTH",
"527 705 OFFCURVE",
"487 654 OFFCURVE",
"487 599 CURVE SMOOTH",
"487 552 OFFCURVE",
"517 512 OFFCURVE",
"550 512 CURVE SMOOTH",
"592 512 OFFCURVE",
"625 581 OFFCURVE",
"625 647 CURVE SMOOTH",
"625 707 OFFCURVE",
"598 780 OFFCURVE",
"545 780 CURVE SMOOTH"
);
}
);
};
layerId = "34301EF7-A2BE-469F-9697-D6100B11FDFE";
paths = (
{
closed = 1;
nodes = (
"332 717 OFFCURVE",
"296 780 OFFCURVE",
"207 780 CURVE SMOOTH",
"125 780 OFFCURVE",
"67 727 OFFCURVE",
"36 566 CURVE",
"39 558 LINE",
"69 554 LINE",
"77 559 LINE",
"106 700 OFFCURVE",
"144 734 OFFCURVE",
"187 734 CURVE SMOOTH",
"225 734 OFFCURVE",
"243 707 OFFCURVE",
"236 668 CURVE SMOOTH",
"233 651 OFFCURVE",
"102 29 OFFCURVE",
"88 -1 CURVE",
"100 -15 LINE",
"130 -16 OFFCURVE",
"158 -8 OFFCURVE",
"188 11 CURVE",
"196 64 OFFCURVE",
"283 467 OFFCURVE",
"306 550 CURVE",
"267 443 LINE",
"391 667 OFFCURVE",
"422 705 OFFCURVE",
"500 707 CURVE",
"449 736 LINE",
"459 668 OFFCURVE",
"507 606 OFFCURVE",
"565 606 CURVE SMOOTH",
"600 606 OFFCURVE",
"624 628 OFFCURVE",
"624 665 CURVE SMOOTH",
"624 710 OFFCURVE",
"588 780 OFFCURVE",
"518 780 CURVE SMOOTH",
"447 780 OFFCURVE",
"378 708 OFFCURVE",
"305 576 CURVE",
"313 618 LINE SMOOTH"
);
}
);
width = 617;
},
{
background = {
paths = (
{
closed = 1;
nodes = (
"374 851 LINE",
"43 726 LINE",
"37 666 LINE",
"53 652 LINE",
"307 701 LINE",
"263 752 LINE",
"128 122 LINE",
"72 -26 LINE",
"101 -57 LINE",
"230 15 LINE",
"321 460 LINE",
"410 821 LINE"
);
},
{
closed = 1;
nodes = (
"661 634 LINE",
"661 683 OFFCURVE",
"688 851 OFFCURVE",
"593 851 CURVE SMOOTH",
"468 851 OFFCURVE",
"357 565 OFFCURVE",
"223 277 CURVE",
"242 202 LINE",
"344 437 OFFCURVE",
"481 729 OFFCURVE",
"541 729 CURVE",
"529 597 OFFCURVE",
"553 561 OFFCURVE",
"604 561 CURVE SMOOTH",
"662 561 OFFCURVE",
"742 615 OFFCURVE",
"798 667 CURVE",
"800 674 LINE",
"781 712 LINE",
"773 714 LINE",
"728 693 OFFCURVE",
"671 649 OFFCURVE",
"636 649 CURVE"
);
}
);
};
layerId = "CFF67ECA-3B2D-433B-B605-F38590C8F106";
paths = (
{
closed = 1;
nodes = (
"373 851 LINE",
"42 726 LINE",
"36 666 LINE",
"52 652 LINE",
"306 701 LINE",
"262 752 LINE",
"127 122 LINE",
"71 -26 LINE",
"100 -57 LINE",
"229 15 LINE",
"320 460 LINE",
"409 821 LINE"
);
},
{
closed = 1;
nodes = (
"666 682 LINE",
"688 695 LINE",
"726 814 LINE",
"719 832 LINE",
"676 846 OFFCURVE",
"645 851 OFFCURVE",
"616 851 CURVE SMOOTH",
"467 851 OFFCURVE",
"356 565 OFFCURVE",
"222 277 CURVE",
"241 202 LINE",
"343 437 OFFCURVE",
"458 682 OFFCURVE",
"528 682 CURVE SMOOTH"
);
}
);
width = 670;
}
);
leftMetricsKey = n;
unicode = 0072;
},
{
glyphname = s;
lastChange = "2020-03-10 17:35:01 +0000";
layers = (
{
background = {
paths = (
{
closed = 1;
nodes = (
"318 269 OFFCURVE",
"61 368 OFFCURVE",
"61 566 CURVE SMOOTH",
"61 735 OFFCURVE",
"234 861 OFFCURVE",
"372 861 CURVE SMOOTH",
"414 861 OFFCURVE",
"476 849 OFFCURVE",
"548 813 CURVE",
"548 779 LINE",
"491 644 LINE",
"462 632 LINE",
"386 661 OFFCURVE",
"320 684 OFFCURVE",
"272 684 CURVE SMOOTH",
"235 684 OFFCURVE",
"221 670 OFFCURVE",
"221 647 CURVE SMOOTH",
"221 548 OFFCURVE",
"486 469 OFFCURVE",
"486 264 CURVE SMOOTH",
"486 102 OFFCURVE",
"327 -30 OFFCURVE",
"194 -30 CURVE SMOOTH",
"127 -30 OFFCURVE",
"61 5 OFFCURVE",
"-12 53 CURVE",
"-12 87 LINE",
"55 222 LINE",
"86 233 LINE",
"148 191 OFFCURVE",
"220 138 OFFCURVE",
"274 138 CURVE SMOOTH",
"299 138 OFFCURVE",
"318 150 OFFCURVE",
"318 176 CURVE SMOOTH"
);
}
);
};
layerId = "6B6AD122-EF8D-49FE-8C69-4BDE8C56BDD8";
paths = (
{
closed = 1;
nodes = (
"347 258 OFFCURVE",
"61 368 OFFCURVE",
"61 571 CURVE SMOOTH",
"61 735 OFFCURVE",
"229 861 OFFCURVE",
"386 861 CURVE SMOOTH",
"437 861 OFFCURVE",
"497 848 OFFCURVE",
"568 810 CURVE",
"568 776 LINE",
"511 644 LINE",
"482 632 LINE",
"406 661 OFFCURVE",
"320 684 OFFCURVE",
"272 684 CURVE SMOOTH",
"235 684 OFFCURVE",
"221 670 OFFCURVE",
"221 648 CURVE SMOOTH",
"221 548 OFFCURVE",
"506 469 OFFCURVE",
"506 254 CURVE SMOOTH",
"506 84 OFFCURVE",
"347 -30 OFFCURVE",
"204 -30 CURVE SMOOTH",
"127 -30 OFFCURVE",
"61 5 OFFCURVE",
"-12 53 CURVE",
"-12 87 LINE",
"55 222 LINE",
"86 233 LINE",
"148 191 OFFCURVE",
"229 127 OFFCURVE",
"296 127 CURVE SMOOTH",
"328 127 OFFCURVE",
"347 139 OFFCURVE",
"347 164 CURVE SMOOTH"
);
}
);
width = 571;
},
{
background = {
paths = (
{
closed = 1;
nodes = (
"160 15 OFFCURVE",
"107 61 OFFCURVE",
"85 155 CURVE",
"89 84 LINE",
"125 103 OFFCURVE",
"150 158 OFFCURVE",
"150 197 CURVE SMOOTH",
"150 234 OFFCURVE",
"128 266 OFFCURVE",
"94 266 CURVE SMOOTH",
"57 266 OFFCURVE",
"28 226 OFFCURVE",
"28 165 CURVE SMOOTH",
"28 71 OFFCURVE",
"94 -30 OFFCURVE",
"239 -30 CURVE SMOOTH",
"376 -30 OFFCURVE",
"485 62 OFFCURVE",
"485 199 CURVE SMOOTH",
"485 429 OFFCURVE",
"191 430 OFFCURVE",
"194 607 CURVE SMOOTH",
"196 696 OFFCURVE",
"270 739 OFFCURVE",
"343 739 CURVE SMOOTH",
"421 739 OFFCURVE",
"474 689 OFFCURVE",
"496 595 CURVE",
"492 666 LINE",
"456 647 OFFCURVE",
"431 592 OFFCURVE",
"431 553 CURVE SMOOTH",
"431 516 OFFCURVE",
"453 484 OFFCURVE",
"487 484 CURVE SMOOTH",
"524 484 OFFCURVE",
"553 524 OFFCURVE",
"553 585 CURVE SMOOTH",
"553 679 OFFCURVE",
"487 780 OFFCURVE",
"349 780 CURVE SMOOTH",
"230 780 OFFCURVE",
"119 707 OFFCURVE",
"110 575 CURVE SMOOTH",
"103 354 OFFCURVE",
"410 366 OFFCURVE",
"410 172 CURVE SMOOTH",
"410 66 OFFCURVE",
"322 15 OFFCURVE",
"241 15 CURVE SMOOTH"
);
}
);
};
layerId = "34301EF7-A2BE-469F-9697-D6100B11FDFE";
paths = (
{
closed = 1;
nodes = (
"163 14 OFFCURVE",
"101 50 OFFCURVE",
"77 155 CURVE",
"89 84 LINE",
"125 103 OFFCURVE",
"150 158 OFFCURVE",
"150 197 CURVE SMOOTH",
"150 234 OFFCURVE",
"128 266 OFFCURVE",
"94 266 CURVE SMOOTH",
"57 266 OFFCURVE",
"28 226 OFFCURVE",
"28 165 CURVE SMOOTH",
"28 71 OFFCURVE",
"95 -30 OFFCURVE",
"240 -30 CURVE SMOOTH",
"377 -30 OFFCURVE",
"487 62 OFFCURVE",
"487 199 CURVE SMOOTH",
"487 429 OFFCURVE",
"194 429 OFFCURVE",
"194 611 CURVE SMOOTH",
"194 695 OFFCURVE",
"258 740 OFFCURVE",
"338 740 CURVE SMOOTH",
"419 740 OFFCURVE",
"477 696 OFFCURVE",
"499 610 CURVE",
"482 671 LINE",
"450 652 OFFCURVE",
"431 602 OFFCURVE",
"431 564 CURVE SMOOTH",
"431 524 OFFCURVE",
"456 490 OFFCURVE",
"490 490 CURVE SMOOTH",
"525 490 OFFCURVE",
"551 525 OFFCURVE",
"551 584 CURVE SMOOTH",
"551 693 OFFCURVE",
"468 780 OFFCURVE",
"339 780 CURVE SMOOTH",
"223 780 OFFCURVE",
"119 710 OFFCURVE",
"115 578 CURVE SMOOTH",
"108 357 OFFCURVE",
"408 365 OFFCURVE",
"408 171 CURVE SMOOTH",
"408 65 OFFCURVE",
"325 14 OFFCURVE",
"237 14 CURVE SMOOTH"
);
}
);
width = 567;
},
{
background = {
paths = (
{
closed = 1;
nodes = (
"356 122 OFFCURVE",
"319 76 OFFCURVE",
"260 76 CURVE SMOOTH",
"206 76 OFFCURVE",
"136 117 OFFCURVE",
"51 179 CURVE",
"35 179 LINE",
"-24 75 LINE",
"-22 60 LINE",
"77 3 OFFCURVE",
"167 -30 OFFCURVE",
"242 -30 CURVE SMOOTH",
"368 -30 OFFCURVE",
"474 69 OFFCURVE",
"474 202 CURVE SMOOTH",
"474 419 OFFCURVE",
"194 525 OFFCURVE",
"194 660 CURVE SMOOTH",
"194 713 OFFCURVE",
"236 743 OFFCURVE",
"299 743 CURVE SMOOTH",
"345 743 OFFCURVE",
"390 727 OFFCURVE",
"472 688 CURVE",
"488 688 LINE",
"535 791 LINE",
"535 807 LINE",
"452 846 OFFCURVE",
"370 851 OFFCURVE",
"336 851 CURVE SMOOTH",
"183 851 OFFCURVE",
"77 755 OFFCURVE",
"77 626 CURVE SMOOTH",
"77 419 OFFCURVE",
"356 327 OFFCURVE",
"356 177 CURVE SMOOTH"
);
}
);
};
layerId = "CFF67ECA-3B2D-433B-B605-F38590C8F106";
paths = (
{
closed = 1;
nodes = (
"357 107 OFFCURVE",
"313 87 OFFCURVE",
"252 87 CURVE SMOOTH",
"206 87 OFFCURVE",
"161 98 OFFCURVE",
"79 147 CURVE",
"60 147 LINE",
"10 41 LINE",
"10 23 LINE",
"99 -25 OFFCURVE",
"181 -30 OFFCURVE",
"215 -30 CURVE SMOOTH",
"368 -30 OFFCURVE",
"474 66 OFFCURVE",
"474 197 CURVE SMOOTH",
"474 419 OFFCURVE",
"194 525 OFFCURVE",
"194 660 CURVE SMOOTH",
"194 713 OFFCURVE",
"238 734 OFFCURVE",
"299 734 CURVE SMOOTH",
"345 734 OFFCURVE",
"390 723 OFFCURVE",
"468 686 CURVE",
"486 686 LINE",
"535 789 LINE",
"535 807 LINE",
"452 846 OFFCURVE",
"370 851 OFFCURVE",
"336 851 CURVE SMOOTH",
"183 851 OFFCURVE",
"77 755 OFFCURVE",
"77 626 CURVE SMOOTH",
"77 419 OFFCURVE",
"356 326 OFFCURVE",
"357 172 CURVE SMOOTH"
);
}
);
width = 542;
}
);
unicode = 0073;
},
{
glyphname = t;
lastChange = "2020-03-10 13:14:56 +0000";
layers = (
{
background = {
paths = (
{
closed = 1;
nodes = (
"306 -30 OFFCURVE",
"433 29 OFFCURVE",
"516 79 CURVE",
"496 182 LINE",
"450 171 OFFCURVE",
"403 159 OFFCURVE",
"360 159 CURVE SMOOTH",
"306 159 OFFCURVE",
"282 173 OFFCURVE",
"296 238 CURVE SMOOTH",
"457 996 LINE",
"410 1014 LINE",
"192 844 LINE",
"76 800 LINE",
"57 707 LINE",
"157 686 LINE",
"48 177 LINE SMOOTH",
"19 39 OFFCURVE",
"118 -30 OFFCURVE",
"217 -30 CURVE SMOOTH"
);
},
{
closed = 1;
nodes = (
"636 699 LINE",
"664 831 LINE",
"199 831 LINE",
"197 699 LINE"
);
}
);
};
layerId = "6B6AD122-EF8D-49FE-8C69-4BDE8C56BDD8";
paths = (
{
closed = 1;
nodes = (
"598 859 LINE",
"299 831 LINE",
"297 699 LINE",
"586 699 LINE",
"616 842 LINE"
);
},
{
closed = 1;
nodes = (
"51 697 LINE",
"161 697 LINE",
"41 128 LINE SMOOTH",
"28 66 OFFCURVE",
"113 -30 OFFCURVE",
"168 -30 CURVE SMOOTH",
"270 -30 OFFCURVE",
"399 106 OFFCURVE",
"524 245 CURVE",
"524 259 LINE",
"480 310 LINE",
"466 310 LINE",
"335 205 OFFCURVE",
"302 200 OFFCURVE",
"281 200 CURVE SMOOTH",
"271 200 OFFCURVE",
"266 209 OFFCURVE",
"269 223 CURVE SMOOTH",
"436 1019 LINE",
"421 1036 LINE",
"326 1036 LINE",
"129 759 LINE",
"291 882 LINE",
"56 800 LINE",
"38 712 LINE"
);
}
);
width = 592;
},
{
layerId = "34301EF7-A2BE-469F-9697-D6100B11FDFE";
paths = (
{
closed = 1;
nodes = (
"525 727 OFFCURVE",
"522 758 OFFCURVE",
"507 780 CURVE",
"235 756 LINE",
"250 697 LINE",
"508 697 LINE"
);
},
{
closed = 1;
nodes = (
"170 107 LINE SMOOTH",
"176 138 OFFCURVE",
"297 713 OFFCURVE",
"361 1013 CURVE",
"350 1025 LINE",
"310 1025 LINE",
"215 762 LINE",
"65 735 LINE",
"59 702 LINE",
"64 697 LINE",
"208 697 LINE",
"91 134 LINE SMOOTH",
"72 44 OFFCURVE",
"106 -30 OFFCURVE",
"204 -30 CURVE SMOOTH",
"287 -30 OFFCURVE",
"344 23 OFFCURVE",
"382 181 CURVE",
"379 189 LINE",
"348 196 LINE",
"340 191 LINE",
"304 50 OFFCURVE",
"267 16 OFFCURVE",
"219 16 CURVE SMOOTH",
"176 16 OFFCURVE",
"158 44 OFFCURVE",
"167 91 CURVE SMOOTH"
);
}
);
width = 494;
},
{
background = {
paths = (
{
closed = 1;
nodes = (
"391 -30 OFFCURVE",
"486 16 OFFCURVE",
"555 63 CURVE",
"534 127 LINE",
"485 108 OFFCURVE",
"436 97 OFFCURVE",
"394 97 CURVE SMOOTH",
"314 97 OFFCURVE",
"268 137 OFFCURVE",
"268 229 CURVE SMOOTH",
"268 987 LINE",
"236 999 LINE",
"112 842 LINE",
"-24 800 LINE",
"-24 734 LINE",
"116 713 LINE",
"116 177 LINE SMOOTH",
"116 39 OFFCURVE",
"214 -30 OFFCURVE",
"312 -30 CURVE SMOOTH"
);
},
{
closed = 1;
nodes = (
"535 730 LINE",
"535 821 LINE",
"212 821 LINE",
"212 730 LINE"
);
}
);
};
layerId = "CFF67ECA-3B2D-433B-B605-F38590C8F106";
paths = (
{
closed = 1;
nodes = (
"549 731 LINE",
"575 828 LINE",
"566 840 LINE",
"348 822 LINE",
"313 731 LINE"
);
},
{
closed = 1;
nodes = (
"56 734 LINE",
"211 734 LINE",
"76 101 LINE SMOOTH",
"59 20 OFFCURVE",
"136 -30 OFFCURVE",
"184 -30 CURVE SMOOTH",
"253 -30 OFFCURVE",
"373 114 OFFCURVE",
"484 251 CURVE",
"484 261 LINE",
"452 296 LINE",
"443 296 LINE",
"306 156 OFFCURVE",
"250 120 OFFCURVE",
"229 120 CURVE SMOOTH",
"221 120 OFFCURVE",
"211 127 OFFCURVE",
"211 136 CURVE SMOOTH",
"211 141 OFFCURVE",
"212 146 OFFCURVE",
"213 152 CURVE SMOOTH",
"388 1006 LINE",
"381 1016 LINE",
"303 1016 LINE",
"209 792 LINE",
"280 839 LINE",
"58 800 LINE",
"47 743 LINE"
);
}
);
width = 549;
}
);
unicode = 0074;
},
{
glyphname = u;
lastChange = "2020-03-10 17:40:01 +0000";
layers = (
{
background = {
paths = (
{
closed = 1;
nodes = (
"486 803 LINE",
"425 861 LINE",
"113 756 LINE",
"97 667 LINE",
"107 654 LINE",
"382 683 LINE",
"290 718 LINE",
"206 365 LINE",
"95 -4 LINE",
"111 -24 LINE",
"313 12 LINE",
"343 148 LINE SMOOTH",
"423 512 OFFCURVE",
"597 683 OFFCURVE",
"690 683 CURVE SMOOTH",
"712 683 OFFCURVE",
"728 652 OFFCURVE",
"724 636 CURVE SMOOTH",
"599 129 LINE SMOOTH",
"584 67 OFFCURVE",
"671 -30 OFFCURVE",
"726 -30 CURVE SMOOTH",
"828 -30 OFFCURVE",
"945 106 OFFCURVE",
"1000 195 CURVE",
"1000 209 LINE",
"956 260 LINE",
"942 260 LINE",
"881 205 OFFCURVE",
"860 200 OFFCURVE",
"839 200 CURVE SMOOTH",
"825 200 OFFCURVE",
"825 214 OFFCURVE",
"829 230 CURVE SMOOTH",
"941 662 LINE SMOOTH",
"963 747 OFFCURVE",
"883 861 OFFCURVE",
"805 861 CURVE SMOOTH",
"705 861 OFFCURVE",
"559 758 OFFCURVE",
"376 434 CURVE",
"399 436 LINE"
);
}
);
};
layerId = "6B6AD122-EF8D-49FE-8C69-4BDE8C56BDD8";
paths = (
{
closed = 1;
nodes = (
"833 472 LINE",
"937 841 LINE",
"921 861 LINE",
"719 825 LINE",
"689 689 LINE SMOOTH",
"609 325 OFFCURVE",
"443 154 OFFCURVE",
"363 154 CURVE SMOOTH",
"328 154 OFFCURVE",
"312 185 OFFCURVE",
"321 219 CURVE SMOOTH",
"465 803 LINE",
"404 861 LINE",
"62 756 LINE",
"46 667 LINE",
"56 654 LINE",
"331 683 LINE",
"239 718 LINE",
"97 166 LINE SMOOTH",
"73 72 OFFCURVE",
"155 -24 OFFCURVE",
"267 -24 CURVE SMOOTH",
"383 -24 OFFCURVE",
"521 89 OFFCURVE",
"656 323 CURVE",
"633 401 LINE",
"567 119 LINE SMOOTH",
"551 50 OFFCURVE",
"649 -30 OFFCURVE",
"704 -30 CURVE SMOOTH",
"806 -30 OFFCURVE",
"902 106 OFFCURVE",
"957 195 CURVE",
"957 209 LINE",
"913 260 LINE",
"899 260 LINE",
"838 205 OFFCURVE",
"817 200 OFFCURVE",
"796 200 CURVE SMOOTH",
"782 200 OFFCURVE",
"782 214 OFFCURVE",
"786 230 CURVE"
);
}
);
width = 1014;
},
{
background = {
paths = (
{
closed = 1;
nodes = (
"153 131 LINE SMOOTH",
"140 71 OFFCURVE",
"217 -15 OFFCURVE",
"287 -15 CURVE SMOOTH",
"348 -15 OFFCURVE",
"463 51 OFFCURVE",
"606 157 CURVE",
"596 215 LINE",
"443 98 OFFCURVE",
"357 62 OFFCURVE",
"322 62 CURVE SMOOTH",
"295 62 OFFCURVE",
"238 104 OFFCURVE",
"247 146 CURVE SMOOTH",
"380 768 LINE",
"367 780 LINE",
"74 645 LINE",
"67 602 LINE",
"76 598 LINE",
"318 687 LINE",
"276 697 LINE"
);
},
{
closed = 1;
nodes = (
"752 643 LINE",
"794 766 LINE",
"782 780 LINE",
"684 754 LINE",
"539 60 LINE SMOOTH",
"533 31 OFFCURVE",
"588 -30 OFFCURVE",
"620 -30 CURVE SMOOTH",
"621 -30 LINE SMOOTH",
"665 -30 OFFCURVE",
"745 25 OFFCURVE",
"858 114 CURVE",
"858 126 LINE",
"846 149 LINE",
"834 149 LINE",
"730 82 OFFCURVE",
"662 45 OFFCURVE",
"645 45 CURVE SMOOTH",
"633 45 OFFCURVE",
"628 57 OFFCURVE",
"630 68 CURVE SMOOTH"
);
}
);
};
layerId = "34301EF7-A2BE-469F-9697-D6100B11FDFE";
paths = (
{
closed = 1;
nodes = (
"624 104 OFFCURVE",
"759 728 OFFCURVE",
"777 766 CURVE",
"765 780 LINE",
"735 781 OFFCURVE",
"706 773 OFFCURVE",
"676 754 CURVE",
"669 706 OFFCURVE",
"588 332 OFFCURVE",
"556 202 CURVE",
"443 98 OFFCURVE",
"372 44 OFFCURVE",
"305 44 CURVE SMOOTH",
"235 44 OFFCURVE",
"199 104 OFFCURVE",
"220 198 CURVE SMOOTH",
"313 618 LINE SMOOTH",
"335 716 OFFCURVE",
"296 780 OFFCURVE",
"207 780 CURVE SMOOTH",
"125 780 OFFCURVE",
"67 727 OFFCURVE",
"36 566 CURVE",
"39 558 LINE",
"69 554 LINE",
"77 559 LINE",
"106 700 OFFCURVE",
"144 734 OFFCURVE",
"187 734 CURVE SMOOTH",
"225 734 OFFCURVE",
"245 707 OFFCURVE",
"234 658 CURVE SMOOTH",
"131 208 LINE SMOOTH",
"95 52 OFFCURVE",
"182 -15 OFFCURVE",
"285 -15 CURVE SMOOTH",
"381 -15 OFFCURVE",
"459 45 OFFCURVE",
"586 183 CURVE",
"562 194 LINE",
"554 173 OFFCURVE",
"549 152 OFFCURVE",
"545 134 CURVE SMOOTH",
"525 44 OFFCURVE",
"559 -30 OFFCURVE",
"648 -30 CURVE SMOOTH",
"730 -30 OFFCURVE",
"787 23 OFFCURVE",
"825 181 CURVE",
"822 189 LINE",
"791 196 LINE",
"783 191 LINE",
"747 50 OFFCURVE",
"710 16 OFFCURVE",
"667 16 CURVE SMOOTH",
"629 16 OFFCURVE",
"610 43 OFFCURVE",
"621 91 CURVE SMOOTH"
);
}
);
width = 860;
},
{
layerId = "CFF67ECA-3B2D-433B-B605-F38590C8F106";
paths = (
{
closed = 1;
nodes = (
"803 651 LINE",
"859 821 LINE",
"830 851 LINE",
"715 821 LINE",
"551 85 LINE SMOOTH",
"537 21 OFFCURVE",
"600 -30 OFFCURVE",
"638 -30 CURVE SMOOTH",
"733 -30 OFFCURVE",
"819 107 OFFCURVE",
"909 247 CURVE",
"909 255 LINE",
"876 292 LINE",
"867 292 LINE",
"781 187 OFFCURVE",
"746 135 OFFCURVE",
"707 135 CURVE SMOOTH",
"699 135 OFFCURVE",
"695 140 OFFCURVE",
"695 149 CURVE SMOOTH",
"695 154 OFFCURVE",
"696 159 OFFCURVE",
"697 165 CURVE SMOOTH"
);
},
{
closed = 1;
nodes = (
"113 193 LINE SMOOTH",
"71 22 OFFCURVE",
"170 -57 OFFCURVE",
"272 -57 CURVE SMOOTH",
"424 -57 OFFCURVE",
"527 122 OFFCURVE",
"713 502 CURVE",
"668 531 LINE",
"474 151 OFFCURVE",
"392 67 OFFCURVE",
"319 67 CURVE SMOOTH",
"265 67 OFFCURVE",
"220 113 OFFCURVE",
"246 216 CURVE SMOOTH",
"396 821 LINE",
"360 851 LINE",
"45 741 LINE",
"39 681 LINE",
"55 667 LINE",
"293 701 LINE",
"250 752 LINE"
);
}
);
width = 959;
}
);
leftMetricsKey = n;
note = "Fix foot to have cut in it!!";
rightMetricsKey = n;
unicode = 0075;
},
{
glyphname = v;
lastChange = "2020-03-10 13:34:49 +0000";
layers = (
{
background = {
paths = (
{
closed = 1;
nodes = (
"377 0 LINE",
"447 99 LINE",
"353 585 LINE SMOOTH",
"344 646 OFFCURVE",
"361 747 OFFCURVE",
"413 776 CURVE",
"407 787 LINE",
"406 831 LINE",
"83 831 LINE",
"59 792 LINE",
"64 786 LINE",
"76 770 OFFCURVE",
"97 702 OFFCURVE",
"117 590 CURVE SMOOTH",
"219 0 LINE"
);
},
{
closed = 1;
nodes = (
"417 0 LINE",
"723 537 LINE SMOOTH",
"802 681 OFFCURVE",
"864 747 OFFCURVE",
"894 772 CURVE",
"890 790 LINE",
"885 831 LINE",
"661 831 LINE",
"641 787 LINE",
"646 786 LINE",
"684 757 OFFCURVE",
"633 665 OFFCURVE",
"599 604 CURVE SMOOTH",
"267 0 LINE"
);
}
);
};
layerId = "6B6AD122-EF8D-49FE-8C69-4BDE8C56BDD8";
paths = (
{
closed = 1;
nodes = (
"457 716 LINE",
"482 676 OFFCURVE",
"507 636 OFFCURVE",
"507 533 CURVE SMOOTH",
"507 333 OFFCURVE",
"420 141 OFFCURVE",
"277 141 CURVE SMOOTH",
"266 141 OFFCURVE",
"259 148 OFFCURVE",
"259 161 CURVE SMOOTH",
"259 210 OFFCURVE",
"311 430 OFFCURVE",
"311 600 CURVE SMOOTH",
"311 700 OFFCURVE",
"259 764 OFFCURVE",
"195 841 CURVE",
"156 841 LINE",
"22 725 LINE",
"22 681 LINE",
"80 625 OFFCURVE",
"97 585 OFFCURVE",
"97 528 CURVE SMOOTH",
"97 430 OFFCURVE",
"48 172 OFFCURVE",
"48 110 CURVE SMOOTH",
"48 27 OFFCURVE",
"165 -30 OFFCURVE",
"213 -30 CURVE SMOOTH",
"445 -30 OFFCURVE",
"726 339 OFFCURVE",
"726 622 CURVE SMOOTH",
"726 685 OFFCURVE",
"714 760 OFFCURVE",
"666 861 CURVE",
"627 861 LINE",
"457 757 LINE"
);
}
);
width = 743;
},
{
background = {
paths = (
{
closed = 1;
nodes = (
"624 104 OFFCURVE",
"759 728 OFFCURVE",
"777 766 CURVE",
"765 780 LINE",
"735 781 OFFCURVE",
"706 773 OFFCURVE",
"676 754 CURVE",
"669 706 OFFCURVE",
"588 332 OFFCURVE",
"556 202 CURVE",
"436 87 OFFCURVE",
"377 44 OFFCURVE",
"318 44 CURVE SMOOTH",
"250 44 OFFCURVE",
"199 104 OFFCURVE",
"224 217 CURVE SMOOTH",
"313 618 LINE SMOOTH",
"335 716 OFFCURVE",
"296 780 OFFCURVE",
"207 780 CURVE SMOOTH",
"125 780 OFFCURVE",
"67 727 OFFCURVE",
"36 566 CURVE",
"39 558 LINE",
"69 554 LINE",
"77 559 LINE",
"106 700 OFFCURVE",
"144 734 OFFCURVE",
"187 734 CURVE SMOOTH",
"225 734 OFFCURVE",
"245 707 OFFCURVE",
"234 658 CURVE SMOOTH",
"135 226 LINE SMOOTH",
"95 52 OFFCURVE",
"194 -15 OFFCURVE",
"292 -15 CURVE SMOOTH",
"383 -15 OFFCURVE",
"458 42 OFFCURVE",
"586 183 CURVE",
"562 194 LINE",
"554 173 OFFCURVE",
"549 152 OFFCURVE",
"545 134 CURVE SMOOTH",
"525 44 OFFCURVE",
"559 -30 OFFCURVE",
"648 -30 CURVE SMOOTH",
"730 -30 OFFCURVE",
"787 23 OFFCURVE",
"825 181 CURVE",
"822 189 LINE",
"791 196 LINE",
"783 191 LINE",
"747 50 OFFCURVE",
"710 16 OFFCURVE",
"667 16 CURVE SMOOTH",
"629 16 OFFCURVE",
"610 43 OFFCURVE",
"621 91 CURVE SMOOTH"
);
}
);
};
layerId = "34301EF7-A2BE-469F-9697-D6100B11FDFE";
paths = (
{
closed = 1;
nodes = (
"210 652 OFFCURVE",
"115 245 OFFCURVE",
"115 154 CURVE SMOOTH",
"115 34 OFFCURVE",
"205 -30 OFFCURVE",
"304 -30 CURVE SMOOTH",
"482 -30 OFFCURVE",
"676 170 OFFCURVE",
"676 477 CURVE SMOOTH",
"676 593 OFFCURVE",
"647 780 OFFCURVE",
"562 780 CURVE SMOOTH",
"531 780 OFFCURVE",
"502 755 OFFCURVE",
"502 715 CURVE SMOOTH",
"502 656 OFFCURVE",
"563 597 OFFCURVE",
"618 592 CURVE",
"580 669 LINE",
"604 600 OFFCURVE",
"627 549 OFFCURVE",
"627 465 CURVE SMOOTH",
"627 230 OFFCURVE",
"484 20 OFFCURVE",
"325 20 CURVE SMOOTH",
"244 20 OFFCURVE",
"203 75 OFFCURVE",
"203 128 CURVE SMOOTH",
"203 207 OFFCURVE",
"298 627 OFFCURVE",
"298 665 CURVE SMOOTH",
"298 735 OFFCURVE",
"256 780 OFFCURVE",
"176 780 CURVE SMOOTH",
"90 780 OFFCURVE",
"35 727 OFFCURVE",
"6 566 CURVE",
"9 558 LINE",
"39 554 LINE",
"47 559 LINE",
"74 700 OFFCURVE",
"109 734 OFFCURVE",
"156 734 CURVE SMOOTH",
"191 734 OFFCURVE",
"210 716 OFFCURVE",
"210 683 CURVE SMOOTH"
);
}
);
width = 721;
},
{
background = {
paths = (
{
closed = 1;
nodes = (
"541 716 LINE",
"566 676 OFFCURVE",
"581 628 OFFCURVE",
"581 552 CURVE SMOOTH",
"581 325 OFFCURVE",
"446 84 OFFCURVE",
"243 84 CURVE SMOOTH",
"232 84 OFFCURVE",
"225 91 OFFCURVE",
"225 104 CURVE SMOOTH",
"225 153 OFFCURVE",
"289 420 OFFCURVE",
"289 600 CURVE SMOOTH",
"289 690 OFFCURVE",
"260 760 OFFCURVE",
"192 821 CURVE",
"158 821 LINE",
"71 713 LINE",
"71 679 LINE",
"155 613 OFFCURVE",
"158 570 OFFCURVE",
"159 518 CURVE SMOOTH",
"161 420 OFFCURVE",
"108 142 OFFCURVE",
"108 80 CURVE SMOOTH",
"108 27 OFFCURVE",
"185 -30 OFFCURVE",
"233 -30 CURVE SMOOTH",
"444 -30 OFFCURVE",
"730 262 OFFCURVE",
"730 608 CURVE SMOOTH",
"730 663 OFFCURVE",
"723 740 OFFCURVE",
"675 851 CURVE",
"641 851 LINE",
"541 747 LINE"
);
}
);
};
layerId = "CFF67ECA-3B2D-433B-B605-F38590C8F106";
paths = (
{
closed = 1;
nodes = (
"519 716 LINE",
"544 676 OFFCURVE",
"569 628 OFFCURVE",
"569 535 CURVE SMOOTH",
"569 325 OFFCURVE",
"446 84 OFFCURVE",
"243 84 CURVE SMOOTH",
"232 84 OFFCURVE",
"225 91 OFFCURVE",
"225 104 CURVE SMOOTH",
"225 153 OFFCURVE",
"289 420 OFFCURVE",
"289 590 CURVE SMOOTH",
"289 690 OFFCURVE",
"266 754 OFFCURVE",
"192 821 CURVE",
"158 821 LINE",
"72 725 LINE",
"72 691 LINE",
"142 625 OFFCURVE",
"159 575 OFFCURVE",
"159 518 CURVE SMOOTH",
"159 420 OFFCURVE",
"108 142 OFFCURVE",
"108 80 CURVE SMOOTH",
"108 27 OFFCURVE",
"185 -30 OFFCURVE",
"233 -30 CURVE SMOOTH",
"333 -30 OFFCURVE",
"441 45 OFFCURVE",
"532 154 CURVE SMOOTH",
"633 274 OFFCURVE",
"712 439 OFFCURVE",
"712 606 CURVE SMOOTH",
"712 685 OFFCURVE",
"695 750 OFFCURVE",
"647 851 CURVE",
"613 851 LINE",
"519 747 LINE"
);
}
);
width = 743;
}
);
unicode = 0076;
},
{
glyphname = w;
lastChange = "2020-03-10 13:38:59 +0000";
layers = (
{
layerId = "6B6AD122-EF8D-49FE-8C69-4BDE8C56BDD8";
paths = (
{
closed = 1;
nodes = (
"507 528 LINE",
"507 332 OFFCURVE",
"420 141 OFFCURVE",
"277 141 CURVE SMOOTH",
"266 141 OFFCURVE",
"259 148 OFFCURVE",
"259 161 CURVE SMOOTH",
"259 210 OFFCURVE",
"311 430 OFFCURVE",
"311 600 CURVE SMOOTH",
"311 700 OFFCURVE",
"259 764 OFFCURVE",
"195 841 CURVE",
"156 841 LINE",
"22 725 LINE",
"22 681 LINE",
"80 625 OFFCURVE",
"97 585 OFFCURVE",
"97 528 CURVE SMOOTH",
"97 430 OFFCURVE",
"48 172 OFFCURVE",
"48 110 CURVE SMOOTH",
"48 27 OFFCURVE",
"165 -30 OFFCURVE",
"213 -30 CURVE SMOOTH",
"340 -30 OFFCURVE",
"479 111 OFFCURVE",
"569 288 CURVE"
);
},
{
closed = 1;
nodes = (
"867 716 LINE",
"892 676 OFFCURVE",
"917 636 OFFCURVE",
"917 533 CURVE SMOOTH",
"917 333 OFFCURVE",
"830 141 OFFCURVE",
"687 141 CURVE SMOOTH",
"676 141 OFFCURVE",
"669 148 OFFCURVE",
"669 161 CURVE SMOOTH",
"669 210 OFFCURVE",
"721 430 OFFCURVE",
"721 600 CURVE SMOOTH",
"721 700 OFFCURVE",
"669 764 OFFCURVE",
"605 841 CURVE",
"566 841 LINE",
"432 725 LINE",
"432 681 LINE",
"490 625 OFFCURVE",
"507 585 OFFCURVE",
"507 528 CURVE SMOOTH",
"507 430 OFFCURVE",
"458 172 OFFCURVE",
"458 110 CURVE SMOOTH",
"458 27 OFFCURVE",
"575 -30 OFFCURVE",
"623 -30 CURVE SMOOTH",
"855 -30 OFFCURVE",
"1136 339 OFFCURVE",
"1136 622 CURVE SMOOTH",
"1136 685 OFFCURVE",
"1124 760 OFFCURVE",
"1076 861 CURVE",
"1037 861 LINE",
"867 757 LINE"
);
}
);
width = 1153;
},
{
background = {
paths = (
{
closed = 1;
nodes = (
"498 139 LINE",
"593 267 OFFCURVE",
"660 403 OFFCURVE",
"660 554 CURVE SMOOTH",
"660 635 OFFCURVE",
"637 667 OFFCURVE",
"619 667 CURVE SMOOTH",
"550 667 OFFCURVE",
"515 222 OFFCURVE",
"515 183 CURVE SMOOTH",
"515 58 OFFCURVE",
"574 20 OFFCURVE",
"641 20 CURVE SMOOTH",
"794 20 OFFCURVE",
"933 230 OFFCURVE",
"933 465 CURVE SMOOTH",
"933 549 OFFCURVE",
"912 600 OFFCURVE",
"888 669 CURVE",
"926 592 LINE",
"871 597 OFFCURVE",
"803 657 OFFCURVE",
"803 717 CURVE SMOOTH",
"803 755 OFFCURVE",
"831 780 OFFCURVE",
"862 780 CURVE SMOOTH",
"947 780 OFFCURVE",
"976 593 OFFCURVE",
"976 477 CURVE SMOOTH",
"976 170 OFFCURVE",
"783 -30 OFFCURVE",
"614 -30 CURVE SMOOTH",
"536 -30 OFFCURVE",
"439 17 OFFCURVE",
"439 220 CURVE SMOOTH",
"439 328 OFFCURVE",
"460 737 OFFCURVE",
"619 737 CURVE SMOOTH",
"667 737 OFFCURVE",
"710 702 OFFCURVE",
"710 567 CURVE SMOOTH",
"710 369 OFFCURVE",
"619 226 OFFCURVE",
"507 97 CURVE"
);
},
{
closed = 1;
nodes = (
"507 134 LINE",
"427 32 OFFCURVE",
"342 -30 OFFCURVE",
"257 -30 CURVE SMOOTH",
"200 -30 OFFCURVE",
"139 -3 OFFCURVE",
"139 80 CURVE SMOOTH",
"139 142 OFFCURVE",
"202 661 OFFCURVE",
"202 685 CURVE SMOOTH",
"202 715 OFFCURVE",
"191 732 OFFCURVE",
"158 732 CURVE SMOOTH",
"108 732 OFFCURVE",
"80 691 OFFCURVE",
"52 575 CURVE",
"41 575 LINE",
"12 584 LINE",
"13 596 LINE",
"44 727 OFFCURVE",
"98 780 OFFCURVE",
"177 780 CURVE SMOOTH",
"244 780 OFFCURVE",
"280 745 OFFCURVE",
"280 657 CURVE SMOOTH",
"280 607 OFFCURVE",
"215 102 OFFCURVE",
"215 63 CURVE SMOOTH",
"215 38 OFFCURVE",
"230 20 OFFCURVE",
"275 20 CURVE SMOOTH",
"363 20 OFFCURVE",
"434 94 OFFCURVE",
"498 188 CURVE"
);
}
);
};
layerId = "34301EF7-A2BE-469F-9697-D6100B11FDFE";
paths = (
{
closed = 1;
nodes = (
"792 -30 OFFCURVE",
"986 170 OFFCURVE",
"986 477 CURVE SMOOTH",
"986 593 OFFCURVE",
"957 780 OFFCURVE",
"872 780 CURVE SMOOTH",
"841 780 OFFCURVE",
"812 755 OFFCURVE",
"812 715 CURVE SMOOTH",
"812 656 OFFCURVE",
"873 597 OFFCURVE",
"928 592 CURVE",
"890 669 LINE",
"914 600 OFFCURVE",
"937 549 OFFCURVE",
"937 465 CURVE SMOOTH",
"937 230 OFFCURVE",
"794 20 OFFCURVE",
"656 20 CURVE SMOOTH",
"584 20 OFFCURVE",
"538 75 OFFCURVE",
"538 128 CURVE SMOOTH",
"538 207 OFFCURVE",
"633 647 OFFCURVE",
"633 685 CURVE",
"609 702 OFFCURVE",
"585 712 OFFCURVE",
"559 717 CURVE",
"545 703 LINE",
"545 672 OFFCURVE",
"450 245 OFFCURVE",
"450 139 CURVE SMOOTH",
"450 34 OFFCURVE",
"545 -30 OFFCURVE",
"635 -30 CURVE SMOOTH"
);
},
{
closed = 1;
nodes = (
"380 -30 OFFCURVE",
"454 26 OFFCURVE",
"519 112 CURVE",
"490 144 LINE",
"441 72 OFFCURVE",
"387 20 OFFCURVE",
"316 20 CURVE SMOOTH",
"244 20 OFFCURVE",
"203 75 OFFCURVE",
"203 128 CURVE SMOOTH",
"203 207 OFFCURVE",
"298 627 OFFCURVE",
"298 665 CURVE SMOOTH",
"298 735 OFFCURVE",
"256 780 OFFCURVE",
"176 780 CURVE SMOOTH",
"90 780 OFFCURVE",
"35 727 OFFCURVE",
"6 566 CURVE",
"9 558 LINE",
"39 554 LINE",
"47 559 LINE",
"74 700 OFFCURVE",
"109 734 OFFCURVE",
"156 734 CURVE SMOOTH",
"191 734 OFFCURVE",
"210 716 OFFCURVE",
"210 683 CURVE SMOOTH",
"210 652 OFFCURVE",
"115 245 OFFCURVE",
"115 134 CURVE SMOOTH",
"115 24 OFFCURVE",
"205 -30 OFFCURVE",
"292 -30 CURVE SMOOTH"
);
}
);
width = 1031;
},
{
layerId = "CFF67ECA-3B2D-433B-B605-F38590C8F106";
paths = (
{
closed = 1;
nodes = (
"559 535 LINE",
"559 325 OFFCURVE",
"436 84 OFFCURVE",
"243 84 CURVE SMOOTH",
"232 84 OFFCURVE",
"225 91 OFFCURVE",
"225 104 CURVE SMOOTH",
"225 153 OFFCURVE",
"289 420 OFFCURVE",
"289 590 CURVE SMOOTH",
"289 690 OFFCURVE",
"266 754 OFFCURVE",
"192 821 CURVE",
"158 821 LINE",
"72 725 LINE",
"72 691 LINE",
"142 625 OFFCURVE",
"159 575 OFFCURVE",
"159 518 CURVE SMOOTH",
"159 420 OFFCURVE",
"108 142 OFFCURVE",
"108 80 CURVE SMOOTH",
"108 27 OFFCURVE",
"185 -30 OFFCURVE",
"233 -30 CURVE SMOOTH",
"457 -30 OFFCURVE",
"662 326 OFFCURVE",
"662 626 CURVE"
);
},
{
closed = 1;
nodes = (
"909 716 LINE",
"934 676 OFFCURVE",
"959 628 OFFCURVE",
"959 535 CURVE SMOOTH",
"959 325 OFFCURVE",
"836 84 OFFCURVE",
"643 84 CURVE SMOOTH",
"632 84 OFFCURVE",
"625 91 OFFCURVE",
"625 104 CURVE SMOOTH",
"625 153 OFFCURVE",
"689 420 OFFCURVE",
"689 590 CURVE SMOOTH",
"689 690 OFFCURVE",
"666 754 OFFCURVE",
"592 821 CURVE",
"558 821 LINE",
"472 725 LINE",
"472 691 LINE",
"542 625 OFFCURVE",
"559 575 OFFCURVE",
"559 518 CURVE SMOOTH",
"559 420 OFFCURVE",
"508 142 OFFCURVE",
"508 80 CURVE SMOOTH",
"508 27 OFFCURVE",
"585 -30 OFFCURVE",
"633 -30 CURVE SMOOTH",
"733 -30 OFFCURVE",
"831 45 OFFCURVE",
"922 154 CURVE SMOOTH",
"1023 274 OFFCURVE",
"1102 439 OFFCURVE",
"1102 606 CURVE SMOOTH",
"1102 685 OFFCURVE",
"1085 750 OFFCURVE",
"1037 851 CURVE",
"1003 851 LINE",
"909 747 LINE"
);
}
);
width = 1133;
}
);
leftMetricsKey = v;
rightMetricsKey = v;
unicode = 0077;
},
{
glyphname = x;
lastChange = "2020-03-10 13:41:31 +0000";
layers = (
{
background = {
paths = (
{
closed = 1;
nodes = (
"341 437 LINE",
"243 298 OFFCURVE",
"176 221 OFFCURVE",
"120 221 CURVE SMOOTH",
"96 221 OFFCURVE",
"71 235 OFFCURVE",
"43 257 CURVE",
"-8 235 LINE",
"-54 0 LINE",
"-15 -30 LINE",
"142 -30 OFFCURVE",
"245 130 OFFCURVE",
"388 384 CURVE"
);
},
{
closed = 1;
nodes = (
"63 570 LINE",
"77 570 LINE",
"149 643 OFFCURVE",
"167 656 OFFCURVE",
"186 656 CURVE SMOOTH",
"204 656 OFFCURVE",
"223 643 OFFCURVE",
"230 615 CURVE SMOOTH",
"368 36 LINE SMOOTH",
"375 7 OFFCURVE",
"465 -30 OFFCURVE",
"484 -30 CURVE SMOOTH",
"552 -30 OFFCURVE",
"659 97 OFFCURVE",
"744 196 CURVE",
"744 210 LINE",
"700 261 LINE",
"686 261 LINE",
"594 188 OFFCURVE",
"576 175 OFFCURVE",
"557 175 CURVE SMOOTH",
"539 175 OFFCURVE",
"520 188 OFFCURVE",
"513 216 CURVE SMOOTH",
"375 795 LINE SMOOTH",
"368 824 OFFCURVE",
"278 861 OFFCURVE",
"259 861 CURVE SMOOTH",
"191 861 OFFCURVE",
"84 734 OFFCURVE",
"19 635 CURVE",
"19 621 LINE"
);
},
{
closed = 1;
nodes = (
"431 402 LINE",
"524 542 OFFCURVE",
"581 610 OFFCURVE",
"633 610 CURVE SMOOTH",
"657 610 OFFCURVE",
"682 596 OFFCURVE",
"710 574 CURVE",
"761 596 LINE",
"807 831 LINE",
"768 861 LINE",
"618 861 OFFCURVE",
"520 714 OFFCURVE",
"382 459 CURVE"
);
}
);
};
layerId = "6B6AD122-EF8D-49FE-8C69-4BDE8C56BDD8";
paths = (
{
closed = 1;
nodes = (
"-15 -30 LINE",
"134 -30 OFFCURVE",
"255 114 OFFCURVE",
"356 346 CURVE",
"284 361 LINE",
"362 36 LINE SMOOTH",
"369 7 OFFCURVE",
"465 -30 OFFCURVE",
"484 -30 CURVE SMOOTH",
"552 -30 OFFCURVE",
"659 97 OFFCURVE",
"744 196 CURVE",
"744 210 LINE",
"700 261 LINE",
"686 261 LINE",
"594 188 OFFCURVE",
"576 175 OFFCURVE",
"557 175 CURVE SMOOTH",
"539 175 OFFCURVE",
"527 188 OFFCURVE",
"519 216 CURVE SMOOTH",
"471 387 LINE SMOOTH",
"436 510 OFFCURVE",
"548 620 OFFCURVE",
"631 620 CURVE SMOOTH",
"668 620 OFFCURVE",
"692 596 OFFCURVE",
"710 574 CURVE",
"761 596 LINE",
"807 831 LINE",
"768 861 LINE",
"618 861 OFFCURVE",
"500 714 OFFCURVE",
"391 458 CURVE",
"463 448 LINE",
"381 795 LINE SMOOTH",
"374 824 OFFCURVE",
"278 861 OFFCURVE",
"259 861 CURVE SMOOTH",
"191 861 OFFCURVE",
"84 734 OFFCURVE",
"19 635 CURVE",
"19 621 LINE",
"63 570 LINE",
"77 570 LINE",
"149 643 OFFCURVE",
"167 656 OFFCURVE",
"186 656 CURVE SMOOTH",
"204 656 OFFCURVE",
"216 643 OFFCURVE",
"224 615 CURVE SMOOTH",
"271 442 LINE SMOOTH",
"304 322 OFFCURVE",
"217 213 OFFCURVE",
"127 213 CURVE SMOOTH",
"92 213 OFFCURVE",
"66 229 OFFCURVE",
"43 257 CURVE",
"-8 235 LINE",
"-54 0 LINE"
);
}
);
width = 781;
},
{
background = {
paths = (
{
closed = 1;
nodes = (
"335 32 OFFCURVE",
"358 -32 OFFCURVE",
"447 -32 CURVE SMOOTH",
"529 -32 OFFCURVE",
"587 21 OFFCURVE",
"618 182 CURVE",
"615 190 LINE",
"585 194 LINE",
"577 189 LINE",
"548 48 OFFCURVE",
"510 14 OFFCURVE",
"467 14 CURVE SMOOTH",
"429 14 OFFCURVE",
"416 41 OFFCURVE",
"414 90 CURVE SMOOTH",
"392 618 LINE SMOOTH",
"388 716 OFFCURVE",
"365 780 OFFCURVE",
"276 780 CURVE SMOOTH",
"194 780 OFFCURVE",
"136 727 OFFCURVE",
"105 566 CURVE",
"108 558 LINE",
"138 554 LINE",
"146 559 LINE",
"175 700 OFFCURVE",
"213 734 OFFCURVE",
"256 734 CURVE SMOOTH",
"294 734 OFFCURVE",
"307 707 OFFCURVE",
"309 658 CURVE SMOOTH",
"331 130 LINE SMOOTH"
);
},
{
closed = 1;
nodes = (
"398 360 LINE",
"478 535 OFFCURVE",
"564 727 OFFCURVE",
"674 727 CURVE",
"624 745 LINE",
"654 673 OFFCURVE",
"703 626 OFFCURVE",
"753 626 CURVE SMOOTH",
"782 626 OFFCURVE",
"814 642 OFFCURVE",
"814 684 CURVE SMOOTH",
"814 736 OFFCURVE",
"765 780 OFFCURVE",
"698 780 CURVE SMOOTH",
"561 780 OFFCURVE",
"454 594 OFFCURVE",
"376 394 CURVE"
);
},
{
closed = 1;
nodes = (
"342 390 LINE",
"262 215 OFFCURVE",
"176 23 OFFCURVE",
"66 23 CURVE",
"116 5 LINE",
"86 77 OFFCURVE",
"37 124 OFFCURVE",
"-13 124 CURVE SMOOTH",
"-42 124 OFFCURVE",
"-74 108 OFFCURVE",
"-74 66 CURVE SMOOTH",
"-74 14 OFFCURVE",
"-25 -30 OFFCURVE",
"45 -30 CURVE SMOOTH",
"179 -30 OFFCURVE",
"286 156 OFFCURVE",
"364 356 CURVE"
);
}
);
};
layerId = "34301EF7-A2BE-469F-9697-D6100B11FDFE";
paths = (
{
closed = 1;
nodes = (
"389 638 LINE SMOOTH",
"374 716 OFFCURVE",
"352 780 OFFCURVE",
"265 780 CURVE SMOOTH",
"188 780 OFFCURVE",
"133 727 OFFCURVE",
"105 566 CURVE",
"108 558 LINE",
"138 554 LINE",
"146 559 LINE",
"173 700 OFFCURVE",
"204 734 OFFCURVE",
"249 734 CURVE SMOOTH",
"287 734 OFFCURVE",
"299 707 OFFCURVE",
"309 658 CURVE SMOOTH",
"415 124 LINE SMOOTH",
"433 34 OFFCURVE",
"452 -30 OFFCURVE",
"532 -30 CURVE SMOOTH",
"612 -30 OFFCURVE",
"670 23 OFFCURVE",
"701 184 CURVE",
"698 192 LINE",
"668 196 LINE",
"660 191 LINE",
"631 50 OFFCURVE",
"593 16 OFFCURVE",
"553 16 CURVE SMOOTH",
"518 16 OFFCURVE",
"507 43 OFFCURVE",
"495 102 CURVE SMOOTH"
);
},
{
closed = 1;
nodes = (
"408 360 LINE",
"468 535 OFFCURVE",
"564 727 OFFCURVE",
"674 727 CURVE",
"624 745 LINE",
"654 673 OFFCURVE",
"703 626 OFFCURVE",
"753 626 CURVE SMOOTH",
"782 626 OFFCURVE",
"814 642 OFFCURVE",
"814 684 CURVE SMOOTH",
"814 736 OFFCURVE",
"765 780 OFFCURVE",
"698 780 CURVE SMOOTH",
"561 780 OFFCURVE",
"444 594 OFFCURVE",
"386 394 CURVE"
);
},
{
closed = 1;
nodes = (
"372 390 LINE",
"312 215 OFFCURVE",
"236 23 OFFCURVE",
"126 23 CURVE",
"176 5 LINE",
"146 77 OFFCURVE",
"97 124 OFFCURVE",
"47 124 CURVE SMOOTH",
"18 124 OFFCURVE",
"-14 108 OFFCURVE",
"-14 66 CURVE SMOOTH",
"-14 14 OFFCURVE",
"35 -30 OFFCURVE",
"101 -30 CURVE SMOOTH",
"239 -30 OFFCURVE",
"336 156 OFFCURVE",
"394 356 CURVE"
);
}
);
width = 800;
},
{
background = {
paths = (
{
closed = 1;
nodes = (
"38 599 LINE",
"47 599 LINE",
"117 659 OFFCURVE",
"153 698 OFFCURVE",
"186 698 CURVE SMOOTH",
"208 698 OFFCURVE",
"233 685 OFFCURVE",
"246 641 CURVE SMOOTH",
"413 74 LINE SMOOTH",
"435 -2 OFFCURVE",
"473 -30 OFFCURVE",
"512 -30 CURVE SMOOTH",
"591 -30 OFFCURVE",
"679 95 OFFCURVE",
"731 183 CURVE",
"731 191 LINE",
"698 228 LINE",
"689 228 LINE",
"641 185 OFFCURVE",
"584 123 OFFCURVE",
"547 123 CURVE SMOOTH",
"529 123 OFFCURVE",
"504 136 OFFCURVE",
"491 180 CURVE SMOOTH",
"324 747 LINE SMOOTH",
"302 823 OFFCURVE",
"264 851 OFFCURVE",
"225 851 CURVE SMOOTH",
"146 851 OFFCURVE",
"79 749 OFFCURVE",
"5 644 CURVE",
"5 636 LINE"
);
},
{
closed = 1;
nodes = (
"422 410 LINE",
"500 543 OFFCURVE",
"608 675 OFFCURVE",
"669 675 CURVE SMOOTH",
"707 675 OFFCURVE",
"719 626 OFFCURVE",
"723 607 CURVE",
"766 612 LINE",
"808 821 LINE",
"779 851 LINE",
"653 851 OFFCURVE",
"496 666 OFFCURVE",
"384 465 CURVE"
);
},
{
closed = 1;
nodes = (
"340 411 LINE",
"262 278 OFFCURVE",
"161 150 OFFCURVE",
"110 150 CURVE SMOOTH",
"84 150 OFFCURVE",
"65 183 OFFCURVE",
"32 227 CURVE",
"-8 215 LINE",
"-46 0 LINE",
"-17 -30 LINE",
"133 -30 OFFCURVE",
"266 155 OFFCURVE",
"378 356 CURVE"
);
}
);
};
layerId = "CFF67ECA-3B2D-433B-B605-F38590C8F106";
paths = (
{
closed = 1;
nodes = (
"13 -30 LINE",
"153 -30 OFFCURVE",
"278 131 OFFCURVE",
"361 318 CURVE",
"324 335 LINE",
"383 55 LINE SMOOTH",
"391 18 OFFCURVE",
"465 -30 OFFCURVE",
"504 -30 CURVE SMOOTH",
"583 -30 OFFCURVE",
"661 95 OFFCURVE",
"722 223 CURVE",
"722 231 LINE",
"683 259 LINE",
"674 259 LINE",
"605 159 OFFCURVE",
"560 121 OFFCURVE",
"522 121 CURVE SMOOTH",
"505 121 OFFCURVE",
"491 129 OFFCURVE",
"486 155 CURVE SMOOTH",
"415 496 LINE",
"411 379 LINE",
"452 522 OFFCURVE",
"573 675 OFFCURVE",
"639 675 CURVE SMOOTH",
"677 675 OFFCURVE",
"689 626 OFFCURVE",
"693 607 CURVE",
"736 612 LINE",
"778 821 LINE",
"749 851 LINE",
"625 851 OFFCURVE",
"470 671 OFFCURVE",
"388 474 CURVE",
"424 457 LINE",
"358 777 LINE SMOOTH",
"350 816 OFFCURVE",
"270 851 OFFCURVE",
"231 851 CURVE SMOOTH",
"172 851 OFFCURVE",
"109 749 OFFCURVE",
"25 594 CURVE",
"25 586 LINE",
"68 559 LINE",
"77 559 LINE",
"147 669 OFFCURVE",
"190 708 OFFCURVE",
"219 708 CURVE SMOOTH",
"235 708 OFFCURVE",
"249 697 OFFCURVE",
"253 678 CURVE SMOOTH",
"333 294 LINE",
"341 414 LINE",
"293 281 OFFCURVE",
"192 143 OFFCURVE",
"140 143 CURVE SMOOTH",
"114 143 OFFCURVE",
"95 176 OFFCURVE",
"62 227 CURVE",
"22 215 LINE",
"-16 0 LINE"
);
}
);
width = 777;
}
);
unicode = 0078;
},
